%TF.GenerationSoftware,KiCad,Pcbnew,9.0.2*%
%TF.CreationDate,2025-07-27T17:40:09+01:00*%
%TF.ProjectId,Pico-Keyboard-Matrix-Interface,5069636f-2d4b-4657-9962-6f6172642d4d,rev?*%
%TF.SameCoordinates,Original*%
%TF.FileFunction,Soldermask,Top*%
%TF.FilePolarity,Negative*%
%FSLAX46Y46*%
G04 Gerber Fmt 4.6, Leading zero omitted, Abs format (unit mm)*
G04 Created by KiCad (PCBNEW 9.0.2) date 2025-07-27 17:40:09*
%MOMM*%
%LPD*%
G01*
G04 APERTURE LIST*
G04 Aperture macros list*
%AMRoundRect*
0 Rectangle with rounded corners*
0 $1 Rounding radius*
0 $2 $3 $4 $5 $6 $7 $8 $9 X,Y pos of 4 corners*
0 Add a 4 corners polygon primitive as box body*
4,1,4,$2,$3,$4,$5,$6,$7,$8,$9,$2,$3,0*
0 Add four circle primitives for the rounded corners*
1,1,$1+$1,$2,$3*
1,1,$1+$1,$4,$5*
1,1,$1+$1,$6,$7*
1,1,$1+$1,$8,$9*
0 Add four rect primitives between the rounded corners*
20,1,$1+$1,$2,$3,$4,$5,0*
20,1,$1+$1,$4,$5,$6,$7,0*
20,1,$1+$1,$6,$7,$8,$9,0*
20,1,$1+$1,$8,$9,$2,$3,0*%
%AMFreePoly0*
4,1,37,0.800000,0.796148,0.878414,0.796148,1.032228,0.765552,1.177117,0.705537,1.307515,0.618408,1.418408,0.507515,1.505537,0.377117,1.565552,0.232228,1.596148,0.078414,1.596148,-0.078414,1.565552,-0.232228,1.505537,-0.377117,1.418408,-0.507515,1.307515,-0.618408,1.177117,-0.705537,1.032228,-0.765552,0.878414,-0.796148,0.800000,-0.796148,0.800000,-0.800000,-1.400000,-0.800000,
-1.403843,-0.796157,-1.439018,-0.796157,-1.511114,-0.766294,-1.566294,-0.711114,-1.596157,-0.639018,-1.596157,-0.603843,-1.600000,-0.600000,-1.600000,0.600000,-1.596157,0.603843,-1.596157,0.639018,-1.566294,0.711114,-1.511114,0.766294,-1.439018,0.796157,-1.403843,0.796157,-1.400000,0.800000,0.800000,0.800000,0.800000,0.796148,0.800000,0.796148,$1*%
%AMFreePoly1*
4,1,37,1.403843,0.796157,1.439018,0.796157,1.511114,0.766294,1.566294,0.711114,1.596157,0.639018,1.596157,0.603843,1.600000,0.600000,1.600000,-0.600000,1.596157,-0.603843,1.596157,-0.639018,1.566294,-0.711114,1.511114,-0.766294,1.439018,-0.796157,1.403843,-0.796157,1.400000,-0.800000,-0.800000,-0.800000,-0.800000,-0.796148,-0.878414,-0.796148,-1.032228,-0.765552,-1.177117,-0.705537,
-1.307515,-0.618408,-1.418408,-0.507515,-1.505537,-0.377117,-1.565552,-0.232228,-1.596148,-0.078414,-1.596148,0.078414,-1.565552,0.232228,-1.505537,0.377117,-1.418408,0.507515,-1.307515,0.618408,-1.177117,0.705537,-1.032228,0.765552,-0.878414,0.796148,-0.800000,0.796148,-0.800000,0.800000,1.400000,0.800000,1.403843,0.796157,1.403843,0.796157,$1*%
%AMFreePoly2*
4,1,37,0.603843,0.796157,0.639018,0.796157,0.711114,0.766294,0.766294,0.711114,0.796157,0.639018,0.796157,0.603843,0.800000,0.600000,0.800000,-0.600000,0.796157,-0.603843,0.796157,-0.639018,0.766294,-0.711114,0.711114,-0.766294,0.639018,-0.796157,0.603843,-0.796157,0.600000,-0.800000,0.000000,-0.800000,0.000000,-0.796148,-0.078414,-0.796148,-0.232228,-0.765552,-0.377117,-0.705537,
-0.507515,-0.618408,-0.618408,-0.507515,-0.705537,-0.377117,-0.765552,-0.232228,-0.796148,-0.078414,-0.796148,0.078414,-0.765552,0.232228,-0.705537,0.377117,-0.618408,0.507515,-0.507515,0.618408,-0.377117,0.705537,-0.232228,0.765552,-0.078414,0.796148,0.000000,0.796148,0.000000,0.800000,0.600000,0.800000,0.603843,0.796157,0.603843,0.796157,$1*%
%AMFreePoly3*
4,1,37,0.000000,0.796148,0.078414,0.796148,0.232228,0.765552,0.377117,0.705537,0.507515,0.618408,0.618408,0.507515,0.705537,0.377117,0.765552,0.232228,0.796148,0.078414,0.796148,-0.078414,0.765552,-0.232228,0.705537,-0.377117,0.618408,-0.507515,0.507515,-0.618408,0.377117,-0.705537,0.232228,-0.765552,0.078414,-0.796148,0.000000,-0.796148,0.000000,-0.800000,-0.600000,-0.800000,
-0.603843,-0.796157,-0.639018,-0.796157,-0.711114,-0.766294,-0.766294,-0.711114,-0.796157,-0.639018,-0.796157,-0.603843,-0.800000,-0.600000,-0.800000,0.600000,-0.796157,0.603843,-0.796157,0.639018,-0.766294,0.711114,-0.711114,0.766294,-0.639018,0.796157,-0.603843,0.796157,-0.600000,0.800000,0.000000,0.800000,0.000000,0.796148,0.000000,0.796148,$1*%
G04 Aperture macros list end*
%ADD10RoundRect,0.250000X0.550000X-0.550000X0.550000X0.550000X-0.550000X0.550000X-0.550000X-0.550000X0*%
%ADD11C,1.600000*%
%ADD12RoundRect,0.250000X-0.350000X-0.350000X0.350000X-0.350000X0.350000X0.350000X-0.350000X0.350000X0*%
%ADD13C,1.200000*%
%ADD14R,1.700000X1.700000*%
%ADD15C,1.700000*%
%ADD16C,2.200000*%
%ADD17C,1.850000*%
%ADD18FreePoly0,90.000000*%
%ADD19RoundRect,0.200000X0.600000X-0.600000X0.600000X0.600000X-0.600000X0.600000X-0.600000X-0.600000X0*%
%ADD20RoundRect,0.800000X0.000010X-0.800000X0.000010X0.800000X-0.000010X0.800000X-0.000010X-0.800000X0*%
%ADD21FreePoly1,90.000000*%
%ADD22FreePoly2,90.000000*%
%ADD23FreePoly3,90.000000*%
%ADD24R,1.600000X1.600000*%
G04 APERTURE END LIST*
D10*
%TO.C,U3*%
X117470000Y-57550000D03*
D11*
X120010000Y-57550000D03*
X122550000Y-57550000D03*
X125090000Y-57550000D03*
X127630000Y-57550000D03*
X130170000Y-57550000D03*
X132710000Y-57550000D03*
X135250000Y-57550000D03*
X137790000Y-57550000D03*
X140330000Y-57550000D03*
X140330000Y-49930000D03*
X137790000Y-49930000D03*
X135250000Y-49930000D03*
X132710000Y-49930000D03*
X130170000Y-49930000D03*
X127630000Y-49930000D03*
X125090000Y-49930000D03*
X122550000Y-49930000D03*
X120010000Y-49930000D03*
X117470000Y-49930000D03*
%TD*%
D10*
%TO.C,U2*%
X89110000Y-58200000D03*
D11*
X91650000Y-58200000D03*
X94190000Y-58200000D03*
X96730000Y-58200000D03*
X99270000Y-58200000D03*
X101810000Y-58200000D03*
X104350000Y-58200000D03*
X106890000Y-58200000D03*
X109430000Y-58200000D03*
X111970000Y-58200000D03*
X111970000Y-50580000D03*
X109430000Y-50580000D03*
X106890000Y-50580000D03*
X104350000Y-50580000D03*
X101810000Y-50580000D03*
X99270000Y-50580000D03*
X96730000Y-50580000D03*
X94190000Y-50580000D03*
X91650000Y-50580000D03*
X89110000Y-50580000D03*
%TD*%
D12*
%TO.C,C2*%
X135277400Y-78300000D03*
D13*
X137277400Y-78300000D03*
%TD*%
D14*
%TO.C,J3*%
X142315000Y-63240000D03*
D15*
X142315000Y-65780000D03*
X142315000Y-68320000D03*
X142315000Y-70860000D03*
%TD*%
D16*
%TO.C,A1*%
X71600000Y-89175000D03*
D17*
X74630000Y-88875000D03*
X74630000Y-84025000D03*
D16*
X71600000Y-83725000D03*
D18*
X71470000Y-96140000D03*
D19*
X71470000Y-95340000D03*
D20*
X74010000Y-96140000D03*
D11*
X74010000Y-95340000D03*
D21*
X76550000Y-96140000D03*
D22*
X76550000Y-95340000D03*
D20*
X79090000Y-96140000D03*
D11*
X79090000Y-95340000D03*
D20*
X81630000Y-96140000D03*
D11*
X81630000Y-95340000D03*
D20*
X84170000Y-96140000D03*
D11*
X84170000Y-95340000D03*
D20*
X86710000Y-96140000D03*
D11*
X86710000Y-95340000D03*
D21*
X89250000Y-96140000D03*
D22*
X89250000Y-95340000D03*
D20*
X91790000Y-96140000D03*
D11*
X91790000Y-95340000D03*
D20*
X94330000Y-96140000D03*
D11*
X94330000Y-95340000D03*
D20*
X96870000Y-96140000D03*
D11*
X96870000Y-95340000D03*
D20*
X99410000Y-96140000D03*
D11*
X99410000Y-95340000D03*
D21*
X101950000Y-96140000D03*
D22*
X101950000Y-95340000D03*
D20*
X104490000Y-96140000D03*
D11*
X104490000Y-95340000D03*
D20*
X107030000Y-96140000D03*
D11*
X107030000Y-95340000D03*
D20*
X109570000Y-96140000D03*
D11*
X109570000Y-95340000D03*
D20*
X112110000Y-96140000D03*
D11*
X112110000Y-95340000D03*
D21*
X114650000Y-96140000D03*
D22*
X114650000Y-95340000D03*
D20*
X117190000Y-96140000D03*
D11*
X117190000Y-95340000D03*
D20*
X119730000Y-96140000D03*
D11*
X119730000Y-95340000D03*
X119730000Y-77560000D03*
D20*
X119730000Y-76760000D03*
D11*
X117190000Y-77560000D03*
D20*
X117190000Y-76760000D03*
D23*
X114650000Y-77560000D03*
D18*
X114650000Y-76760000D03*
D11*
X112110000Y-77560000D03*
D20*
X112110000Y-76760000D03*
D11*
X109570000Y-77560000D03*
D20*
X109570000Y-76760000D03*
D11*
X107030000Y-77560000D03*
D20*
X107030000Y-76760000D03*
D11*
X104490000Y-77560000D03*
D20*
X104490000Y-76760000D03*
D23*
X101950000Y-77560000D03*
D18*
X101950000Y-76760000D03*
D11*
X99410000Y-77560000D03*
D20*
X99410000Y-76760000D03*
D11*
X96870000Y-77560000D03*
D20*
X96870000Y-76760000D03*
D11*
X94330000Y-77560000D03*
D20*
X94330000Y-76760000D03*
D11*
X91790000Y-77560000D03*
D20*
X91790000Y-76760000D03*
D23*
X89250000Y-77560000D03*
D18*
X89250000Y-76760000D03*
D11*
X86710000Y-77560000D03*
D20*
X86710000Y-76760000D03*
D11*
X84170000Y-77560000D03*
D20*
X84170000Y-76760000D03*
D11*
X81630000Y-77560000D03*
D20*
X81630000Y-76760000D03*
D11*
X79090000Y-77560000D03*
D20*
X79090000Y-76760000D03*
D23*
X76550000Y-77560000D03*
D18*
X76550000Y-76760000D03*
D11*
X74010000Y-77560000D03*
D20*
X74010000Y-76760000D03*
D11*
X71470000Y-77560000D03*
D20*
X71470000Y-76760000D03*
%TD*%
D10*
%TO.C,U4*%
X117960000Y-71170000D03*
D11*
X120500000Y-71170000D03*
X123040000Y-71170000D03*
X125580000Y-71170000D03*
X128120000Y-71170000D03*
X130660000Y-71170000D03*
X133200000Y-71170000D03*
X135740000Y-71170000D03*
X135740000Y-63550000D03*
X133200000Y-63550000D03*
X130660000Y-63550000D03*
X128120000Y-63550000D03*
X125580000Y-63550000D03*
X123040000Y-63550000D03*
X120500000Y-63550000D03*
X117960000Y-63550000D03*
%TD*%
D14*
%TO.C,J2*%
X111810000Y-43150000D03*
D15*
X114350000Y-43150000D03*
X116890000Y-43150000D03*
X119430000Y-43150000D03*
X121970000Y-43150000D03*
X124510000Y-43150000D03*
X127050000Y-43150000D03*
X129590000Y-43150000D03*
X132130000Y-43150000D03*
X134670000Y-43150000D03*
X137210000Y-43150000D03*
X139750000Y-43150000D03*
%TD*%
D24*
%TO.C,J4*%
X82915300Y-63340000D03*
D11*
X82915300Y-60570000D03*
X82915300Y-57800000D03*
X82915300Y-55030000D03*
X82915300Y-52260000D03*
X80075300Y-61955000D03*
X80075300Y-59185000D03*
X80075300Y-56415000D03*
X80075300Y-53645000D03*
%TD*%
D12*
%TO.C,C1*%
X128777400Y-78000000D03*
D13*
X130777400Y-78000000D03*
%TD*%
D14*
%TO.C,J1*%
X81840000Y-43050000D03*
D15*
X84380000Y-43050000D03*
X86920000Y-43050000D03*
X89460000Y-43050000D03*
X92000000Y-43050000D03*
X94540000Y-43050000D03*
X97080000Y-43050000D03*
X99620000Y-43050000D03*
%TD*%
D24*
%TO.C,RN1*%
X142000000Y-96750000D03*
D11*
X142000000Y-94210000D03*
X142000000Y-91670000D03*
X142000000Y-89130000D03*
X142000000Y-86590000D03*
X142000000Y-84050000D03*
X142000000Y-81510000D03*
X142000000Y-78970000D03*
X142000000Y-76430000D03*
%TD*%
D10*
%TO.C,U1*%
X89160000Y-71400000D03*
D11*
X91700000Y-71400000D03*
X94240000Y-71400000D03*
X96780000Y-71400000D03*
X99320000Y-71400000D03*
X101860000Y-71400000D03*
X104400000Y-71400000D03*
X106940000Y-71400000D03*
X109480000Y-71400000D03*
X112020000Y-71400000D03*
X112020000Y-63780000D03*
X109480000Y-63780000D03*
X106940000Y-63780000D03*
X104400000Y-63780000D03*
X101860000Y-63780000D03*
X99320000Y-63780000D03*
X96780000Y-63780000D03*
X94240000Y-63780000D03*
X91700000Y-63780000D03*
X89160000Y-63780000D03*
%TD*%
M02*
