%TF.GenerationSoftware,KiCad,Pcbnew,9.0.2*%
%TF.CreationDate,2025-07-27T17:40:09+01:00*%
%TF.ProjectId,Pico-Keyboard-Matrix-Interface,5069636f-2d4b-4657-9962-6f6172642d4d,rev?*%
%TF.SameCoordinates,Original*%
%TF.FileFunction,Copper,L1,Top*%
%TF.FilePolarity,Positive*%
%FSLAX46Y46*%
G04 Gerber Fmt 4.6, Leading zero omitted, Abs format (unit mm)*
G04 Created by KiCad (PCBNEW 9.0.2) date 2025-07-27 17:40:09*
%MOMM*%
%LPD*%
G01*
G04 APERTURE LIST*
G04 Aperture macros list*
%AMRoundRect*
0 Rectangle with rounded corners*
0 $1 Rounding radius*
0 $2 $3 $4 $5 $6 $7 $8 $9 X,Y pos of 4 corners*
0 Add a 4 corners polygon primitive as box body*
4,1,4,$2,$3,$4,$5,$6,$7,$8,$9,$2,$3,0*
0 Add four circle primitives for the rounded corners*
1,1,$1+$1,$2,$3*
1,1,$1+$1,$4,$5*
1,1,$1+$1,$6,$7*
1,1,$1+$1,$8,$9*
0 Add four rect primitives between the rounded corners*
20,1,$1+$1,$2,$3,$4,$5,0*
20,1,$1+$1,$4,$5,$6,$7,0*
20,1,$1+$1,$6,$7,$8,$9,0*
20,1,$1+$1,$8,$9,$2,$3,0*%
%AMFreePoly0*
4,1,37,0.800000,0.796148,0.878414,0.796148,1.032228,0.765552,1.177117,0.705537,1.307515,0.618408,1.418408,0.507515,1.505537,0.377117,1.565552,0.232228,1.596148,0.078414,1.596148,-0.078414,1.565552,-0.232228,1.505537,-0.377117,1.418408,-0.507515,1.307515,-0.618408,1.177117,-0.705537,1.032228,-0.765552,0.878414,-0.796148,0.800000,-0.796148,0.800000,-0.800000,-1.400000,-0.800000,
-1.403843,-0.796157,-1.439018,-0.796157,-1.511114,-0.766294,-1.566294,-0.711114,-1.596157,-0.639018,-1.596157,-0.603843,-1.600000,-0.600000,-1.600000,0.600000,-1.596157,0.603843,-1.596157,0.639018,-1.566294,0.711114,-1.511114,0.766294,-1.439018,0.796157,-1.403843,0.796157,-1.400000,0.800000,0.800000,0.800000,0.800000,0.796148,0.800000,0.796148,$1*%
%AMFreePoly1*
4,1,37,1.403843,0.796157,1.439018,0.796157,1.511114,0.766294,1.566294,0.711114,1.596157,0.639018,1.596157,0.603843,1.600000,0.600000,1.600000,-0.600000,1.596157,-0.603843,1.596157,-0.639018,1.566294,-0.711114,1.511114,-0.766294,1.439018,-0.796157,1.403843,-0.796157,1.400000,-0.800000,-0.800000,-0.800000,-0.800000,-0.796148,-0.878414,-0.796148,-1.032228,-0.765552,-1.177117,-0.705537,
-1.307515,-0.618408,-1.418408,-0.507515,-1.505537,-0.377117,-1.565552,-0.232228,-1.596148,-0.078414,-1.596148,0.078414,-1.565552,0.232228,-1.505537,0.377117,-1.418408,0.507515,-1.307515,0.618408,-1.177117,0.705537,-1.032228,0.765552,-0.878414,0.796148,-0.800000,0.796148,-0.800000,0.800000,1.400000,0.800000,1.403843,0.796157,1.403843,0.796157,$1*%
%AMFreePoly2*
4,1,37,0.603843,0.796157,0.639018,0.796157,0.711114,0.766294,0.766294,0.711114,0.796157,0.639018,0.796157,0.603843,0.800000,0.600000,0.800000,-0.600000,0.796157,-0.603843,0.796157,-0.639018,0.766294,-0.711114,0.711114,-0.766294,0.639018,-0.796157,0.603843,-0.796157,0.600000,-0.800000,0.000000,-0.800000,0.000000,-0.796148,-0.078414,-0.796148,-0.232228,-0.765552,-0.377117,-0.705537,
-0.507515,-0.618408,-0.618408,-0.507515,-0.705537,-0.377117,-0.765552,-0.232228,-0.796148,-0.078414,-0.796148,0.078414,-0.765552,0.232228,-0.705537,0.377117,-0.618408,0.507515,-0.507515,0.618408,-0.377117,0.705537,-0.232228,0.765552,-0.078414,0.796148,0.000000,0.796148,0.000000,0.800000,0.600000,0.800000,0.603843,0.796157,0.603843,0.796157,$1*%
%AMFreePoly3*
4,1,37,0.000000,0.796148,0.078414,0.796148,0.232228,0.765552,0.377117,0.705537,0.507515,0.618408,0.618408,0.507515,0.705537,0.377117,0.765552,0.232228,0.796148,0.078414,0.796148,-0.078414,0.765552,-0.232228,0.705537,-0.377117,0.618408,-0.507515,0.507515,-0.618408,0.377117,-0.705537,0.232228,-0.765552,0.078414,-0.796148,0.000000,-0.796148,0.000000,-0.800000,-0.600000,-0.800000,
-0.603843,-0.796157,-0.639018,-0.796157,-0.711114,-0.766294,-0.766294,-0.711114,-0.796157,-0.639018,-0.796157,-0.603843,-0.800000,-0.600000,-0.800000,0.600000,-0.796157,0.603843,-0.796157,0.639018,-0.766294,0.711114,-0.711114,0.766294,-0.639018,0.796157,-0.603843,0.796157,-0.600000,0.800000,0.000000,0.800000,0.000000,0.796148,0.000000,0.796148,$1*%
G04 Aperture macros list end*
%TA.AperFunction,ComponentPad*%
%ADD10RoundRect,0.250000X0.550000X-0.550000X0.550000X0.550000X-0.550000X0.550000X-0.550000X-0.550000X0*%
%TD*%
%TA.AperFunction,ComponentPad*%
%ADD11C,1.600000*%
%TD*%
%TA.AperFunction,ComponentPad*%
%ADD12RoundRect,0.250000X-0.350000X-0.350000X0.350000X-0.350000X0.350000X0.350000X-0.350000X0.350000X0*%
%TD*%
%TA.AperFunction,ComponentPad*%
%ADD13C,1.200000*%
%TD*%
%TA.AperFunction,ComponentPad*%
%ADD14R,1.700000X1.700000*%
%TD*%
%TA.AperFunction,ComponentPad*%
%ADD15C,1.700000*%
%TD*%
%TA.AperFunction,SMDPad,CuDef*%
%ADD16FreePoly0,90.000000*%
%TD*%
%TA.AperFunction,ComponentPad*%
%ADD17RoundRect,0.200000X0.600000X-0.600000X0.600000X0.600000X-0.600000X0.600000X-0.600000X-0.600000X0*%
%TD*%
%TA.AperFunction,SMDPad,CuDef*%
%ADD18RoundRect,0.800000X0.000010X-0.800000X0.000010X0.800000X-0.000010X0.800000X-0.000010X-0.800000X0*%
%TD*%
%TA.AperFunction,SMDPad,CuDef*%
%ADD19FreePoly1,90.000000*%
%TD*%
%TA.AperFunction,ComponentPad*%
%ADD20FreePoly2,90.000000*%
%TD*%
%TA.AperFunction,ComponentPad*%
%ADD21FreePoly3,90.000000*%
%TD*%
%TA.AperFunction,ComponentPad*%
%ADD22R,1.600000X1.600000*%
%TD*%
%TA.AperFunction,ViaPad*%
%ADD23C,0.600000*%
%TD*%
%TA.AperFunction,ViaPad*%
%ADD24C,1.900000*%
%TD*%
%TA.AperFunction,Conductor*%
%ADD25C,0.200000*%
%TD*%
%TA.AperFunction,Conductor*%
%ADD26C,1.500000*%
%TD*%
%TA.AperFunction,Conductor*%
%ADD27C,0.400000*%
%TD*%
G04 APERTURE END LIST*
D10*
%TO.P,U3,1,OEa*%
%TO.N,GND*%
X117470000Y-57550000D03*
D11*
%TO.P,U3,2,I0a*%
%TO.N,GPIO10*%
X120010000Y-57550000D03*
%TO.P,U3,3,O3b*%
%TO.N,SENSE7*%
X122550000Y-57550000D03*
%TO.P,U3,4,I1a*%
%TO.N,GPIO11*%
X125090000Y-57550000D03*
%TO.P,U3,5,O2b*%
%TO.N,SENSE6*%
X127630000Y-57550000D03*
%TO.P,U3,6,I2a*%
%TO.N,GPIO12*%
X130170000Y-57550000D03*
%TO.P,U3,7,O1b*%
%TO.N,SENSE5*%
X132710000Y-57550000D03*
%TO.P,U3,8,I3a*%
%TO.N,GPIO13*%
X135250000Y-57550000D03*
%TO.P,U3,9,O0b*%
%TO.N,SENSE4*%
X137790000Y-57550000D03*
%TO.P,U3,10,GND*%
%TO.N,GND*%
X140330000Y-57550000D03*
%TO.P,U3,11,I0b*%
%TO.N,GPIO14*%
X140330000Y-49930000D03*
%TO.P,U3,12,O3a*%
%TO.N,SENSE3*%
X137790000Y-49930000D03*
%TO.P,U3,13,I1b*%
%TO.N,GPIO15*%
X135250000Y-49930000D03*
%TO.P,U3,14,O2a*%
%TO.N,SENSE2*%
X132710000Y-49930000D03*
%TO.P,U3,15,I2b*%
%TO.N,GPIO16*%
X130170000Y-49930000D03*
%TO.P,U3,16,O1a*%
%TO.N,SENSE1*%
X127630000Y-49930000D03*
%TO.P,U3,17,I3b*%
%TO.N,GPIO17*%
X125090000Y-49930000D03*
%TO.P,U3,18,O0a*%
%TO.N,SENSE0*%
X122550000Y-49930000D03*
%TO.P,U3,19,OEb*%
%TO.N,GND*%
X120010000Y-49930000D03*
%TO.P,U3,20,VCC*%
%TO.N,VBUS*%
X117470000Y-49930000D03*
%TD*%
D10*
%TO.P,U2,1,OEa*%
%TO.N,GND*%
X89110000Y-58200000D03*
D11*
%TO.P,U2,2,I0a*%
%TO.N,GPIO18*%
X91650000Y-58200000D03*
%TO.P,U2,3,O3b*%
%TO.N,RX3*%
X94190000Y-58200000D03*
%TO.P,U2,4,I1a*%
%TO.N,GPIO19*%
X96730000Y-58200000D03*
%TO.P,U2,5,O2b*%
%TO.N,TX5*%
X99270000Y-58200000D03*
%TO.P,U2,6,I2a*%
%TO.N,GPIO20*%
X101810000Y-58200000D03*
%TO.P,U2,7,O1b*%
%TO.N,unconnected-(U2-O1b-Pad7)*%
X104350000Y-58200000D03*
%TO.P,U2,8,I3a*%
%TO.N,GPIO21*%
X106890000Y-58200000D03*
%TO.P,U2,9,O0b*%
%TO.N,unconnected-(U2-O0b-Pad9)*%
X109430000Y-58200000D03*
%TO.P,U2,10,GND*%
%TO.N,GND*%
X111970000Y-58200000D03*
%TO.P,U2,11,I0b*%
X111970000Y-50580000D03*
%TO.P,U2,12,O3a*%
%TO.N,SENSE11*%
X109430000Y-50580000D03*
%TO.P,U2,13,I1b*%
%TO.N,GND*%
X106890000Y-50580000D03*
%TO.P,U2,14,O2a*%
%TO.N,SENSE10*%
X104350000Y-50580000D03*
%TO.P,U2,15,I2b*%
%TO.N,TX3*%
X101810000Y-50580000D03*
%TO.P,U2,16,O1a*%
%TO.N,SENSE9*%
X99270000Y-50580000D03*
%TO.P,U2,17,I3b*%
%TO.N,RX5*%
X96730000Y-50580000D03*
%TO.P,U2,18,O0a*%
%TO.N,SENSE8*%
X94190000Y-50580000D03*
%TO.P,U2,19,OEb*%
%TO.N,GND*%
X91650000Y-50580000D03*
%TO.P,U2,20,VCC*%
%TO.N,+3.3V*%
X89110000Y-50580000D03*
%TD*%
D12*
%TO.P,C2,1*%
%TO.N,Net-(U4-C2+)*%
X135277400Y-78300000D03*
D13*
%TO.P,C2,2*%
%TO.N,Net-(U4-C2-)*%
X137277400Y-78300000D03*
%TD*%
D14*
%TO.P,J3,1,Pin_1*%
%TO.N,+5V*%
X142315000Y-63240000D03*
D15*
%TO.P,J3,2,Pin_2*%
%TO.N,GND*%
X142315000Y-65780000D03*
%TO.P,J3,3,Pin_3*%
%TO.N,+12V*%
X142315000Y-68320000D03*
%TO.P,J3,4,Pin_4*%
%TO.N,-12V*%
X142315000Y-70860000D03*
%TD*%
D16*
%TO.P,A1,1,GPIO0*%
%TO.N,TX3*%
X71470000Y-96140000D03*
D17*
X71470000Y-95340000D03*
D18*
%TO.P,A1,2,GPIO1*%
%TO.N,RX3*%
X74010000Y-96140000D03*
D11*
X74010000Y-95340000D03*
D19*
%TO.P,A1,3,GND*%
%TO.N,GND*%
X76550000Y-96140000D03*
D20*
X76550000Y-95340000D03*
D18*
%TO.P,A1,4,GPIO2*%
%TO.N,GPIO2*%
X79090000Y-96140000D03*
D11*
X79090000Y-95340000D03*
D18*
%TO.P,A1,5,GPIO3*%
%TO.N,GPIO3*%
X81630000Y-96140000D03*
D11*
X81630000Y-95340000D03*
D18*
%TO.P,A1,6,GPIO4*%
%TO.N,GPIO4*%
X84170000Y-96140000D03*
D11*
X84170000Y-95340000D03*
D18*
%TO.P,A1,7,GPIO5*%
%TO.N,GPIO5*%
X86710000Y-96140000D03*
D11*
X86710000Y-95340000D03*
D19*
%TO.P,A1,8,GND*%
%TO.N,GND*%
X89250000Y-96140000D03*
D20*
X89250000Y-95340000D03*
D18*
%TO.P,A1,9,GPIO6*%
%TO.N,GPIO6*%
X91790000Y-96140000D03*
D11*
X91790000Y-95340000D03*
D18*
%TO.P,A1,10,GPIO7*%
%TO.N,GPIO7*%
X94330000Y-96140000D03*
D11*
X94330000Y-95340000D03*
D18*
%TO.P,A1,11,GPIO8*%
%TO.N,GPIO8*%
X96870000Y-96140000D03*
D11*
X96870000Y-95340000D03*
D18*
%TO.P,A1,12,GPIO9*%
%TO.N,GPIO9*%
X99410000Y-96140000D03*
D11*
X99410000Y-95340000D03*
D19*
%TO.P,A1,13,GND*%
%TO.N,GND*%
X101950000Y-96140000D03*
D20*
X101950000Y-95340000D03*
D18*
%TO.P,A1,14,GPIO10*%
%TO.N,GPIO10*%
X104490000Y-96140000D03*
D11*
X104490000Y-95340000D03*
D18*
%TO.P,A1,15,GPIO11*%
%TO.N,GPIO11*%
X107030000Y-96140000D03*
D11*
X107030000Y-95340000D03*
D18*
%TO.P,A1,16,GPIO12*%
%TO.N,GPIO12*%
X109570000Y-96140000D03*
D11*
X109570000Y-95340000D03*
D18*
%TO.P,A1,17,GPIO13*%
%TO.N,GPIO13*%
X112110000Y-96140000D03*
D11*
X112110000Y-95340000D03*
D19*
%TO.P,A1,18,GND*%
%TO.N,GND*%
X114650000Y-96140000D03*
D20*
X114650000Y-95340000D03*
D18*
%TO.P,A1,19,GPIO14*%
%TO.N,GPIO14*%
X117190000Y-96140000D03*
D11*
X117190000Y-95340000D03*
D18*
%TO.P,A1,20,GPIO15*%
%TO.N,GPIO15*%
X119730000Y-96140000D03*
D11*
X119730000Y-95340000D03*
%TO.P,A1,21,GPIO16*%
%TO.N,GPIO16*%
X119730000Y-77560000D03*
D18*
X119730000Y-76760000D03*
D11*
%TO.P,A1,22,GPIO17*%
%TO.N,GPIO17*%
X117190000Y-77560000D03*
D18*
X117190000Y-76760000D03*
D21*
%TO.P,A1,23,GND*%
%TO.N,GND*%
X114650000Y-77560000D03*
D16*
X114650000Y-76760000D03*
D11*
%TO.P,A1,24,GPIO18*%
%TO.N,GPIO18*%
X112110000Y-77560000D03*
D18*
X112110000Y-76760000D03*
D11*
%TO.P,A1,25,GPIO19*%
%TO.N,GPIO19*%
X109570000Y-77560000D03*
D18*
X109570000Y-76760000D03*
D11*
%TO.P,A1,26,GPIO20*%
%TO.N,GPIO20*%
X107030000Y-77560000D03*
D18*
X107030000Y-76760000D03*
D11*
%TO.P,A1,27,GPIO21*%
%TO.N,GPIO21*%
X104490000Y-77560000D03*
D18*
X104490000Y-76760000D03*
D21*
%TO.P,A1,28,GND*%
%TO.N,GND*%
X101950000Y-77560000D03*
D16*
X101950000Y-76760000D03*
D11*
%TO.P,A1,29,GPIO22*%
%TO.N,unconnected-(A1-GPIO22-Pad29)_1*%
X99410000Y-77560000D03*
D18*
%TO.N,unconnected-(A1-GPIO22-Pad29)*%
X99410000Y-76760000D03*
D11*
%TO.P,A1,30,RUN*%
%TO.N,unconnected-(A1-RUN-Pad30)*%
X96870000Y-77560000D03*
D18*
%TO.N,unconnected-(A1-RUN-Pad30)_1*%
X96870000Y-76760000D03*
D11*
%TO.P,A1,31,GPIO26_ADC0*%
%TO.N,unconnected-(A1-GPIO26_ADC0-Pad31)*%
X94330000Y-77560000D03*
D18*
%TO.N,unconnected-(A1-GPIO26_ADC0-Pad31)_1*%
X94330000Y-76760000D03*
D11*
%TO.P,A1,32,GPIO27_ADC1*%
%TO.N,unconnected-(A1-GPIO27_ADC1-Pad32)*%
X91790000Y-77560000D03*
D18*
%TO.N,unconnected-(A1-GPIO27_ADC1-Pad32)_1*%
X91790000Y-76760000D03*
D21*
%TO.P,A1,33,AGND*%
%TO.N,GND*%
X89250000Y-77560000D03*
D16*
X89250000Y-76760000D03*
D11*
%TO.P,A1,34,GPIO28_ADC2*%
%TO.N,unconnected-(A1-GPIO28_ADC2-Pad34)*%
X86710000Y-77560000D03*
D18*
%TO.N,unconnected-(A1-GPIO28_ADC2-Pad34)_1*%
X86710000Y-76760000D03*
D11*
%TO.P,A1,35,ADC_VREF*%
%TO.N,unconnected-(A1-ADC_VREF-Pad35)_1*%
X84170000Y-77560000D03*
D18*
%TO.N,unconnected-(A1-ADC_VREF-Pad35)*%
X84170000Y-76760000D03*
D11*
%TO.P,A1,36,3V3*%
%TO.N,+3.3V*%
X81630000Y-77560000D03*
D18*
X81630000Y-76760000D03*
D11*
%TO.P,A1,37,3V3_EN*%
%TO.N,unconnected-(A1-3V3_EN-Pad37)_1*%
X79090000Y-77560000D03*
D18*
%TO.N,unconnected-(A1-3V3_EN-Pad37)*%
X79090000Y-76760000D03*
D21*
%TO.P,A1,38,GND*%
%TO.N,GND*%
X76550000Y-77560000D03*
D16*
X76550000Y-76760000D03*
D11*
%TO.P,A1,39,VSYS*%
%TO.N,+5V*%
X74010000Y-77560000D03*
D18*
X74010000Y-76760000D03*
D11*
%TO.P,A1,40,VBUS*%
%TO.N,VBUS*%
X71470000Y-77560000D03*
D18*
X71470000Y-76760000D03*
%TD*%
D10*
%TO.P,U4,1,C1+*%
%TO.N,Net-(U4-C1+)*%
X117960000Y-71170000D03*
D11*
%TO.P,U4,2,VS+*%
%TO.N,+12V*%
X120500000Y-71170000D03*
%TO.P,U4,3,C1-*%
%TO.N,Net-(U4-C1-)*%
X123040000Y-71170000D03*
%TO.P,U4,4,C2+*%
%TO.N,Net-(U4-C2+)*%
X125580000Y-71170000D03*
%TO.P,U4,5,C2-*%
%TO.N,Net-(U4-C2-)*%
X128120000Y-71170000D03*
%TO.P,U4,6,VS-*%
%TO.N,-12V*%
X130660000Y-71170000D03*
%TO.P,U4,7,T2OUT*%
%TO.N,unconnected-(U4-T2OUT-Pad7)*%
X133200000Y-71170000D03*
%TO.P,U4,8,R2IN*%
%TO.N,unconnected-(U4-R2IN-Pad8)*%
X135740000Y-71170000D03*
%TO.P,U4,9,R2OUT*%
%TO.N,unconnected-(U4-R2OUT-Pad9)*%
X135740000Y-63550000D03*
%TO.P,U4,10,T2IN*%
%TO.N,unconnected-(U4-T2IN-Pad10)*%
X133200000Y-63550000D03*
%TO.P,U4,11,T1IN*%
%TO.N,TX5*%
X130660000Y-63550000D03*
%TO.P,U4,12,R1OUT*%
%TO.N,RX5*%
X128120000Y-63550000D03*
%TO.P,U4,13,R1IN*%
%TO.N,RSRX*%
X125580000Y-63550000D03*
%TO.P,U4,14,T1OUT*%
%TO.N,RSTX*%
X123040000Y-63550000D03*
%TO.P,U4,15,GND*%
%TO.N,GND*%
X120500000Y-63550000D03*
%TO.P,U4,16,VCC*%
%TO.N,+5V*%
X117960000Y-63550000D03*
%TD*%
D14*
%TO.P,J2,1,Pin_1*%
%TO.N,SENSE0*%
X111810000Y-43150000D03*
D15*
%TO.P,J2,2,Pin_2*%
%TO.N,SENSE1*%
X114350000Y-43150000D03*
%TO.P,J2,3,Pin_3*%
%TO.N,SENSE2*%
X116890000Y-43150000D03*
%TO.P,J2,4,Pin_4*%
%TO.N,SENSE3*%
X119430000Y-43150000D03*
%TO.P,J2,5,Pin_5*%
%TO.N,SENSE4*%
X121970000Y-43150000D03*
%TO.P,J2,6,Pin_6*%
%TO.N,SENSE5*%
X124510000Y-43150000D03*
%TO.P,J2,7,Pin_7*%
%TO.N,SENSE6*%
X127050000Y-43150000D03*
%TO.P,J2,8,Pin_8*%
%TO.N,SENSE7*%
X129590000Y-43150000D03*
%TO.P,J2,9,Pin_9*%
%TO.N,SENSE8*%
X132130000Y-43150000D03*
%TO.P,J2,10,Pin_10*%
%TO.N,SENSE9*%
X134670000Y-43150000D03*
%TO.P,J2,11,Pin_11*%
%TO.N,SENSE10*%
X137210000Y-43150000D03*
%TO.P,J2,12,Pin_12*%
%TO.N,SENSE11*%
X139750000Y-43150000D03*
%TD*%
D22*
%TO.P,J4,1,1*%
%TO.N,unconnected-(J4-Pad1)*%
X82915300Y-63340000D03*
D11*
%TO.P,J4,2,2*%
%TO.N,RSTX*%
X82915300Y-60570000D03*
%TO.P,J4,3,3*%
%TO.N,RSRX*%
X82915300Y-57800000D03*
%TO.P,J4,4,4*%
%TO.N,unconnected-(J4-Pad4)*%
X82915300Y-55030000D03*
%TO.P,J4,5,5*%
%TO.N,GND*%
X82915300Y-52260000D03*
%TO.P,J4,6,6*%
%TO.N,unconnected-(J4-Pad6)*%
X80075300Y-61955000D03*
%TO.P,J4,7,7*%
%TO.N,unconnected-(J4-Pad7)*%
X80075300Y-59185000D03*
%TO.P,J4,8,8*%
%TO.N,unconnected-(J4-Pad8)*%
X80075300Y-56415000D03*
%TO.P,J4,9,9*%
%TO.N,unconnected-(J4-Pad9)*%
X80075300Y-53645000D03*
%TD*%
D12*
%TO.P,C1,1*%
%TO.N,Net-(U4-C1+)*%
X128777400Y-78000000D03*
D13*
%TO.P,C1,2*%
%TO.N,Net-(U4-C1-)*%
X130777400Y-78000000D03*
%TD*%
D14*
%TO.P,J1,1,Pin_1*%
%TO.N,SCAN0*%
X81840000Y-43050000D03*
D15*
%TO.P,J1,2,Pin_2*%
%TO.N,SCAN1*%
X84380000Y-43050000D03*
%TO.P,J1,3,Pin_3*%
%TO.N,SCAN2*%
X86920000Y-43050000D03*
%TO.P,J1,4,Pin_4*%
%TO.N,SCAN3*%
X89460000Y-43050000D03*
%TO.P,J1,5,Pin_5*%
%TO.N,SCAN4*%
X92000000Y-43050000D03*
%TO.P,J1,6,Pin_6*%
%TO.N,SCAN5*%
X94540000Y-43050000D03*
%TO.P,J1,7,Pin_7*%
%TO.N,SCAN6*%
X97080000Y-43050000D03*
%TO.P,J1,8,Pin_8*%
%TO.N,SCAN7*%
X99620000Y-43050000D03*
%TD*%
D22*
%TO.P,RN1,1,common*%
%TO.N,GND*%
X142000000Y-96750000D03*
D11*
%TO.P,RN1,2,R1*%
%TO.N,SCAN0*%
X142000000Y-94210000D03*
%TO.P,RN1,3,R2*%
%TO.N,SCAN1*%
X142000000Y-91670000D03*
%TO.P,RN1,4,R3*%
%TO.N,SCAN2*%
X142000000Y-89130000D03*
%TO.P,RN1,5,R4*%
%TO.N,SCAN3*%
X142000000Y-86590000D03*
%TO.P,RN1,6,R5*%
%TO.N,SCAN4*%
X142000000Y-84050000D03*
%TO.P,RN1,7,R6*%
%TO.N,SCAN5*%
X142000000Y-81510000D03*
%TO.P,RN1,8,R7*%
%TO.N,SCAN6*%
X142000000Y-78970000D03*
%TO.P,RN1,9,R8*%
%TO.N,SCAN7*%
X142000000Y-76430000D03*
%TD*%
D10*
%TO.P,U1,1,OEa*%
%TO.N,GND*%
X89160000Y-71400000D03*
D11*
%TO.P,U1,2,I0a*%
%TO.N,SCAN0*%
X91700000Y-71400000D03*
%TO.P,U1,3,O3b*%
%TO.N,GPIO9*%
X94240000Y-71400000D03*
%TO.P,U1,4,I1a*%
%TO.N,SCAN1*%
X96780000Y-71400000D03*
%TO.P,U1,5,O2b*%
%TO.N,GPIO8*%
X99320000Y-71400000D03*
%TO.P,U1,6,I2a*%
%TO.N,SCAN2*%
X101860000Y-71400000D03*
%TO.P,U1,7,O1b*%
%TO.N,GPIO7*%
X104400000Y-71400000D03*
%TO.P,U1,8,I3a*%
%TO.N,SCAN3*%
X106940000Y-71400000D03*
%TO.P,U1,9,O0b*%
%TO.N,GPIO6*%
X109480000Y-71400000D03*
%TO.P,U1,10,GND*%
%TO.N,GND*%
X112020000Y-71400000D03*
%TO.P,U1,11,I0b*%
%TO.N,SCAN4*%
X112020000Y-63780000D03*
%TO.P,U1,12,O3a*%
%TO.N,GPIO5*%
X109480000Y-63780000D03*
%TO.P,U1,13,I1b*%
%TO.N,SCAN5*%
X106940000Y-63780000D03*
%TO.P,U1,14,O2a*%
%TO.N,GPIO4*%
X104400000Y-63780000D03*
%TO.P,U1,15,I2b*%
%TO.N,SCAN6*%
X101860000Y-63780000D03*
%TO.P,U1,16,O1a*%
%TO.N,GPIO3*%
X99320000Y-63780000D03*
%TO.P,U1,17,I3b*%
%TO.N,SCAN7*%
X96780000Y-63780000D03*
%TO.P,U1,18,O0a*%
%TO.N,GPIO2*%
X94240000Y-63780000D03*
%TO.P,U1,19,OEb*%
%TO.N,GND*%
X91700000Y-63780000D03*
%TO.P,U1,20,VCC*%
%TO.N,+3.3V*%
X89160000Y-63780000D03*
%TD*%
D23*
%TO.N,TX5*%
X129570400Y-60507400D03*
%TO.N,RSTX*%
X120567900Y-60507400D03*
%TO.N,RSRX*%
X125178600Y-59057300D03*
%TO.N,SENSE7*%
X124869000Y-47978500D03*
%TO.N,SCAN3*%
X103379300Y-53343600D03*
%TO.N,SCAN0*%
X84916800Y-64842200D03*
%TO.N,GPIO8*%
X94230100Y-73876900D03*
%TO.N,GPIO9*%
X93021900Y-74540800D03*
D24*
%TO.N,+5V*%
X87423600Y-55193800D03*
D23*
%TO.N,GPIO19*%
X96127600Y-62525000D03*
%TO.N,GPIO21*%
X104075000Y-72874300D03*
X110584000Y-67885600D03*
%TO.N,GPIO11*%
X134912300Y-60419600D03*
%TO.N,GPIO3*%
X90406600Y-68087800D03*
%TO.N,GPIO14*%
X129699500Y-88268700D03*
%TO.N,GPIO2*%
X88803800Y-67820600D03*
%TO.N,GPIO7*%
X95614000Y-90299700D03*
%TO.N,GPIO18*%
X108879700Y-66428700D03*
%TD*%
D25*
%TO.N,TX5*%
X128720500Y-59657500D02*
X129570400Y-60507400D01*
X100727500Y-59657500D02*
X128720500Y-59657500D01*
X99270000Y-58200000D02*
X100727500Y-59657500D01*
%TO.N,RX5*%
X129299800Y-64729800D02*
X128120000Y-63550000D01*
X139127600Y-64729800D02*
X129299800Y-64729800D01*
X139312400Y-64545000D02*
X139127600Y-64729800D01*
X143182200Y-64545000D02*
X139312400Y-64545000D01*
X143465200Y-64262000D02*
X143182200Y-64545000D01*
X143465200Y-56680500D02*
X143465200Y-64262000D01*
X137814900Y-51030200D02*
X143465200Y-56680500D01*
X124599600Y-51030200D02*
X137814900Y-51030200D01*
X123820000Y-50250600D02*
X124599600Y-51030200D01*
X123820000Y-49644100D02*
X123820000Y-50250600D01*
X122956300Y-48780400D02*
X123820000Y-49644100D01*
X116819600Y-48780400D02*
X122956300Y-48780400D01*
X113881400Y-51718600D02*
X116819600Y-48780400D01*
X97868600Y-51718600D02*
X113881400Y-51718600D01*
X96730000Y-50580000D02*
X97868600Y-51718600D01*
%TO.N,RSTX*%
X86386500Y-57098800D02*
X82915300Y-60570000D01*
X90737100Y-57098800D02*
X86386500Y-57098800D01*
X91152400Y-56683500D02*
X90737100Y-57098800D01*
X96846300Y-56683500D02*
X91152400Y-56683500D01*
X98087400Y-57924600D02*
X96846300Y-56683500D01*
X98087400Y-58627400D02*
X98087400Y-57924600D01*
X99967400Y-60507400D02*
X98087400Y-58627400D01*
X120567900Y-60507400D02*
X99967400Y-60507400D01*
%TO.N,RSRX*%
X115228500Y-59057300D02*
X125178600Y-59057300D01*
X112453100Y-56281900D02*
X115228500Y-59057300D01*
X89325900Y-56281900D02*
X112453100Y-56281900D01*
X89124300Y-56483500D02*
X89325900Y-56281900D01*
X84231800Y-56483500D02*
X89124300Y-56483500D01*
X82915300Y-57800000D02*
X84231800Y-56483500D01*
%TO.N,+12V*%
X123350000Y-68320000D02*
X120500000Y-71170000D01*
X142315000Y-68320000D02*
X123350000Y-68320000D01*
%TO.N,-12V*%
X131796000Y-70034000D02*
X130660000Y-71170000D01*
X141489000Y-70034000D02*
X131796000Y-70034000D01*
X142315000Y-70860000D02*
X141489000Y-70034000D01*
%TO.N,SENSE9*%
X133119700Y-44700300D02*
X134670000Y-43150000D01*
X105149700Y-44700300D02*
X133119700Y-44700300D01*
X99270000Y-50580000D02*
X105149700Y-44700300D01*
%TO.N,SENSE7*%
X134033800Y-47978500D02*
X124869000Y-47978500D01*
X138375100Y-43637200D02*
X134033800Y-47978500D01*
X138375100Y-42672000D02*
X138375100Y-43637200D01*
X137673600Y-41970500D02*
X138375100Y-42672000D01*
X130769500Y-41970500D02*
X137673600Y-41970500D01*
X129590000Y-43150000D02*
X130769500Y-41970500D01*
%TO.N,SENSE11*%
X111629700Y-48380300D02*
X109430000Y-50580000D01*
X123227300Y-48380300D02*
X111629700Y-48380300D01*
X123427400Y-48580400D02*
X123227300Y-48380300D01*
X134319600Y-48580400D02*
X123427400Y-48580400D01*
X139750000Y-43150000D02*
X134319600Y-48580400D01*
%TO.N,SENSE10*%
X135162100Y-45197900D02*
X137210000Y-43150000D01*
X109732100Y-45197900D02*
X135162100Y-45197900D01*
X104350000Y-50580000D02*
X109732100Y-45197900D01*
%TO.N,SENSE8*%
X100469900Y-44300100D02*
X94190000Y-50580000D01*
X130979900Y-44300100D02*
X100469900Y-44300100D01*
X132130000Y-43150000D02*
X130979900Y-44300100D01*
%TO.N,SCAN3*%
X133044700Y-86590000D02*
X142000000Y-86590000D01*
X120428000Y-73973300D02*
X133044700Y-86590000D01*
X118972300Y-73973300D02*
X120428000Y-73973300D01*
X118572300Y-73573300D02*
X118972300Y-73973300D01*
X109113300Y-73573300D02*
X118572300Y-73573300D01*
X106940000Y-71400000D02*
X109113300Y-73573300D01*
X102154500Y-52118800D02*
X103379300Y-53343600D01*
X94104200Y-52118800D02*
X102154500Y-52118800D01*
X92920000Y-50934600D02*
X94104200Y-52118800D01*
X92920000Y-46510000D02*
X92920000Y-50934600D01*
X89460000Y-43050000D02*
X92920000Y-46510000D01*
%TO.N,SCAN7*%
X97896300Y-62663700D02*
X96780000Y-63780000D01*
X102353400Y-62663700D02*
X97896300Y-62663700D01*
X103130000Y-63440300D02*
X102353400Y-62663700D01*
X103130000Y-64087100D02*
X103130000Y-63440300D01*
X106084500Y-67041600D02*
X103130000Y-64087100D01*
X109776500Y-67041600D02*
X106084500Y-67041600D01*
X109932700Y-66885400D02*
X109776500Y-67041600D01*
X110998300Y-66885400D02*
X109932700Y-66885400D01*
X116885900Y-72773000D02*
X110998300Y-66885400D01*
X118903600Y-72773000D02*
X116885900Y-72773000D01*
X119303600Y-73173000D02*
X118903600Y-72773000D01*
X121840000Y-73173000D02*
X119303600Y-73173000D01*
X127871100Y-79204100D02*
X121840000Y-73173000D01*
X139225900Y-79204100D02*
X127871100Y-79204100D01*
X142000000Y-76430000D02*
X139225900Y-79204100D01*
%TO.N,SCAN2*%
X101860000Y-71507900D02*
X101860000Y-71400000D01*
X104008700Y-73656600D02*
X101860000Y-71507900D01*
X106100900Y-73656600D02*
X104008700Y-73656600D01*
X106500900Y-74056600D02*
X106100900Y-73656600D01*
X118489800Y-74056600D02*
X106500900Y-74056600D01*
X118806600Y-74373400D02*
X118489800Y-74056600D01*
X120262200Y-74373400D02*
X118806600Y-74373400D01*
X135018800Y-89130000D02*
X120262200Y-74373400D01*
X142000000Y-89130000D02*
X135018800Y-89130000D01*
%TO.N,SCAN0*%
X92624300Y-71400000D02*
X91700000Y-71400000D01*
X96081200Y-74856900D02*
X92624300Y-71400000D01*
X104974800Y-74856900D02*
X96081200Y-74856900D01*
X105603800Y-75485900D02*
X104974800Y-74856900D01*
X105603800Y-77732400D02*
X105603800Y-75485900D01*
X106761600Y-78890200D02*
X105603800Y-77732400D01*
X122608800Y-78890200D02*
X106761600Y-78890200D01*
X137928600Y-94210000D02*
X122608800Y-78890200D01*
X142000000Y-94210000D02*
X137928600Y-94210000D01*
X91474600Y-71400000D02*
X91700000Y-71400000D01*
X84916800Y-64842200D02*
X91474600Y-71400000D01*
%TO.N,SCAN5*%
X143111100Y-80398900D02*
X142000000Y-81510000D01*
X143111100Y-75976000D02*
X143111100Y-80398900D01*
X142232600Y-75097500D02*
X143111100Y-75976000D01*
X133006100Y-75097500D02*
X142232600Y-75097500D01*
X129390000Y-71481400D02*
X133006100Y-75097500D01*
X129390000Y-70841900D02*
X129390000Y-71481400D01*
X128618000Y-70069900D02*
X129390000Y-70841900D01*
X122544600Y-70069900D02*
X128618000Y-70069900D01*
X121770000Y-70844500D02*
X122544600Y-70069900D01*
X121770000Y-71460500D02*
X121770000Y-70844500D01*
X120957600Y-72272900D02*
X121770000Y-71460500D01*
X120037400Y-72272900D02*
X120957600Y-72272900D01*
X119089000Y-71324500D02*
X120037400Y-72272900D01*
X119089000Y-70417600D02*
X119089000Y-71324500D01*
X118207200Y-69535800D02*
X119089000Y-70417600D01*
X115928700Y-69535800D02*
X118207200Y-69535800D01*
X112156700Y-65763800D02*
X115928700Y-69535800D01*
X108923800Y-65763800D02*
X112156700Y-65763800D01*
X106940000Y-63780000D02*
X108923800Y-65763800D01*
%TO.N,SCAN1*%
X99436700Y-74056700D02*
X96780000Y-71400000D01*
X105935200Y-74056700D02*
X99436700Y-74056700D01*
X106335200Y-74456700D02*
X105935200Y-74056700D01*
X118324100Y-74456700D02*
X106335200Y-74456700D01*
X118640900Y-74773500D02*
X118324100Y-74456700D01*
X120096500Y-74773500D02*
X118640900Y-74773500D01*
X136993000Y-91670000D02*
X120096500Y-74773500D01*
X142000000Y-91670000D02*
X136993000Y-91670000D01*
%TO.N,SCAN6*%
X105525300Y-67445300D02*
X101860000Y-63780000D01*
X109938600Y-67445300D02*
X105525300Y-67445300D01*
X110098400Y-67285500D02*
X109938600Y-67445300D01*
X110832600Y-67285500D02*
X110098400Y-67285500D01*
X116720200Y-73173100D02*
X110832600Y-67285500D01*
X118737900Y-73173100D02*
X116720200Y-73173100D01*
X119138000Y-73573200D02*
X118737900Y-73173100D01*
X121674400Y-73573200D02*
X119138000Y-73573200D01*
X127705400Y-79604200D02*
X121674400Y-73573200D01*
X141365800Y-79604200D02*
X127705400Y-79604200D01*
X142000000Y-78970000D02*
X141365800Y-79604200D01*
%TO.N,SCAN4*%
X115290000Y-67050000D02*
X112020000Y-63780000D01*
X142727800Y-67050000D02*
X115290000Y-67050000D01*
X143533600Y-67855800D02*
X142727800Y-67050000D01*
X143533600Y-82516400D02*
X143533600Y-67855800D01*
X142000000Y-84050000D02*
X143533600Y-82516400D01*
%TO.N,Net-(U4-C2+)*%
X132710000Y-78300000D02*
X125580000Y-71170000D01*
X135277400Y-78300000D02*
X132710000Y-78300000D01*
%TO.N,Net-(U4-C2-)*%
X133138700Y-76188700D02*
X128120000Y-71170000D01*
X135166100Y-76188700D02*
X133138700Y-76188700D01*
X137277400Y-78300000D02*
X135166100Y-76188700D01*
%TO.N,Net-(U4-C1-)*%
X123947400Y-71170000D02*
X123040000Y-71170000D01*
X130777400Y-78000000D02*
X123947400Y-71170000D01*
%TO.N,Net-(U4-C1+)*%
X123450400Y-72673000D02*
X128777400Y-78000000D01*
X119463000Y-72673000D02*
X123450400Y-72673000D01*
X117960000Y-71170000D02*
X119463000Y-72673000D01*
%TO.N,GPIO8*%
X96870000Y-96140000D02*
X96870000Y-95340000D01*
X92280500Y-73876900D02*
X94230100Y-73876900D01*
X90686800Y-75470600D02*
X92280500Y-73876900D01*
X90686800Y-83174400D02*
X90686800Y-75470600D01*
X96870000Y-89357600D02*
X90686800Y-83174400D01*
X96870000Y-95340000D02*
X96870000Y-89357600D01*
%TO.N,GPIO9*%
X99410000Y-96140000D02*
X99410000Y-95340000D01*
X93021900Y-78840700D02*
X93021900Y-74540800D01*
X99410000Y-85228800D02*
X93021900Y-78840700D01*
X99410000Y-95340000D02*
X99410000Y-85228800D01*
%TO.N,GPIO5*%
X86710000Y-96140000D02*
X86710000Y-95340000D01*
%TO.N,TX3*%
X71470000Y-95340000D02*
X71470000Y-96140000D01*
%TO.N,GPIO20*%
X107030000Y-76760000D02*
X107030000Y-77560000D01*
%TO.N,+3.3V*%
X81630000Y-76760000D02*
X81630000Y-77560000D01*
D26*
%TO.N,+5V*%
X74010000Y-77560000D02*
X74010000Y-76760000D01*
X139073500Y-61798600D02*
X140514900Y-63240000D01*
X119711400Y-61798600D02*
X139073500Y-61798600D01*
X117960000Y-63550000D02*
X119711400Y-61798600D01*
X142315000Y-63240000D02*
X140514900Y-63240000D01*
X142315000Y-57027400D02*
X142315000Y-63240000D01*
X140481400Y-55193800D02*
X142315000Y-57027400D01*
X87423600Y-55193800D02*
X140481400Y-55193800D01*
D25*
%TO.N,GPIO17*%
X117190000Y-76760000D02*
X117190000Y-77560000D01*
%TO.N,GPIO13*%
X112110000Y-95340000D02*
X112110000Y-96140000D01*
%TO.N,GPIO19*%
X109570000Y-77560000D02*
X109570000Y-76760000D01*
X107666900Y-74856900D02*
X109570000Y-76760000D01*
X106125800Y-74856900D02*
X107666900Y-74856900D01*
X105725700Y-74456800D02*
X106125800Y-74856900D01*
X98251000Y-74456800D02*
X105725700Y-74456800D01*
X95340100Y-71545900D02*
X98251000Y-74456800D01*
X95340100Y-70944300D02*
X95340100Y-71545900D01*
X93478900Y-69083100D02*
X95340100Y-70944300D01*
X90538100Y-69083100D02*
X93478900Y-69083100D01*
X89785200Y-68330200D02*
X90538100Y-69083100D01*
X89785200Y-67826700D02*
X89785200Y-68330200D01*
X90124200Y-67487700D02*
X89785200Y-67826700D01*
X92088300Y-67487700D02*
X90124200Y-67487700D01*
X95510000Y-64066000D02*
X92088300Y-67487700D01*
X95510000Y-63142600D02*
X95510000Y-64066000D01*
X96127600Y-62525000D02*
X95510000Y-63142600D01*
%TO.N,GPIO16*%
X119730000Y-76760000D02*
X119730000Y-77560000D01*
%TO.N,GPIO21*%
X104490000Y-77560000D02*
X104490000Y-76760000D01*
X108863900Y-67885600D02*
X110584000Y-67885600D01*
X105670000Y-71079500D02*
X108863900Y-67885600D01*
X105670000Y-71686000D02*
X105670000Y-71079500D01*
X104481700Y-72874300D02*
X105670000Y-71686000D01*
X104075000Y-72874300D02*
X104481700Y-72874300D01*
%TO.N,GPIO12*%
X109570000Y-95340000D02*
X109570000Y-96140000D01*
%TO.N,GPIO10*%
X104490000Y-96140000D02*
X104490000Y-95340000D01*
%TO.N,RX3*%
X74010000Y-96140000D02*
X74010000Y-95340000D01*
X92864800Y-59525200D02*
X94190000Y-58200000D01*
X89319400Y-59525200D02*
X92864800Y-59525200D01*
X75439500Y-73405100D02*
X89319400Y-59525200D01*
X75439500Y-82539500D02*
X75439500Y-73405100D01*
X76124600Y-83224600D02*
X75439500Y-82539500D01*
X76124600Y-93225400D02*
X76124600Y-83224600D01*
X74010000Y-95340000D02*
X76124600Y-93225400D01*
%TO.N,GPIO11*%
X107030000Y-95340000D02*
X107030000Y-96140000D01*
X126292900Y-58752900D02*
X125090000Y-57550000D01*
X133245600Y-58752900D02*
X126292900Y-58752900D01*
X134912300Y-60419600D02*
X133245600Y-58752900D01*
%TO.N,GPIO15*%
X119730000Y-95340000D02*
X119730000Y-96140000D01*
%TO.N,GPIO3*%
X81630000Y-95340000D02*
X81630000Y-96140000D01*
X95012200Y-68087800D02*
X99320000Y-63780000D01*
X90406600Y-68087800D02*
X95012200Y-68087800D01*
%TO.N,GPIO14*%
X117190000Y-95340000D02*
X117190000Y-96140000D01*
X124261300Y-88268700D02*
X129699500Y-88268700D01*
X117190000Y-95340000D02*
X124261300Y-88268700D01*
D27*
%TO.N,VBUS*%
X71470000Y-77560000D02*
X71470000Y-76760000D01*
X113356300Y-54043700D02*
X117470000Y-49930000D01*
X103089400Y-54043700D02*
X113356300Y-54043700D01*
X102824000Y-53778300D02*
X103089400Y-54043700D01*
X82421300Y-53778300D02*
X102824000Y-53778300D01*
X81702900Y-54496700D02*
X82421300Y-53778300D01*
X81702900Y-64530000D02*
X81702900Y-54496700D01*
X71470000Y-74762900D02*
X81702900Y-64530000D01*
X71470000Y-76760000D02*
X71470000Y-74762900D01*
D25*
%TO.N,GPIO2*%
X79090000Y-95340000D02*
X79090000Y-96140000D01*
X92597000Y-65423000D02*
X94240000Y-63780000D01*
X91201400Y-65423000D02*
X92597000Y-65423000D01*
X88803800Y-67820600D02*
X91201400Y-65423000D01*
%TO.N,GPIO7*%
X94330000Y-96140000D02*
X94330000Y-95340000D01*
X94330000Y-91583700D02*
X95614000Y-90299700D01*
X94330000Y-95340000D02*
X94330000Y-91583700D01*
%TO.N,GPIO6*%
X91790000Y-95340000D02*
X91790000Y-96140000D01*
%TO.N,GPIO18*%
X112110000Y-77560000D02*
X112110000Y-76760000D01*
X92766300Y-57083700D02*
X91650000Y-58200000D01*
X94641700Y-57083700D02*
X92766300Y-57083700D01*
X95460000Y-57902000D02*
X94641700Y-57083700D01*
X95460000Y-58527400D02*
X95460000Y-57902000D01*
X99196100Y-62263500D02*
X95460000Y-58527400D01*
X104444200Y-62263500D02*
X99196100Y-62263500D01*
X105830400Y-63649700D02*
X104444200Y-62263500D01*
X105830400Y-64239100D02*
X105830400Y-63649700D01*
X108020000Y-66428700D02*
X105830400Y-64239100D01*
X108879700Y-66428700D02*
X108020000Y-66428700D01*
%TO.N,GPIO4*%
X84170000Y-95340000D02*
X84170000Y-96140000D01*
D26*
%TO.N,GND*%
X101950000Y-76760000D02*
X101950000Y-77560000D01*
X114650000Y-76760000D02*
X114650000Y-77560000D01*
X114650000Y-95340000D02*
X114650000Y-96140000D01*
X89250000Y-95340000D02*
X89250000Y-96140000D01*
X122730000Y-65780000D02*
X120500000Y-63550000D01*
X142315000Y-65780000D02*
X122730000Y-65780000D01*
X101950000Y-96140000D02*
X101950000Y-95340000D01*
X89250000Y-77560000D02*
X89250000Y-76760000D01*
X142000000Y-96750000D02*
X140249900Y-96750000D01*
X83037700Y-52382400D02*
X82915300Y-52260000D01*
X89847600Y-52382400D02*
X83037700Y-52382400D01*
X91650000Y-50580000D02*
X89847600Y-52382400D01*
X76550000Y-96140000D02*
X76550000Y-95340000D01*
X101950000Y-96873000D02*
X101950000Y-96140000D01*
X103775100Y-98698100D02*
X101950000Y-96873000D01*
X112824900Y-98698100D02*
X103775100Y-98698100D01*
X114650000Y-96873000D02*
X112824900Y-98698100D01*
X116470200Y-98693200D02*
X114650000Y-96873000D01*
X138306700Y-98693200D02*
X116470200Y-98693200D01*
X140249900Y-96750000D02*
X138306700Y-98693200D01*
X114650000Y-96873000D02*
X114650000Y-96140000D01*
X76550000Y-77560000D02*
X76550000Y-76760000D01*
X81177600Y-71400000D02*
X89160000Y-71400000D01*
X76550000Y-76027600D02*
X81177600Y-71400000D01*
X76550000Y-76760000D02*
X76550000Y-76027600D01*
%TD*%
M02*
