%TF.GenerationSoftware,KiCad,Pcbnew,9.0.2*%
%TF.CreationDate,2025-07-27T17:40:09+01:00*%
%TF.ProjectId,Pico-Keyboard-Matrix-Interface,5069636f-2d4b-4657-9962-6f6172642d4d,rev?*%
%TF.SameCoordinates,Original*%
%TF.FileFunction,Copper,L2,Bot*%
%TF.FilePolarity,Positive*%
%FSLAX46Y46*%
G04 Gerber Fmt 4.6, Leading zero omitted, Abs format (unit mm)*
G04 Created by KiCad (PCBNEW 9.0.2) date 2025-07-27 17:40:09*
%MOMM*%
%LPD*%
G01*
G04 APERTURE LIST*
G04 Aperture macros list*
%AMRoundRect*
0 Rectangle with rounded corners*
0 $1 Rounding radius*
0 $2 $3 $4 $5 $6 $7 $8 $9 X,Y pos of 4 corners*
0 Add a 4 corners polygon primitive as box body*
4,1,4,$2,$3,$4,$5,$6,$7,$8,$9,$2,$3,0*
0 Add four circle primitives for the rounded corners*
1,1,$1+$1,$2,$3*
1,1,$1+$1,$4,$5*
1,1,$1+$1,$6,$7*
1,1,$1+$1,$8,$9*
0 Add four rect primitives between the rounded corners*
20,1,$1+$1,$2,$3,$4,$5,0*
20,1,$1+$1,$4,$5,$6,$7,0*
20,1,$1+$1,$6,$7,$8,$9,0*
20,1,$1+$1,$8,$9,$2,$3,0*%
%AMFreePoly0*
4,1,37,0.603843,0.796157,0.639018,0.796157,0.711114,0.766294,0.766294,0.711114,0.796157,0.639018,0.796157,0.603843,0.800000,0.600000,0.800000,-0.600000,0.796157,-0.603843,0.796157,-0.639018,0.766294,-0.711114,0.711114,-0.766294,0.639018,-0.796157,0.603843,-0.796157,0.600000,-0.800000,0.000000,-0.800000,0.000000,-0.796148,-0.078414,-0.796148,-0.232228,-0.765552,-0.377117,-0.705537,
-0.507515,-0.618408,-0.618408,-0.507515,-0.705537,-0.377117,-0.765552,-0.232228,-0.796148,-0.078414,-0.796148,0.078414,-0.765552,0.232228,-0.705537,0.377117,-0.618408,0.507515,-0.507515,0.618408,-0.377117,0.705537,-0.232228,0.765552,-0.078414,0.796148,0.000000,0.796148,0.000000,0.800000,0.600000,0.800000,0.603843,0.796157,0.603843,0.796157,$1*%
%AMFreePoly1*
4,1,37,0.000000,0.796148,0.078414,0.796148,0.232228,0.765552,0.377117,0.705537,0.507515,0.618408,0.618408,0.507515,0.705537,0.377117,0.765552,0.232228,0.796148,0.078414,0.796148,-0.078414,0.765552,-0.232228,0.705537,-0.377117,0.618408,-0.507515,0.507515,-0.618408,0.377117,-0.705537,0.232228,-0.765552,0.078414,-0.796148,0.000000,-0.796148,0.000000,-0.800000,-0.600000,-0.800000,
-0.603843,-0.796157,-0.639018,-0.796157,-0.711114,-0.766294,-0.766294,-0.711114,-0.796157,-0.639018,-0.796157,-0.603843,-0.800000,-0.600000,-0.800000,0.600000,-0.796157,0.603843,-0.796157,0.639018,-0.766294,0.711114,-0.711114,0.766294,-0.639018,0.796157,-0.603843,0.796157,-0.600000,0.800000,0.000000,0.800000,0.000000,0.796148,0.000000,0.796148,$1*%
G04 Aperture macros list end*
%TA.AperFunction,ComponentPad*%
%ADD10RoundRect,0.250000X0.550000X-0.550000X0.550000X0.550000X-0.550000X0.550000X-0.550000X-0.550000X0*%
%TD*%
%TA.AperFunction,ComponentPad*%
%ADD11C,1.600000*%
%TD*%
%TA.AperFunction,ComponentPad*%
%ADD12RoundRect,0.250000X-0.350000X-0.350000X0.350000X-0.350000X0.350000X0.350000X-0.350000X0.350000X0*%
%TD*%
%TA.AperFunction,ComponentPad*%
%ADD13C,1.200000*%
%TD*%
%TA.AperFunction,ComponentPad*%
%ADD14R,1.700000X1.700000*%
%TD*%
%TA.AperFunction,ComponentPad*%
%ADD15C,1.700000*%
%TD*%
%TA.AperFunction,ComponentPad*%
%ADD16RoundRect,0.200000X0.600000X-0.600000X0.600000X0.600000X-0.600000X0.600000X-0.600000X-0.600000X0*%
%TD*%
%TA.AperFunction,ComponentPad*%
%ADD17FreePoly0,90.000000*%
%TD*%
%TA.AperFunction,ComponentPad*%
%ADD18FreePoly1,90.000000*%
%TD*%
%TA.AperFunction,ComponentPad*%
%ADD19R,1.600000X1.600000*%
%TD*%
%TA.AperFunction,SMDPad,CuDef*%
%ADD20RoundRect,0.250000X-0.337500X-0.475000X0.337500X-0.475000X0.337500X0.475000X-0.337500X0.475000X0*%
%TD*%
%TA.AperFunction,ViaPad*%
%ADD21C,0.600000*%
%TD*%
%TA.AperFunction,ViaPad*%
%ADD22C,1.900000*%
%TD*%
%TA.AperFunction,Conductor*%
%ADD23C,0.200000*%
%TD*%
%TA.AperFunction,Conductor*%
%ADD24C,1.500000*%
%TD*%
%TA.AperFunction,Conductor*%
%ADD25C,0.400000*%
%TD*%
G04 APERTURE END LIST*
D10*
%TO.P,U3,1,OEa*%
%TO.N,GND*%
X117470000Y-57550000D03*
D11*
%TO.P,U3,2,I0a*%
%TO.N,GPIO10*%
X120010000Y-57550000D03*
%TO.P,U3,3,O3b*%
%TO.N,SENSE7*%
X122550000Y-57550000D03*
%TO.P,U3,4,I1a*%
%TO.N,GPIO11*%
X125090000Y-57550000D03*
%TO.P,U3,5,O2b*%
%TO.N,SENSE6*%
X127630000Y-57550000D03*
%TO.P,U3,6,I2a*%
%TO.N,GPIO12*%
X130170000Y-57550000D03*
%TO.P,U3,7,O1b*%
%TO.N,SENSE5*%
X132710000Y-57550000D03*
%TO.P,U3,8,I3a*%
%TO.N,GPIO13*%
X135250000Y-57550000D03*
%TO.P,U3,9,O0b*%
%TO.N,SENSE4*%
X137790000Y-57550000D03*
%TO.P,U3,10,GND*%
%TO.N,GND*%
X140330000Y-57550000D03*
%TO.P,U3,11,I0b*%
%TO.N,GPIO14*%
X140330000Y-49930000D03*
%TO.P,U3,12,O3a*%
%TO.N,SENSE3*%
X137790000Y-49930000D03*
%TO.P,U3,13,I1b*%
%TO.N,GPIO15*%
X135250000Y-49930000D03*
%TO.P,U3,14,O2a*%
%TO.N,SENSE2*%
X132710000Y-49930000D03*
%TO.P,U3,15,I2b*%
%TO.N,GPIO16*%
X130170000Y-49930000D03*
%TO.P,U3,16,O1a*%
%TO.N,SENSE1*%
X127630000Y-49930000D03*
%TO.P,U3,17,I3b*%
%TO.N,GPIO17*%
X125090000Y-49930000D03*
%TO.P,U3,18,O0a*%
%TO.N,SENSE0*%
X122550000Y-49930000D03*
%TO.P,U3,19,OEb*%
%TO.N,GND*%
X120010000Y-49930000D03*
%TO.P,U3,20,VCC*%
%TO.N,VBUS*%
X117470000Y-49930000D03*
%TD*%
D10*
%TO.P,U2,1,OEa*%
%TO.N,GND*%
X89110000Y-58200000D03*
D11*
%TO.P,U2,2,I0a*%
%TO.N,GPIO18*%
X91650000Y-58200000D03*
%TO.P,U2,3,O3b*%
%TO.N,RX3*%
X94190000Y-58200000D03*
%TO.P,U2,4,I1a*%
%TO.N,GPIO19*%
X96730000Y-58200000D03*
%TO.P,U2,5,O2b*%
%TO.N,TX5*%
X99270000Y-58200000D03*
%TO.P,U2,6,I2a*%
%TO.N,GPIO20*%
X101810000Y-58200000D03*
%TO.P,U2,7,O1b*%
%TO.N,unconnected-(U2-O1b-Pad7)*%
X104350000Y-58200000D03*
%TO.P,U2,8,I3a*%
%TO.N,GPIO21*%
X106890000Y-58200000D03*
%TO.P,U2,9,O0b*%
%TO.N,unconnected-(U2-O0b-Pad9)*%
X109430000Y-58200000D03*
%TO.P,U2,10,GND*%
%TO.N,GND*%
X111970000Y-58200000D03*
%TO.P,U2,11,I0b*%
X111970000Y-50580000D03*
%TO.P,U2,12,O3a*%
%TO.N,SENSE11*%
X109430000Y-50580000D03*
%TO.P,U2,13,I1b*%
%TO.N,GND*%
X106890000Y-50580000D03*
%TO.P,U2,14,O2a*%
%TO.N,SENSE10*%
X104350000Y-50580000D03*
%TO.P,U2,15,I2b*%
%TO.N,TX3*%
X101810000Y-50580000D03*
%TO.P,U2,16,O1a*%
%TO.N,SENSE9*%
X99270000Y-50580000D03*
%TO.P,U2,17,I3b*%
%TO.N,RX5*%
X96730000Y-50580000D03*
%TO.P,U2,18,O0a*%
%TO.N,SENSE8*%
X94190000Y-50580000D03*
%TO.P,U2,19,OEb*%
%TO.N,GND*%
X91650000Y-50580000D03*
%TO.P,U2,20,VCC*%
%TO.N,+3.3V*%
X89110000Y-50580000D03*
%TD*%
D12*
%TO.P,C2,1*%
%TO.N,Net-(U4-C2+)*%
X135277400Y-78300000D03*
D13*
%TO.P,C2,2*%
%TO.N,Net-(U4-C2-)*%
X137277400Y-78300000D03*
%TD*%
D14*
%TO.P,J3,1,Pin_1*%
%TO.N,+5V*%
X142315000Y-63240000D03*
D15*
%TO.P,J3,2,Pin_2*%
%TO.N,GND*%
X142315000Y-65780000D03*
%TO.P,J3,3,Pin_3*%
%TO.N,+12V*%
X142315000Y-68320000D03*
%TO.P,J3,4,Pin_4*%
%TO.N,-12V*%
X142315000Y-70860000D03*
%TD*%
D16*
%TO.P,A1,1,GPIO0*%
%TO.N,TX3*%
X71470000Y-95340000D03*
D11*
%TO.P,A1,2,GPIO1*%
%TO.N,RX3*%
X74010000Y-95340000D03*
D17*
%TO.P,A1,3,GND*%
%TO.N,GND*%
X76550000Y-95340000D03*
D11*
%TO.P,A1,4,GPIO2*%
%TO.N,GPIO2*%
X79090000Y-95340000D03*
%TO.P,A1,5,GPIO3*%
%TO.N,GPIO3*%
X81630000Y-95340000D03*
%TO.P,A1,6,GPIO4*%
%TO.N,GPIO4*%
X84170000Y-95340000D03*
%TO.P,A1,7,GPIO5*%
%TO.N,GPIO5*%
X86710000Y-95340000D03*
D17*
%TO.P,A1,8,GND*%
%TO.N,GND*%
X89250000Y-95340000D03*
D11*
%TO.P,A1,9,GPIO6*%
%TO.N,GPIO6*%
X91790000Y-95340000D03*
%TO.P,A1,10,GPIO7*%
%TO.N,GPIO7*%
X94330000Y-95340000D03*
%TO.P,A1,11,GPIO8*%
%TO.N,GPIO8*%
X96870000Y-95340000D03*
%TO.P,A1,12,GPIO9*%
%TO.N,GPIO9*%
X99410000Y-95340000D03*
D17*
%TO.P,A1,13,GND*%
%TO.N,GND*%
X101950000Y-95340000D03*
D11*
%TO.P,A1,14,GPIO10*%
%TO.N,GPIO10*%
X104490000Y-95340000D03*
%TO.P,A1,15,GPIO11*%
%TO.N,GPIO11*%
X107030000Y-95340000D03*
%TO.P,A1,16,GPIO12*%
%TO.N,GPIO12*%
X109570000Y-95340000D03*
%TO.P,A1,17,GPIO13*%
%TO.N,GPIO13*%
X112110000Y-95340000D03*
D17*
%TO.P,A1,18,GND*%
%TO.N,GND*%
X114650000Y-95340000D03*
D11*
%TO.P,A1,19,GPIO14*%
%TO.N,GPIO14*%
X117190000Y-95340000D03*
%TO.P,A1,20,GPIO15*%
%TO.N,GPIO15*%
X119730000Y-95340000D03*
%TO.P,A1,21,GPIO16*%
%TO.N,GPIO16*%
X119730000Y-77560000D03*
%TO.P,A1,22,GPIO17*%
%TO.N,GPIO17*%
X117190000Y-77560000D03*
D18*
%TO.P,A1,23,GND*%
%TO.N,GND*%
X114650000Y-77560000D03*
D11*
%TO.P,A1,24,GPIO18*%
%TO.N,GPIO18*%
X112110000Y-77560000D03*
%TO.P,A1,25,GPIO19*%
%TO.N,GPIO19*%
X109570000Y-77560000D03*
%TO.P,A1,26,GPIO20*%
%TO.N,GPIO20*%
X107030000Y-77560000D03*
%TO.P,A1,27,GPIO21*%
%TO.N,GPIO21*%
X104490000Y-77560000D03*
D18*
%TO.P,A1,28,GND*%
%TO.N,GND*%
X101950000Y-77560000D03*
D11*
%TO.P,A1,29,GPIO22*%
%TO.N,unconnected-(A1-GPIO22-Pad29)_1*%
X99410000Y-77560000D03*
%TO.P,A1,30,RUN*%
%TO.N,unconnected-(A1-RUN-Pad30)*%
X96870000Y-77560000D03*
%TO.P,A1,31,GPIO26_ADC0*%
%TO.N,unconnected-(A1-GPIO26_ADC0-Pad31)*%
X94330000Y-77560000D03*
%TO.P,A1,32,GPIO27_ADC1*%
%TO.N,unconnected-(A1-GPIO27_ADC1-Pad32)*%
X91790000Y-77560000D03*
D18*
%TO.P,A1,33,AGND*%
%TO.N,GND*%
X89250000Y-77560000D03*
D11*
%TO.P,A1,34,GPIO28_ADC2*%
%TO.N,unconnected-(A1-GPIO28_ADC2-Pad34)*%
X86710000Y-77560000D03*
%TO.P,A1,35,ADC_VREF*%
%TO.N,unconnected-(A1-ADC_VREF-Pad35)_1*%
X84170000Y-77560000D03*
%TO.P,A1,36,3V3*%
%TO.N,+3.3V*%
X81630000Y-77560000D03*
%TO.P,A1,37,3V3_EN*%
%TO.N,unconnected-(A1-3V3_EN-Pad37)_1*%
X79090000Y-77560000D03*
D18*
%TO.P,A1,38,GND*%
%TO.N,GND*%
X76550000Y-77560000D03*
D11*
%TO.P,A1,39,VSYS*%
%TO.N,+5V*%
X74010000Y-77560000D03*
%TO.P,A1,40,VBUS*%
%TO.N,VBUS*%
X71470000Y-77560000D03*
%TD*%
D10*
%TO.P,U4,1,C1+*%
%TO.N,Net-(U4-C1+)*%
X117960000Y-71170000D03*
D11*
%TO.P,U4,2,VS+*%
%TO.N,+12V*%
X120500000Y-71170000D03*
%TO.P,U4,3,C1-*%
%TO.N,Net-(U4-C1-)*%
X123040000Y-71170000D03*
%TO.P,U4,4,C2+*%
%TO.N,Net-(U4-C2+)*%
X125580000Y-71170000D03*
%TO.P,U4,5,C2-*%
%TO.N,Net-(U4-C2-)*%
X128120000Y-71170000D03*
%TO.P,U4,6,VS-*%
%TO.N,-12V*%
X130660000Y-71170000D03*
%TO.P,U4,7,T2OUT*%
%TO.N,unconnected-(U4-T2OUT-Pad7)*%
X133200000Y-71170000D03*
%TO.P,U4,8,R2IN*%
%TO.N,unconnected-(U4-R2IN-Pad8)*%
X135740000Y-71170000D03*
%TO.P,U4,9,R2OUT*%
%TO.N,unconnected-(U4-R2OUT-Pad9)*%
X135740000Y-63550000D03*
%TO.P,U4,10,T2IN*%
%TO.N,unconnected-(U4-T2IN-Pad10)*%
X133200000Y-63550000D03*
%TO.P,U4,11,T1IN*%
%TO.N,TX5*%
X130660000Y-63550000D03*
%TO.P,U4,12,R1OUT*%
%TO.N,RX5*%
X128120000Y-63550000D03*
%TO.P,U4,13,R1IN*%
%TO.N,RSRX*%
X125580000Y-63550000D03*
%TO.P,U4,14,T1OUT*%
%TO.N,RSTX*%
X123040000Y-63550000D03*
%TO.P,U4,15,GND*%
%TO.N,GND*%
X120500000Y-63550000D03*
%TO.P,U4,16,VCC*%
%TO.N,+5V*%
X117960000Y-63550000D03*
%TD*%
D14*
%TO.P,J2,1,Pin_1*%
%TO.N,SENSE0*%
X111810000Y-43150000D03*
D15*
%TO.P,J2,2,Pin_2*%
%TO.N,SENSE1*%
X114350000Y-43150000D03*
%TO.P,J2,3,Pin_3*%
%TO.N,SENSE2*%
X116890000Y-43150000D03*
%TO.P,J2,4,Pin_4*%
%TO.N,SENSE3*%
X119430000Y-43150000D03*
%TO.P,J2,5,Pin_5*%
%TO.N,SENSE4*%
X121970000Y-43150000D03*
%TO.P,J2,6,Pin_6*%
%TO.N,SENSE5*%
X124510000Y-43150000D03*
%TO.P,J2,7,Pin_7*%
%TO.N,SENSE6*%
X127050000Y-43150000D03*
%TO.P,J2,8,Pin_8*%
%TO.N,SENSE7*%
X129590000Y-43150000D03*
%TO.P,J2,9,Pin_9*%
%TO.N,SENSE8*%
X132130000Y-43150000D03*
%TO.P,J2,10,Pin_10*%
%TO.N,SENSE9*%
X134670000Y-43150000D03*
%TO.P,J2,11,Pin_11*%
%TO.N,SENSE10*%
X137210000Y-43150000D03*
%TO.P,J2,12,Pin_12*%
%TO.N,SENSE11*%
X139750000Y-43150000D03*
%TD*%
D19*
%TO.P,J4,1,1*%
%TO.N,unconnected-(J4-Pad1)*%
X82915300Y-63340000D03*
D11*
%TO.P,J4,2,2*%
%TO.N,RSTX*%
X82915300Y-60570000D03*
%TO.P,J4,3,3*%
%TO.N,RSRX*%
X82915300Y-57800000D03*
%TO.P,J4,4,4*%
%TO.N,unconnected-(J4-Pad4)*%
X82915300Y-55030000D03*
%TO.P,J4,5,5*%
%TO.N,GND*%
X82915300Y-52260000D03*
%TO.P,J4,6,6*%
%TO.N,unconnected-(J4-Pad6)*%
X80075300Y-61955000D03*
%TO.P,J4,7,7*%
%TO.N,unconnected-(J4-Pad7)*%
X80075300Y-59185000D03*
%TO.P,J4,8,8*%
%TO.N,unconnected-(J4-Pad8)*%
X80075300Y-56415000D03*
%TO.P,J4,9,9*%
%TO.N,unconnected-(J4-Pad9)*%
X80075300Y-53645000D03*
%TD*%
D12*
%TO.P,C1,1*%
%TO.N,Net-(U4-C1+)*%
X128777400Y-78000000D03*
D13*
%TO.P,C1,2*%
%TO.N,Net-(U4-C1-)*%
X130777400Y-78000000D03*
%TD*%
D14*
%TO.P,J1,1,Pin_1*%
%TO.N,SCAN0*%
X81840000Y-43050000D03*
D15*
%TO.P,J1,2,Pin_2*%
%TO.N,SCAN1*%
X84380000Y-43050000D03*
%TO.P,J1,3,Pin_3*%
%TO.N,SCAN2*%
X86920000Y-43050000D03*
%TO.P,J1,4,Pin_4*%
%TO.N,SCAN3*%
X89460000Y-43050000D03*
%TO.P,J1,5,Pin_5*%
%TO.N,SCAN4*%
X92000000Y-43050000D03*
%TO.P,J1,6,Pin_6*%
%TO.N,SCAN5*%
X94540000Y-43050000D03*
%TO.P,J1,7,Pin_7*%
%TO.N,SCAN6*%
X97080000Y-43050000D03*
%TO.P,J1,8,Pin_8*%
%TO.N,SCAN7*%
X99620000Y-43050000D03*
%TD*%
D19*
%TO.P,RN1,1,common*%
%TO.N,GND*%
X142000000Y-96750000D03*
D11*
%TO.P,RN1,2,R1*%
%TO.N,SCAN0*%
X142000000Y-94210000D03*
%TO.P,RN1,3,R2*%
%TO.N,SCAN1*%
X142000000Y-91670000D03*
%TO.P,RN1,4,R3*%
%TO.N,SCAN2*%
X142000000Y-89130000D03*
%TO.P,RN1,5,R4*%
%TO.N,SCAN3*%
X142000000Y-86590000D03*
%TO.P,RN1,6,R5*%
%TO.N,SCAN4*%
X142000000Y-84050000D03*
%TO.P,RN1,7,R6*%
%TO.N,SCAN5*%
X142000000Y-81510000D03*
%TO.P,RN1,8,R7*%
%TO.N,SCAN6*%
X142000000Y-78970000D03*
%TO.P,RN1,9,R8*%
%TO.N,SCAN7*%
X142000000Y-76430000D03*
%TD*%
D10*
%TO.P,U1,1,OEa*%
%TO.N,GND*%
X89160000Y-71400000D03*
D11*
%TO.P,U1,2,I0a*%
%TO.N,SCAN0*%
X91700000Y-71400000D03*
%TO.P,U1,3,O3b*%
%TO.N,GPIO9*%
X94240000Y-71400000D03*
%TO.P,U1,4,I1a*%
%TO.N,SCAN1*%
X96780000Y-71400000D03*
%TO.P,U1,5,O2b*%
%TO.N,GPIO8*%
X99320000Y-71400000D03*
%TO.P,U1,6,I2a*%
%TO.N,SCAN2*%
X101860000Y-71400000D03*
%TO.P,U1,7,O1b*%
%TO.N,GPIO7*%
X104400000Y-71400000D03*
%TO.P,U1,8,I3a*%
%TO.N,SCAN3*%
X106940000Y-71400000D03*
%TO.P,U1,9,O0b*%
%TO.N,GPIO6*%
X109480000Y-71400000D03*
%TO.P,U1,10,GND*%
%TO.N,GND*%
X112020000Y-71400000D03*
%TO.P,U1,11,I0b*%
%TO.N,SCAN4*%
X112020000Y-63780000D03*
%TO.P,U1,12,O3a*%
%TO.N,GPIO5*%
X109480000Y-63780000D03*
%TO.P,U1,13,I1b*%
%TO.N,SCAN5*%
X106940000Y-63780000D03*
%TO.P,U1,14,O2a*%
%TO.N,GPIO4*%
X104400000Y-63780000D03*
%TO.P,U1,15,I2b*%
%TO.N,SCAN6*%
X101860000Y-63780000D03*
%TO.P,U1,16,O1a*%
%TO.N,GPIO3*%
X99320000Y-63780000D03*
%TO.P,U1,17,I3b*%
%TO.N,SCAN7*%
X96780000Y-63780000D03*
%TO.P,U1,18,O0a*%
%TO.N,GPIO2*%
X94240000Y-63780000D03*
%TO.P,U1,19,OEb*%
%TO.N,GND*%
X91700000Y-63780000D03*
%TO.P,U1,20,VCC*%
%TO.N,+3.3V*%
X89160000Y-63780000D03*
%TD*%
D20*
%TO.P,DC4,1*%
%TO.N,+5V*%
X118162500Y-66500000D03*
%TO.P,DC4,2*%
%TO.N,GND*%
X120237500Y-66500000D03*
%TD*%
%TO.P,DC1,1*%
%TO.N,+3.3V*%
X89162500Y-53100000D03*
%TO.P,DC1,2*%
%TO.N,GND*%
X91237500Y-53100000D03*
%TD*%
%TO.P,DC3,1*%
%TO.N,VBUS*%
X117650000Y-52750000D03*
%TO.P,DC3,2*%
%TO.N,GND*%
X119725000Y-52750000D03*
%TD*%
%TO.P,DC5,1*%
%TO.N,+5V*%
X74250000Y-80550000D03*
%TO.P,DC5,2*%
%TO.N,GND*%
X76325000Y-80550000D03*
%TD*%
%TO.P,DC2,1*%
%TO.N,+3.3V*%
X89362500Y-66350000D03*
%TO.P,DC2,2*%
%TO.N,GND*%
X91437500Y-66350000D03*
%TD*%
D21*
%TO.N,TX5*%
X129570400Y-60507400D03*
%TO.N,RSTX*%
X120567900Y-60507400D03*
%TO.N,RSRX*%
X125178600Y-59057300D03*
%TO.N,SENSE7*%
X124869000Y-47978500D03*
%TO.N,SCAN3*%
X103379300Y-53343600D03*
%TO.N,SCAN0*%
X84916800Y-64842200D03*
%TO.N,GPIO8*%
X94230100Y-73876900D03*
%TO.N,GPIO9*%
X93021900Y-74540800D03*
D22*
%TO.N,+5V*%
X87423600Y-55193800D03*
D21*
%TO.N,GPIO19*%
X96127600Y-62525000D03*
%TO.N,GPIO21*%
X104075000Y-72874300D03*
X110584000Y-67885600D03*
%TO.N,GPIO11*%
X134912300Y-60419600D03*
%TO.N,GPIO3*%
X90406600Y-68087800D03*
%TO.N,GPIO14*%
X129699500Y-88268700D03*
%TO.N,GPIO2*%
X88803800Y-67820600D03*
%TO.N,GPIO7*%
X95614000Y-90299700D03*
%TO.N,GPIO18*%
X108879700Y-66428700D03*
%TD*%
D23*
%TO.N,TX5*%
X130660000Y-61597000D02*
X130660000Y-63550000D01*
X129570400Y-60507400D02*
X130660000Y-61597000D01*
%TO.N,RSTX*%
X123040000Y-62979500D02*
X123040000Y-63550000D01*
X120567900Y-60507400D02*
X123040000Y-62979500D01*
%TO.N,RSRX*%
X125580000Y-59458700D02*
X125580000Y-63550000D01*
X125178600Y-59057300D02*
X125580000Y-59458700D01*
%TO.N,SENSE6*%
X128731900Y-56448100D02*
X127630000Y-57550000D01*
X128731900Y-45717600D02*
X128731900Y-56448100D01*
X127050000Y-44035700D02*
X128731900Y-45717600D01*
X127050000Y-43150000D02*
X127050000Y-44035700D01*
%TO.N,SENSE1*%
X118242000Y-47042000D02*
X114350000Y-43150000D01*
X124781200Y-47042000D02*
X118242000Y-47042000D01*
X127630000Y-49890800D02*
X124781200Y-47042000D01*
X127630000Y-49930000D02*
X127630000Y-49890800D01*
%TO.N,SENSE5*%
X131440000Y-56280000D02*
X132710000Y-57550000D01*
X131440000Y-47540000D02*
X131440000Y-56280000D01*
X128241100Y-44341100D02*
X131440000Y-47540000D01*
X128241100Y-42679900D02*
X128241100Y-44341100D01*
X127555500Y-41994300D02*
X128241100Y-42679900D01*
X125665700Y-41994300D02*
X127555500Y-41994300D01*
X124510000Y-43150000D02*
X125665700Y-41994300D01*
%TO.N,SENSE3*%
X137790000Y-46910300D02*
X137790000Y-49930000D01*
X135820200Y-44940500D02*
X137790000Y-46910300D01*
X135820200Y-42660400D02*
X135820200Y-44940500D01*
X133945200Y-40785400D02*
X135820200Y-42660400D01*
X121794600Y-40785400D02*
X133945200Y-40785400D01*
X119430000Y-43150000D02*
X121794600Y-40785400D01*
%TO.N,SENSE7*%
X123820000Y-56280000D02*
X122550000Y-57550000D01*
X123820000Y-49027500D02*
X123820000Y-56280000D01*
X124869000Y-47978500D02*
X123820000Y-49027500D01*
%TO.N,SENSE2*%
X132710000Y-46636300D02*
X132710000Y-49930000D01*
X130740200Y-44666500D02*
X132710000Y-46636300D01*
X130740200Y-42649700D02*
X130740200Y-44666500D01*
X129676300Y-41585800D02*
X130740200Y-42649700D01*
X124447000Y-41585800D02*
X129676300Y-41585800D01*
X123240000Y-42792800D02*
X124447000Y-41585800D01*
X123240000Y-43535500D02*
X123240000Y-42792800D01*
X122471300Y-44304200D02*
X123240000Y-43535500D01*
X118044200Y-44304200D02*
X122471300Y-44304200D01*
X116890000Y-43150000D02*
X118044200Y-44304200D01*
%TO.N,SENSE0*%
X121019600Y-48399600D02*
X122550000Y-49930000D01*
X117922200Y-48399600D02*
X121019600Y-48399600D01*
X112960100Y-43437500D02*
X117922200Y-48399600D01*
X112960100Y-43150000D02*
X112960100Y-43437500D01*
X111810000Y-43150000D02*
X112960100Y-43150000D01*
%TO.N,SENSE4*%
X136520000Y-56280000D02*
X137790000Y-57550000D01*
X136520000Y-48088100D02*
X136520000Y-56280000D01*
X133400000Y-44968100D02*
X136520000Y-48088100D01*
X133400000Y-42789000D02*
X133400000Y-44968100D01*
X131796600Y-41185600D02*
X133400000Y-42789000D01*
X123934400Y-41185600D02*
X131796600Y-41185600D01*
X121970000Y-43150000D02*
X123934400Y-41185600D01*
%TO.N,SCAN3*%
X106940000Y-65335900D02*
X106940000Y-71400000D01*
X108090500Y-64185400D02*
X106940000Y-65335900D01*
X108090500Y-62147300D02*
X108090500Y-64185400D01*
X105539300Y-59596100D02*
X108090500Y-62147300D01*
X105539300Y-55503600D02*
X105539300Y-59596100D01*
X103379300Y-53343600D02*
X105539300Y-55503600D01*
%TO.N,SCAN7*%
X97835900Y-62724100D02*
X96780000Y-63780000D01*
X97835900Y-44834100D02*
X97835900Y-62724100D01*
X99620000Y-43050000D02*
X97835900Y-44834100D01*
%TO.N,SCAN2*%
X95510000Y-65050000D02*
X101860000Y-71400000D01*
X95510000Y-50305900D02*
X95510000Y-65050000D01*
X93956300Y-48752200D02*
X95510000Y-50305900D01*
X92622200Y-48752200D02*
X93956300Y-48752200D01*
X86920000Y-43050000D02*
X92622200Y-48752200D01*
%TO.N,SCAN0*%
X81840000Y-43050000D02*
X81840000Y-44200100D01*
X84916800Y-47276900D02*
X84916800Y-64842200D01*
X81840000Y-44200100D02*
X84916800Y-47276900D01*
%TO.N,SCAN5*%
X96540600Y-41049400D02*
X94540000Y-43050000D01*
X100399000Y-41049400D02*
X96540600Y-41049400D01*
X102910200Y-43560600D02*
X100399000Y-41049400D01*
X102910200Y-52964100D02*
X102910200Y-43560600D01*
X102779200Y-53095100D02*
X102910200Y-52964100D01*
X102779200Y-53592100D02*
X102779200Y-53095100D01*
X102958500Y-53771400D02*
X102779200Y-53592100D01*
X102958500Y-59798500D02*
X102958500Y-53771400D01*
X106940000Y-63780000D02*
X102958500Y-59798500D01*
%TO.N,SCAN1*%
X85530100Y-44200100D02*
X84380000Y-43050000D01*
X86845300Y-44200100D02*
X85530100Y-44200100D01*
X93006900Y-50361700D02*
X86845300Y-44200100D01*
X93006900Y-67626900D02*
X93006900Y-50361700D01*
X96780000Y-71400000D02*
X93006900Y-67626900D01*
%TO.N,SCAN6*%
X100673200Y-62593200D02*
X101860000Y-63780000D01*
X100673200Y-43623400D02*
X100673200Y-62593200D01*
X100825000Y-43471600D02*
X100673200Y-43623400D01*
X100825000Y-42607100D02*
X100825000Y-43471600D01*
X100067600Y-41849700D02*
X100825000Y-42607100D01*
X98280300Y-41849700D02*
X100067600Y-41849700D01*
X97080000Y-43050000D02*
X98280300Y-41849700D01*
%TO.N,SCAN4*%
X94400700Y-40649300D02*
X92000000Y-43050000D01*
X100564700Y-40649300D02*
X94400700Y-40649300D01*
X105678500Y-45763100D02*
X100564700Y-40649300D01*
X105678500Y-53696800D02*
X105678500Y-45763100D01*
X108160000Y-56178300D02*
X105678500Y-53696800D01*
X108160000Y-59920000D02*
X108160000Y-56178300D01*
X112020000Y-63780000D02*
X108160000Y-59920000D01*
%TO.N,GPIO8*%
X96843100Y-73876900D02*
X94230100Y-73876900D01*
X99320000Y-71400000D02*
X96843100Y-73876900D01*
%TO.N,GPIO9*%
X93021900Y-72618100D02*
X93021900Y-74540800D01*
X94240000Y-71400000D02*
X93021900Y-72618100D01*
%TO.N,GPIO5*%
X108159900Y-65100100D02*
X109480000Y-63780000D01*
X108159900Y-78603900D02*
X108159900Y-65100100D01*
X95863400Y-90900400D02*
X108159900Y-78603900D01*
X91149600Y-90900400D02*
X95863400Y-90900400D01*
X86710000Y-95340000D02*
X91149600Y-90900400D01*
%TO.N,TX3*%
X101810000Y-43026200D02*
X101810000Y-50580000D01*
X100233300Y-41449500D02*
X101810000Y-43026200D01*
X96970400Y-41449500D02*
X100233300Y-41449500D01*
X95810000Y-42609900D02*
X96970400Y-41449500D01*
X95810000Y-43463900D02*
X95810000Y-42609900D01*
X95000900Y-44273000D02*
X95810000Y-43463900D01*
X88980700Y-44273000D02*
X95000900Y-44273000D01*
X88190000Y-43482300D02*
X88980700Y-44273000D01*
X88190000Y-42666900D02*
X88190000Y-43482300D01*
X87392100Y-41869000D02*
X88190000Y-42666900D01*
X80873900Y-41869000D02*
X87392100Y-41869000D01*
X69925200Y-52817700D02*
X80873900Y-41869000D01*
X69925200Y-93795200D02*
X69925200Y-52817700D01*
X71470000Y-95340000D02*
X69925200Y-93795200D01*
%TO.N,GPIO20*%
X101810000Y-59224800D02*
X101810000Y-58200000D01*
X105670000Y-63084800D02*
X101810000Y-59224800D01*
X105670000Y-75634300D02*
X105670000Y-63084800D01*
X107030000Y-76994300D02*
X105670000Y-75634300D01*
X107030000Y-77560000D02*
X107030000Y-76994300D01*
%TO.N,+3.3V*%
X89110000Y-53047500D02*
X89110000Y-50580000D01*
X89162500Y-53100000D02*
X89110000Y-53047500D01*
X81630000Y-74082500D02*
X89362500Y-66350000D01*
X81630000Y-77560000D02*
X81630000Y-74082500D01*
X89362500Y-63982500D02*
X89160000Y-63780000D01*
X89362500Y-66350000D02*
X89362500Y-63982500D01*
X89162500Y-55487800D02*
X89162500Y-53100000D01*
X87945500Y-56704800D02*
X89162500Y-55487800D01*
X87945500Y-62565500D02*
X87945500Y-56704800D01*
X89160000Y-63780000D02*
X87945500Y-62565500D01*
D24*
%TO.N,+5V*%
X74250000Y-77800000D02*
X74010000Y-77560000D01*
X74250000Y-80550000D02*
X74250000Y-77800000D01*
X118162500Y-63752500D02*
X118162500Y-66500000D01*
X117960000Y-63550000D02*
X118162500Y-63752500D01*
X86505100Y-56112300D02*
X87423600Y-55193800D01*
X86505100Y-65064900D02*
X86505100Y-56112300D01*
X74010000Y-77560000D02*
X86505100Y-65064900D01*
D23*
%TO.N,GPIO17*%
X125090000Y-55580000D02*
X125090000Y-49930000D01*
X123978900Y-56691100D02*
X125090000Y-55580000D01*
X123978900Y-60664100D02*
X123978900Y-56691100D01*
X124159100Y-60844300D02*
X123978900Y-60664100D01*
X124159100Y-66226400D02*
X124159100Y-60844300D01*
X121770000Y-68615500D02*
X124159100Y-66226400D01*
X121770000Y-72980000D02*
X121770000Y-68615500D01*
X117190000Y-77560000D02*
X121770000Y-72980000D01*
%TO.N,GPIO13*%
X134300100Y-58499900D02*
X135250000Y-57550000D01*
X134300100Y-81989700D02*
X134300100Y-58499900D01*
X121117800Y-95172000D02*
X134300100Y-81989700D01*
X121117800Y-95511000D02*
X121117800Y-95172000D01*
X120185300Y-96443500D02*
X121117800Y-95511000D01*
X113213500Y-96443500D02*
X120185300Y-96443500D01*
X112110000Y-95340000D02*
X113213500Y-96443500D01*
%TO.N,GPIO19*%
X96730000Y-61922600D02*
X96127600Y-62525000D01*
X96730000Y-58200000D02*
X96730000Y-61922600D01*
%TO.N,GPIO16*%
X130170000Y-55629500D02*
X130170000Y-49930000D01*
X128900000Y-56899500D02*
X130170000Y-55629500D01*
X128900000Y-58254100D02*
X128900000Y-56899500D01*
X126760200Y-60393900D02*
X128900000Y-58254100D01*
X126760200Y-66742400D02*
X126760200Y-60393900D01*
X124375500Y-69127100D02*
X126760200Y-66742400D01*
X124375500Y-72914500D02*
X124375500Y-69127100D01*
X119730000Y-77560000D02*
X124375500Y-72914500D01*
%TO.N,GPIO21*%
X104075000Y-77145000D02*
X104075000Y-72874300D01*
X104490000Y-77560000D02*
X104075000Y-77145000D01*
X106890000Y-59583400D02*
X106890000Y-58200000D01*
X110584000Y-63277400D02*
X106890000Y-59583400D01*
X110584000Y-67885600D02*
X110584000Y-63277400D01*
%TO.N,GPIO12*%
X110670200Y-94239800D02*
X109570000Y-95340000D01*
X116705000Y-94239800D02*
X110670200Y-94239800D01*
X126960200Y-83984600D02*
X116705000Y-94239800D01*
X126960200Y-68567300D02*
X126960200Y-83984600D01*
X129240700Y-66286800D02*
X126960200Y-68567300D01*
X129240700Y-61026300D02*
X129240700Y-66286800D01*
X128970300Y-60755900D02*
X129240700Y-61026300D01*
X128970300Y-58749700D02*
X128970300Y-60755900D01*
X130170000Y-57550000D02*
X128970300Y-58749700D01*
%TO.N,GPIO10*%
X119936900Y-57623100D02*
X120010000Y-57550000D01*
X119936900Y-61313500D02*
X119936900Y-57623100D01*
X121608700Y-62985300D02*
X119936900Y-61313500D01*
X121608700Y-67645100D02*
X121608700Y-62985300D01*
X119294000Y-69959800D02*
X121608700Y-67645100D01*
X119294000Y-73502900D02*
X119294000Y-69959800D01*
X115917300Y-76879600D02*
X119294000Y-73502900D01*
X115917300Y-78250200D02*
X115917300Y-76879600D01*
X115340800Y-78826700D02*
X115917300Y-78250200D01*
X112692700Y-78826700D02*
X115340800Y-78826700D01*
X104490000Y-87029400D02*
X112692700Y-78826700D01*
X104490000Y-95340000D02*
X104490000Y-87029400D01*
%TO.N,GPIO11*%
X136847000Y-62354300D02*
X134912300Y-60419600D01*
X136847000Y-74608100D02*
X136847000Y-62354300D01*
X136178600Y-75276500D02*
X136847000Y-74608100D01*
X136178600Y-80677100D02*
X136178600Y-75276500D01*
X128835500Y-88020200D02*
X136178600Y-80677100D01*
X128835500Y-88454400D02*
X128835500Y-88020200D01*
X120389300Y-96900600D02*
X128835500Y-88454400D01*
X108590600Y-96900600D02*
X120389300Y-96900600D01*
X107030000Y-95340000D02*
X108590600Y-96900600D01*
%TO.N,GPIO15*%
X133980000Y-51200000D02*
X135250000Y-49930000D01*
X133980000Y-58254100D02*
X133980000Y-51200000D01*
X131930000Y-60304100D02*
X133980000Y-58254100D01*
X131930000Y-65571700D02*
X131930000Y-60304100D01*
X129390000Y-68111700D02*
X131930000Y-65571700D01*
X129390000Y-73358500D02*
X129390000Y-68111700D01*
X127476800Y-75271700D02*
X129390000Y-73358500D01*
X127476800Y-87593200D02*
X127476800Y-75271700D01*
X119730000Y-95340000D02*
X127476800Y-87593200D01*
%TO.N,GPIO3*%
X87879100Y-70615300D02*
X90406600Y-68087800D01*
X87879100Y-89090900D02*
X87879100Y-70615300D01*
X81630000Y-95340000D02*
X87879100Y-89090900D01*
%TO.N,GPIO14*%
X139060000Y-51200000D02*
X140330000Y-49930000D01*
X139060000Y-78908200D02*
X139060000Y-51200000D01*
X129699500Y-88268700D02*
X139060000Y-78908200D01*
D25*
%TO.N,VBUS*%
X117650000Y-50110000D02*
X117650000Y-52750000D01*
X117470000Y-49930000D02*
X117650000Y-50110000D01*
D23*
%TO.N,GPIO2*%
X85440000Y-71184400D02*
X88803800Y-67820600D01*
X85440000Y-88990000D02*
X85440000Y-71184400D01*
X79090000Y-95340000D02*
X85440000Y-88990000D01*
%TO.N,GPIO7*%
X105611300Y-80302400D02*
X95614000Y-90299700D01*
X105611300Y-76424100D02*
X105611300Y-80302400D01*
X104675100Y-75487900D02*
X105611300Y-76424100D01*
X104675100Y-71675100D02*
X104675100Y-75487900D01*
X104400000Y-71400000D02*
X104675100Y-71675100D01*
%TO.N,GPIO6*%
X110744700Y-72664700D02*
X109480000Y-71400000D01*
X110744700Y-77956700D02*
X110744700Y-72664700D01*
X94461600Y-94239800D02*
X110744700Y-77956700D01*
X92890200Y-94239800D02*
X94461600Y-94239800D01*
X91790000Y-95340000D02*
X92890200Y-94239800D01*
%TO.N,GPIO18*%
X108879700Y-68288700D02*
X108879700Y-66428700D01*
X110750000Y-70159000D02*
X108879700Y-68288700D01*
X110750000Y-72095200D02*
X110750000Y-70159000D01*
X112110000Y-73455200D02*
X110750000Y-72095200D01*
X112110000Y-77560000D02*
X112110000Y-73455200D01*
%TO.N,GPIO4*%
X103263600Y-64916400D02*
X104400000Y-63780000D01*
X103263600Y-78160900D02*
X103263600Y-64916400D01*
X102546300Y-78878200D02*
X103263600Y-78160900D01*
X100631800Y-78878200D02*
X102546300Y-78878200D01*
X84170000Y-95340000D02*
X100631800Y-78878200D01*
D24*
%TO.N,GND*%
X76325000Y-77785000D02*
X76325000Y-80550000D01*
X76550000Y-77560000D02*
X76325000Y-77785000D01*
X110193900Y-48803900D02*
X111970000Y-50580000D01*
X108666100Y-48803900D02*
X110193900Y-48803900D01*
X106890000Y-50580000D02*
X108666100Y-48803900D01*
X111970000Y-50580000D02*
X111970000Y-58200000D01*
X89160000Y-73961800D02*
X89160000Y-71400000D01*
X91004100Y-75805900D02*
X89160000Y-73961800D01*
X100195900Y-75805900D02*
X91004100Y-75805900D01*
X101950000Y-77560000D02*
X100195900Y-75805900D01*
X91004100Y-75805900D02*
X89250000Y-77560000D01*
X120010000Y-52465000D02*
X120010000Y-49930000D01*
X119725000Y-52750000D02*
X120010000Y-52465000D01*
X119725000Y-55295000D02*
X119725000Y-52750000D01*
X117470000Y-57550000D02*
X119725000Y-55295000D01*
X116954200Y-69376200D02*
X113688400Y-72642000D01*
X117926200Y-69376200D02*
X116954200Y-69376200D01*
X120237500Y-67064900D02*
X117926200Y-69376200D01*
X120237500Y-66500000D02*
X120237500Y-67064900D01*
X114650000Y-73603600D02*
X113688400Y-72642000D01*
X114650000Y-77560000D02*
X114650000Y-73603600D01*
X112446400Y-71400000D02*
X112020000Y-71400000D01*
X113688400Y-72642000D02*
X112446400Y-71400000D01*
X120237500Y-63812500D02*
X120500000Y-63550000D01*
X120237500Y-66500000D02*
X120237500Y-63812500D01*
X111970000Y-58200000D02*
X116884900Y-58200000D01*
X117470000Y-57614900D02*
X117470000Y-57550000D01*
X116884900Y-58200000D02*
X117470000Y-57614900D01*
X116884900Y-59934900D02*
X116884900Y-58200000D01*
X120500000Y-63550000D02*
X116884900Y-59934900D01*
X142448500Y-65780000D02*
X142315000Y-65780000D01*
X144161800Y-67493300D02*
X142448500Y-65780000D01*
X144161800Y-94588200D02*
X144161800Y-67493300D01*
X142000000Y-96750000D02*
X144161800Y-94588200D01*
X140330000Y-64300400D02*
X140330000Y-57550000D01*
X141809600Y-65780000D02*
X140330000Y-64300400D01*
X142315000Y-65780000D02*
X141809600Y-65780000D01*
X91237500Y-56072500D02*
X91237500Y-53100000D01*
X89110000Y-58200000D02*
X91237500Y-56072500D01*
X91650000Y-52687500D02*
X91650000Y-50580000D01*
X91237500Y-53100000D02*
X91650000Y-52687500D01*
X76772100Y-95117900D02*
X76582500Y-95307500D01*
X76772100Y-80997100D02*
X76772100Y-95117900D01*
X76325000Y-80550000D02*
X76772100Y-80997100D01*
X76582500Y-95307500D02*
X76550000Y-95340000D01*
X87499800Y-97090200D02*
X89250000Y-95340000D01*
X78365200Y-97090200D02*
X87499800Y-97090200D01*
X76582500Y-95307500D02*
X78365200Y-97090200D01*
X100180000Y-97110000D02*
X101950000Y-95340000D01*
X91020000Y-97110000D02*
X100180000Y-97110000D01*
X89250000Y-95340000D02*
X91020000Y-97110000D01*
X91700000Y-60790000D02*
X91700000Y-63780000D01*
X89110000Y-58200000D02*
X91700000Y-60790000D01*
X91700000Y-66087500D02*
X91437500Y-66350000D01*
X91700000Y-63780000D02*
X91700000Y-66087500D01*
X91656700Y-66569200D02*
X91437500Y-66350000D01*
X91656700Y-68903300D02*
X91656700Y-66569200D01*
X89160000Y-71400000D02*
X91656700Y-68903300D01*
%TD*%
M02*
