%TF.GenerationSoftware,KiCad,Pcbnew,9.0.2*%
%TF.CreationDate,2025-07-27T17:40:09+01:00*%
%TF.ProjectId,Pico-Keyboard-Matrix-Interface,5069636f-2d4b-4657-9962-6f6172642d4d,rev?*%
%TF.SameCoordinates,Original*%
%TF.FileFunction,Soldermask,Bot*%
%TF.FilePolarity,Negative*%
%FSLAX46Y46*%
G04 Gerber Fmt 4.6, Leading zero omitted, Abs format (unit mm)*
G04 Created by KiCad (PCBNEW 9.0.2) date 2025-07-27 17:40:09*
%MOMM*%
%LPD*%
G01*
G04 APERTURE LIST*
G04 Aperture macros list*
%AMRoundRect*
0 Rectangle with rounded corners*
0 $1 Rounding radius*
0 $2 $3 $4 $5 $6 $7 $8 $9 X,Y pos of 4 corners*
0 Add a 4 corners polygon primitive as box body*
4,1,4,$2,$3,$4,$5,$6,$7,$8,$9,$2,$3,0*
0 Add four circle primitives for the rounded corners*
1,1,$1+$1,$2,$3*
1,1,$1+$1,$4,$5*
1,1,$1+$1,$6,$7*
1,1,$1+$1,$8,$9*
0 Add four rect primitives between the rounded corners*
20,1,$1+$1,$2,$3,$4,$5,0*
20,1,$1+$1,$4,$5,$6,$7,0*
20,1,$1+$1,$6,$7,$8,$9,0*
20,1,$1+$1,$8,$9,$2,$3,0*%
%AMFreePoly0*
4,1,37,0.603843,0.796157,0.639018,0.796157,0.711114,0.766294,0.766294,0.711114,0.796157,0.639018,0.796157,0.603843,0.800000,0.600000,0.800000,-0.600000,0.796157,-0.603843,0.796157,-0.639018,0.766294,-0.711114,0.711114,-0.766294,0.639018,-0.796157,0.603843,-0.796157,0.600000,-0.800000,0.000000,-0.800000,0.000000,-0.796148,-0.078414,-0.796148,-0.232228,-0.765552,-0.377117,-0.705537,
-0.507515,-0.618408,-0.618408,-0.507515,-0.705537,-0.377117,-0.765552,-0.232228,-0.796148,-0.078414,-0.796148,0.078414,-0.765552,0.232228,-0.705537,0.377117,-0.618408,0.507515,-0.507515,0.618408,-0.377117,0.705537,-0.232228,0.765552,-0.078414,0.796148,0.000000,0.796148,0.000000,0.800000,0.600000,0.800000,0.603843,0.796157,0.603843,0.796157,$1*%
%AMFreePoly1*
4,1,37,0.000000,0.796148,0.078414,0.796148,0.232228,0.765552,0.377117,0.705537,0.507515,0.618408,0.618408,0.507515,0.705537,0.377117,0.765552,0.232228,0.796148,0.078414,0.796148,-0.078414,0.765552,-0.232228,0.705537,-0.377117,0.618408,-0.507515,0.507515,-0.618408,0.377117,-0.705537,0.232228,-0.765552,0.078414,-0.796148,0.000000,-0.796148,0.000000,-0.800000,-0.600000,-0.800000,
-0.603843,-0.796157,-0.639018,-0.796157,-0.711114,-0.766294,-0.766294,-0.711114,-0.796157,-0.639018,-0.796157,-0.603843,-0.800000,-0.600000,-0.800000,0.600000,-0.796157,0.603843,-0.796157,0.639018,-0.766294,0.711114,-0.711114,0.766294,-0.639018,0.796157,-0.603843,0.796157,-0.600000,0.800000,0.000000,0.800000,0.000000,0.796148,0.000000,0.796148,$1*%
G04 Aperture macros list end*
%ADD10RoundRect,0.250000X0.550000X-0.550000X0.550000X0.550000X-0.550000X0.550000X-0.550000X-0.550000X0*%
%ADD11C,1.600000*%
%ADD12RoundRect,0.250000X-0.350000X-0.350000X0.350000X-0.350000X0.350000X0.350000X-0.350000X0.350000X0*%
%ADD13C,1.200000*%
%ADD14R,1.700000X1.700000*%
%ADD15C,1.700000*%
%ADD16C,2.200000*%
%ADD17C,1.850000*%
%ADD18RoundRect,0.200000X0.600000X-0.600000X0.600000X0.600000X-0.600000X0.600000X-0.600000X-0.600000X0*%
%ADD19FreePoly0,90.000000*%
%ADD20FreePoly1,90.000000*%
%ADD21R,1.600000X1.600000*%
%ADD22RoundRect,0.250000X-0.337500X-0.475000X0.337500X-0.475000X0.337500X0.475000X-0.337500X0.475000X0*%
G04 APERTURE END LIST*
D10*
%TO.C,U3*%
X117470000Y-57550000D03*
D11*
X120010000Y-57550000D03*
X122550000Y-57550000D03*
X125090000Y-57550000D03*
X127630000Y-57550000D03*
X130170000Y-57550000D03*
X132710000Y-57550000D03*
X135250000Y-57550000D03*
X137790000Y-57550000D03*
X140330000Y-57550000D03*
X140330000Y-49930000D03*
X137790000Y-49930000D03*
X135250000Y-49930000D03*
X132710000Y-49930000D03*
X130170000Y-49930000D03*
X127630000Y-49930000D03*
X125090000Y-49930000D03*
X122550000Y-49930000D03*
X120010000Y-49930000D03*
X117470000Y-49930000D03*
%TD*%
D10*
%TO.C,U2*%
X89110000Y-58200000D03*
D11*
X91650000Y-58200000D03*
X94190000Y-58200000D03*
X96730000Y-58200000D03*
X99270000Y-58200000D03*
X101810000Y-58200000D03*
X104350000Y-58200000D03*
X106890000Y-58200000D03*
X109430000Y-58200000D03*
X111970000Y-58200000D03*
X111970000Y-50580000D03*
X109430000Y-50580000D03*
X106890000Y-50580000D03*
X104350000Y-50580000D03*
X101810000Y-50580000D03*
X99270000Y-50580000D03*
X96730000Y-50580000D03*
X94190000Y-50580000D03*
X91650000Y-50580000D03*
X89110000Y-50580000D03*
%TD*%
D12*
%TO.C,C2*%
X135277400Y-78300000D03*
D13*
X137277400Y-78300000D03*
%TD*%
D14*
%TO.C,J3*%
X142315000Y-63240000D03*
D15*
X142315000Y-65780000D03*
X142315000Y-68320000D03*
X142315000Y-70860000D03*
%TD*%
D16*
%TO.C,A1*%
X71600000Y-89175000D03*
D17*
X74630000Y-88875000D03*
X74630000Y-84025000D03*
D16*
X71600000Y-83725000D03*
D18*
X71470000Y-95340000D03*
D11*
X74010000Y-95340000D03*
D19*
X76550000Y-95340000D03*
D11*
X79090000Y-95340000D03*
X81630000Y-95340000D03*
X84170000Y-95340000D03*
X86710000Y-95340000D03*
D19*
X89250000Y-95340000D03*
D11*
X91790000Y-95340000D03*
X94330000Y-95340000D03*
X96870000Y-95340000D03*
X99410000Y-95340000D03*
D19*
X101950000Y-95340000D03*
D11*
X104490000Y-95340000D03*
X107030000Y-95340000D03*
X109570000Y-95340000D03*
X112110000Y-95340000D03*
D19*
X114650000Y-95340000D03*
D11*
X117190000Y-95340000D03*
X119730000Y-95340000D03*
X119730000Y-77560000D03*
X117190000Y-77560000D03*
D20*
X114650000Y-77560000D03*
D11*
X112110000Y-77560000D03*
X109570000Y-77560000D03*
X107030000Y-77560000D03*
X104490000Y-77560000D03*
D20*
X101950000Y-77560000D03*
D11*
X99410000Y-77560000D03*
X96870000Y-77560000D03*
X94330000Y-77560000D03*
X91790000Y-77560000D03*
D20*
X89250000Y-77560000D03*
D11*
X86710000Y-77560000D03*
X84170000Y-77560000D03*
X81630000Y-77560000D03*
X79090000Y-77560000D03*
D20*
X76550000Y-77560000D03*
D11*
X74010000Y-77560000D03*
X71470000Y-77560000D03*
%TD*%
D10*
%TO.C,U4*%
X117960000Y-71170000D03*
D11*
X120500000Y-71170000D03*
X123040000Y-71170000D03*
X125580000Y-71170000D03*
X128120000Y-71170000D03*
X130660000Y-71170000D03*
X133200000Y-71170000D03*
X135740000Y-71170000D03*
X135740000Y-63550000D03*
X133200000Y-63550000D03*
X130660000Y-63550000D03*
X128120000Y-63550000D03*
X125580000Y-63550000D03*
X123040000Y-63550000D03*
X120500000Y-63550000D03*
X117960000Y-63550000D03*
%TD*%
D14*
%TO.C,J2*%
X111810000Y-43150000D03*
D15*
X114350000Y-43150000D03*
X116890000Y-43150000D03*
X119430000Y-43150000D03*
X121970000Y-43150000D03*
X124510000Y-43150000D03*
X127050000Y-43150000D03*
X129590000Y-43150000D03*
X132130000Y-43150000D03*
X134670000Y-43150000D03*
X137210000Y-43150000D03*
X139750000Y-43150000D03*
%TD*%
D21*
%TO.C,J4*%
X82915300Y-63340000D03*
D11*
X82915300Y-60570000D03*
X82915300Y-57800000D03*
X82915300Y-55030000D03*
X82915300Y-52260000D03*
X80075300Y-61955000D03*
X80075300Y-59185000D03*
X80075300Y-56415000D03*
X80075300Y-53645000D03*
%TD*%
D12*
%TO.C,C1*%
X128777400Y-78000000D03*
D13*
X130777400Y-78000000D03*
%TD*%
D14*
%TO.C,J1*%
X81840000Y-43050000D03*
D15*
X84380000Y-43050000D03*
X86920000Y-43050000D03*
X89460000Y-43050000D03*
X92000000Y-43050000D03*
X94540000Y-43050000D03*
X97080000Y-43050000D03*
X99620000Y-43050000D03*
%TD*%
D21*
%TO.C,RN1*%
X142000000Y-96750000D03*
D11*
X142000000Y-94210000D03*
X142000000Y-91670000D03*
X142000000Y-89130000D03*
X142000000Y-86590000D03*
X142000000Y-84050000D03*
X142000000Y-81510000D03*
X142000000Y-78970000D03*
X142000000Y-76430000D03*
%TD*%
D10*
%TO.C,U1*%
X89160000Y-71400000D03*
D11*
X91700000Y-71400000D03*
X94240000Y-71400000D03*
X96780000Y-71400000D03*
X99320000Y-71400000D03*
X101860000Y-71400000D03*
X104400000Y-71400000D03*
X106940000Y-71400000D03*
X109480000Y-71400000D03*
X112020000Y-71400000D03*
X112020000Y-63780000D03*
X109480000Y-63780000D03*
X106940000Y-63780000D03*
X104400000Y-63780000D03*
X101860000Y-63780000D03*
X99320000Y-63780000D03*
X96780000Y-63780000D03*
X94240000Y-63780000D03*
X91700000Y-63780000D03*
X89160000Y-63780000D03*
%TD*%
D22*
%TO.C,DC4*%
X118162500Y-66500000D03*
X120237500Y-66500000D03*
%TD*%
%TO.C,DC1*%
X89162500Y-53100000D03*
X91237500Y-53100000D03*
%TD*%
%TO.C,DC3*%
X117650000Y-52750000D03*
X119725000Y-52750000D03*
%TD*%
%TO.C,DC5*%
X74250000Y-80550000D03*
X76325000Y-80550000D03*
%TD*%
%TO.C,DC2*%
X89362500Y-66350000D03*
X91437500Y-66350000D03*
%TD*%
M02*
