%TF.GenerationSoftware,KiCad,Pcbnew,9.0.2*%
%TF.CreationDate,2025-07-27T17:40:09+01:00*%
%TF.ProjectId,Pico-Keyboard-Matrix-Interface,5069636f-2d4b-4657-9962-6f6172642d4d,rev?*%
%TF.SameCoordinates,Original*%
%TF.FileFunction,Legend,Bot*%
%TF.FilePolarity,Positive*%
%FSLAX46Y46*%
G04 Gerber Fmt 4.6, Leading zero omitted, Abs format (unit mm)*
G04 Created by KiCad (PCBNEW 9.0.2) date 2025-07-27 17:40:09*
%MOMM*%
%LPD*%
G01*
G04 APERTURE LIST*
%ADD10C,0.300000*%
%ADD11C,0.150000*%
%ADD12C,0.120000*%
G04 APERTURE END LIST*
D10*
X136621426Y-82127383D02*
X136764284Y-82055954D01*
X136764284Y-82055954D02*
X136978569Y-82055954D01*
X136978569Y-82055954D02*
X137192855Y-82127383D01*
X137192855Y-82127383D02*
X137335712Y-82270240D01*
X137335712Y-82270240D02*
X137407141Y-82413097D01*
X137407141Y-82413097D02*
X137478569Y-82698811D01*
X137478569Y-82698811D02*
X137478569Y-82913097D01*
X137478569Y-82913097D02*
X137407141Y-83198811D01*
X137407141Y-83198811D02*
X137335712Y-83341668D01*
X137335712Y-83341668D02*
X137192855Y-83484526D01*
X137192855Y-83484526D02*
X136978569Y-83555954D01*
X136978569Y-83555954D02*
X136835712Y-83555954D01*
X136835712Y-83555954D02*
X136621426Y-83484526D01*
X136621426Y-83484526D02*
X136549998Y-83413097D01*
X136549998Y-83413097D02*
X136549998Y-82913097D01*
X136549998Y-82913097D02*
X136835712Y-82913097D01*
X135335712Y-83484526D02*
X135478569Y-83555954D01*
X135478569Y-83555954D02*
X135764284Y-83555954D01*
X135764284Y-83555954D02*
X135907141Y-83484526D01*
X135907141Y-83484526D02*
X135978569Y-83341668D01*
X135978569Y-83341668D02*
X135978569Y-82770240D01*
X135978569Y-82770240D02*
X135907141Y-82627383D01*
X135907141Y-82627383D02*
X135764284Y-82555954D01*
X135764284Y-82555954D02*
X135478569Y-82555954D01*
X135478569Y-82555954D02*
X135335712Y-82627383D01*
X135335712Y-82627383D02*
X135264284Y-82770240D01*
X135264284Y-82770240D02*
X135264284Y-82913097D01*
X135264284Y-82913097D02*
X135978569Y-83055954D01*
X134621427Y-82555954D02*
X134621427Y-83555954D01*
X134621427Y-82698811D02*
X134549998Y-82627383D01*
X134549998Y-82627383D02*
X134407141Y-82555954D01*
X134407141Y-82555954D02*
X134192855Y-82555954D01*
X134192855Y-82555954D02*
X134049998Y-82627383D01*
X134049998Y-82627383D02*
X133978570Y-82770240D01*
X133978570Y-82770240D02*
X133978570Y-83555954D01*
X132692855Y-83484526D02*
X132835712Y-83555954D01*
X132835712Y-83555954D02*
X133121427Y-83555954D01*
X133121427Y-83555954D02*
X133264284Y-83484526D01*
X133264284Y-83484526D02*
X133335712Y-83341668D01*
X133335712Y-83341668D02*
X133335712Y-82770240D01*
X133335712Y-82770240D02*
X133264284Y-82627383D01*
X133264284Y-82627383D02*
X133121427Y-82555954D01*
X133121427Y-82555954D02*
X132835712Y-82555954D01*
X132835712Y-82555954D02*
X132692855Y-82627383D01*
X132692855Y-82627383D02*
X132621427Y-82770240D01*
X132621427Y-82770240D02*
X132621427Y-82913097D01*
X132621427Y-82913097D02*
X133335712Y-83055954D01*
X131978570Y-83555954D02*
X131978570Y-82555954D01*
X131978570Y-82841668D02*
X131907141Y-82698811D01*
X131907141Y-82698811D02*
X131835713Y-82627383D01*
X131835713Y-82627383D02*
X131692855Y-82555954D01*
X131692855Y-82555954D02*
X131549998Y-82555954D01*
X131049999Y-83555954D02*
X131049999Y-82555954D01*
X131049999Y-82055954D02*
X131121427Y-82127383D01*
X131121427Y-82127383D02*
X131049999Y-82198811D01*
X131049999Y-82198811D02*
X130978570Y-82127383D01*
X130978570Y-82127383D02*
X131049999Y-82055954D01*
X131049999Y-82055954D02*
X131049999Y-82198811D01*
X129692856Y-83484526D02*
X129835713Y-83555954D01*
X129835713Y-83555954D02*
X130121427Y-83555954D01*
X130121427Y-83555954D02*
X130264284Y-83484526D01*
X130264284Y-83484526D02*
X130335713Y-83413097D01*
X130335713Y-83413097D02*
X130407141Y-83270240D01*
X130407141Y-83270240D02*
X130407141Y-82841668D01*
X130407141Y-82841668D02*
X130335713Y-82698811D01*
X130335713Y-82698811D02*
X130264284Y-82627383D01*
X130264284Y-82627383D02*
X130121427Y-82555954D01*
X130121427Y-82555954D02*
X129835713Y-82555954D01*
X129835713Y-82555954D02*
X129692856Y-82627383D01*
X127049999Y-83555954D02*
X127549999Y-82841668D01*
X127907142Y-83555954D02*
X127907142Y-82055954D01*
X127907142Y-82055954D02*
X127335713Y-82055954D01*
X127335713Y-82055954D02*
X127192856Y-82127383D01*
X127192856Y-82127383D02*
X127121427Y-82198811D01*
X127121427Y-82198811D02*
X127049999Y-82341668D01*
X127049999Y-82341668D02*
X127049999Y-82555954D01*
X127049999Y-82555954D02*
X127121427Y-82698811D01*
X127121427Y-82698811D02*
X127192856Y-82770240D01*
X127192856Y-82770240D02*
X127335713Y-82841668D01*
X127335713Y-82841668D02*
X127907142Y-82841668D01*
X125764285Y-83555954D02*
X125764285Y-82770240D01*
X125764285Y-82770240D02*
X125835713Y-82627383D01*
X125835713Y-82627383D02*
X125978570Y-82555954D01*
X125978570Y-82555954D02*
X126264285Y-82555954D01*
X126264285Y-82555954D02*
X126407142Y-82627383D01*
X125764285Y-83484526D02*
X125907142Y-83555954D01*
X125907142Y-83555954D02*
X126264285Y-83555954D01*
X126264285Y-83555954D02*
X126407142Y-83484526D01*
X126407142Y-83484526D02*
X126478570Y-83341668D01*
X126478570Y-83341668D02*
X126478570Y-83198811D01*
X126478570Y-83198811D02*
X126407142Y-83055954D01*
X126407142Y-83055954D02*
X126264285Y-82984526D01*
X126264285Y-82984526D02*
X125907142Y-82984526D01*
X125907142Y-82984526D02*
X125764285Y-82913097D01*
X125121427Y-83484526D02*
X124978570Y-83555954D01*
X124978570Y-83555954D02*
X124692856Y-83555954D01*
X124692856Y-83555954D02*
X124549999Y-83484526D01*
X124549999Y-83484526D02*
X124478570Y-83341668D01*
X124478570Y-83341668D02*
X124478570Y-83270240D01*
X124478570Y-83270240D02*
X124549999Y-83127383D01*
X124549999Y-83127383D02*
X124692856Y-83055954D01*
X124692856Y-83055954D02*
X124907142Y-83055954D01*
X124907142Y-83055954D02*
X125049999Y-82984526D01*
X125049999Y-82984526D02*
X125121427Y-82841668D01*
X125121427Y-82841668D02*
X125121427Y-82770240D01*
X125121427Y-82770240D02*
X125049999Y-82627383D01*
X125049999Y-82627383D02*
X124907142Y-82555954D01*
X124907142Y-82555954D02*
X124692856Y-82555954D01*
X124692856Y-82555954D02*
X124549999Y-82627383D01*
X123835713Y-82555954D02*
X123835713Y-84055954D01*
X123835713Y-82627383D02*
X123692856Y-82555954D01*
X123692856Y-82555954D02*
X123407141Y-82555954D01*
X123407141Y-82555954D02*
X123264284Y-82627383D01*
X123264284Y-82627383D02*
X123192856Y-82698811D01*
X123192856Y-82698811D02*
X123121427Y-82841668D01*
X123121427Y-82841668D02*
X123121427Y-83270240D01*
X123121427Y-83270240D02*
X123192856Y-83413097D01*
X123192856Y-83413097D02*
X123264284Y-83484526D01*
X123264284Y-83484526D02*
X123407141Y-83555954D01*
X123407141Y-83555954D02*
X123692856Y-83555954D01*
X123692856Y-83555954D02*
X123835713Y-83484526D01*
X122478570Y-83555954D02*
X122478570Y-82055954D01*
X122478570Y-82627383D02*
X122335713Y-82555954D01*
X122335713Y-82555954D02*
X122049998Y-82555954D01*
X122049998Y-82555954D02*
X121907141Y-82627383D01*
X121907141Y-82627383D02*
X121835713Y-82698811D01*
X121835713Y-82698811D02*
X121764284Y-82841668D01*
X121764284Y-82841668D02*
X121764284Y-83270240D01*
X121764284Y-83270240D02*
X121835713Y-83413097D01*
X121835713Y-83413097D02*
X121907141Y-83484526D01*
X121907141Y-83484526D02*
X122049998Y-83555954D01*
X122049998Y-83555954D02*
X122335713Y-83555954D01*
X122335713Y-83555954D02*
X122478570Y-83484526D01*
X120549998Y-83484526D02*
X120692855Y-83555954D01*
X120692855Y-83555954D02*
X120978570Y-83555954D01*
X120978570Y-83555954D02*
X121121427Y-83484526D01*
X121121427Y-83484526D02*
X121192855Y-83341668D01*
X121192855Y-83341668D02*
X121192855Y-82770240D01*
X121192855Y-82770240D02*
X121121427Y-82627383D01*
X121121427Y-82627383D02*
X120978570Y-82555954D01*
X120978570Y-82555954D02*
X120692855Y-82555954D01*
X120692855Y-82555954D02*
X120549998Y-82627383D01*
X120549998Y-82627383D02*
X120478570Y-82770240D01*
X120478570Y-82770240D02*
X120478570Y-82913097D01*
X120478570Y-82913097D02*
X121192855Y-83055954D01*
X119835713Y-83555954D02*
X119835713Y-82555954D01*
X119835713Y-82841668D02*
X119764284Y-82698811D01*
X119764284Y-82698811D02*
X119692856Y-82627383D01*
X119692856Y-82627383D02*
X119549998Y-82555954D01*
X119549998Y-82555954D02*
X119407141Y-82555954D01*
X118907142Y-83555954D02*
X118907142Y-82555954D01*
X118907142Y-82841668D02*
X118835713Y-82698811D01*
X118835713Y-82698811D02*
X118764285Y-82627383D01*
X118764285Y-82627383D02*
X118621427Y-82555954D01*
X118621427Y-82555954D02*
X118478570Y-82555954D01*
X118121428Y-82555954D02*
X117764285Y-83555954D01*
X117407142Y-82555954D02*
X117764285Y-83555954D01*
X117764285Y-83555954D02*
X117907142Y-83913097D01*
X117907142Y-83913097D02*
X117978571Y-83984526D01*
X117978571Y-83984526D02*
X118121428Y-84055954D01*
X115692857Y-83555954D02*
X115692857Y-82055954D01*
X115692857Y-82055954D02*
X115121428Y-82055954D01*
X115121428Y-82055954D02*
X114978571Y-82127383D01*
X114978571Y-82127383D02*
X114907142Y-82198811D01*
X114907142Y-82198811D02*
X114835714Y-82341668D01*
X114835714Y-82341668D02*
X114835714Y-82555954D01*
X114835714Y-82555954D02*
X114907142Y-82698811D01*
X114907142Y-82698811D02*
X114978571Y-82770240D01*
X114978571Y-82770240D02*
X115121428Y-82841668D01*
X115121428Y-82841668D02*
X115692857Y-82841668D01*
X114192857Y-83555954D02*
X114192857Y-82555954D01*
X114192857Y-82055954D02*
X114264285Y-82127383D01*
X114264285Y-82127383D02*
X114192857Y-82198811D01*
X114192857Y-82198811D02*
X114121428Y-82127383D01*
X114121428Y-82127383D02*
X114192857Y-82055954D01*
X114192857Y-82055954D02*
X114192857Y-82198811D01*
X112335714Y-83555954D02*
X112335714Y-82055954D01*
X112335714Y-82055954D02*
X111764285Y-82055954D01*
X111764285Y-82055954D02*
X111621428Y-82127383D01*
X111621428Y-82127383D02*
X111549999Y-82198811D01*
X111549999Y-82198811D02*
X111478571Y-82341668D01*
X111478571Y-82341668D02*
X111478571Y-82555954D01*
X111478571Y-82555954D02*
X111549999Y-82698811D01*
X111549999Y-82698811D02*
X111621428Y-82770240D01*
X111621428Y-82770240D02*
X111764285Y-82841668D01*
X111764285Y-82841668D02*
X112335714Y-82841668D01*
X110835714Y-83555954D02*
X110835714Y-82555954D01*
X110835714Y-82055954D02*
X110907142Y-82127383D01*
X110907142Y-82127383D02*
X110835714Y-82198811D01*
X110835714Y-82198811D02*
X110764285Y-82127383D01*
X110764285Y-82127383D02*
X110835714Y-82055954D01*
X110835714Y-82055954D02*
X110835714Y-82198811D01*
X109478571Y-83484526D02*
X109621428Y-83555954D01*
X109621428Y-83555954D02*
X109907142Y-83555954D01*
X109907142Y-83555954D02*
X110049999Y-83484526D01*
X110049999Y-83484526D02*
X110121428Y-83413097D01*
X110121428Y-83413097D02*
X110192856Y-83270240D01*
X110192856Y-83270240D02*
X110192856Y-82841668D01*
X110192856Y-82841668D02*
X110121428Y-82698811D01*
X110121428Y-82698811D02*
X110049999Y-82627383D01*
X110049999Y-82627383D02*
X109907142Y-82555954D01*
X109907142Y-82555954D02*
X109621428Y-82555954D01*
X109621428Y-82555954D02*
X109478571Y-82627383D01*
X108621428Y-83555954D02*
X108764285Y-83484526D01*
X108764285Y-83484526D02*
X108835714Y-83413097D01*
X108835714Y-83413097D02*
X108907142Y-83270240D01*
X108907142Y-83270240D02*
X108907142Y-82841668D01*
X108907142Y-82841668D02*
X108835714Y-82698811D01*
X108835714Y-82698811D02*
X108764285Y-82627383D01*
X108764285Y-82627383D02*
X108621428Y-82555954D01*
X108621428Y-82555954D02*
X108407142Y-82555954D01*
X108407142Y-82555954D02*
X108264285Y-82627383D01*
X108264285Y-82627383D02*
X108192857Y-82698811D01*
X108192857Y-82698811D02*
X108121428Y-82841668D01*
X108121428Y-82841668D02*
X108121428Y-83270240D01*
X108121428Y-83270240D02*
X108192857Y-83413097D01*
X108192857Y-83413097D02*
X108264285Y-83484526D01*
X108264285Y-83484526D02*
X108407142Y-83555954D01*
X108407142Y-83555954D02*
X108621428Y-83555954D01*
X106121428Y-82698811D02*
X106264285Y-82627383D01*
X106264285Y-82627383D02*
X106335714Y-82555954D01*
X106335714Y-82555954D02*
X106407142Y-82413097D01*
X106407142Y-82413097D02*
X106407142Y-82341668D01*
X106407142Y-82341668D02*
X106335714Y-82198811D01*
X106335714Y-82198811D02*
X106264285Y-82127383D01*
X106264285Y-82127383D02*
X106121428Y-82055954D01*
X106121428Y-82055954D02*
X105835714Y-82055954D01*
X105835714Y-82055954D02*
X105692857Y-82127383D01*
X105692857Y-82127383D02*
X105621428Y-82198811D01*
X105621428Y-82198811D02*
X105549999Y-82341668D01*
X105549999Y-82341668D02*
X105549999Y-82413097D01*
X105549999Y-82413097D02*
X105621428Y-82555954D01*
X105621428Y-82555954D02*
X105692857Y-82627383D01*
X105692857Y-82627383D02*
X105835714Y-82698811D01*
X105835714Y-82698811D02*
X106121428Y-82698811D01*
X106121428Y-82698811D02*
X106264285Y-82770240D01*
X106264285Y-82770240D02*
X106335714Y-82841668D01*
X106335714Y-82841668D02*
X106407142Y-82984526D01*
X106407142Y-82984526D02*
X106407142Y-83270240D01*
X106407142Y-83270240D02*
X106335714Y-83413097D01*
X106335714Y-83413097D02*
X106264285Y-83484526D01*
X106264285Y-83484526D02*
X106121428Y-83555954D01*
X106121428Y-83555954D02*
X105835714Y-83555954D01*
X105835714Y-83555954D02*
X105692857Y-83484526D01*
X105692857Y-83484526D02*
X105621428Y-83413097D01*
X105621428Y-83413097D02*
X105549999Y-83270240D01*
X105549999Y-83270240D02*
X105549999Y-82984526D01*
X105549999Y-82984526D02*
X105621428Y-82841668D01*
X105621428Y-82841668D02*
X105692857Y-82770240D01*
X105692857Y-82770240D02*
X105835714Y-82698811D01*
X104907143Y-82984526D02*
X103764286Y-82984526D01*
X103050000Y-83555954D02*
X103050000Y-82055954D01*
X103050000Y-82627383D02*
X102907143Y-82555954D01*
X102907143Y-82555954D02*
X102621428Y-82555954D01*
X102621428Y-82555954D02*
X102478571Y-82627383D01*
X102478571Y-82627383D02*
X102407143Y-82698811D01*
X102407143Y-82698811D02*
X102335714Y-82841668D01*
X102335714Y-82841668D02*
X102335714Y-83270240D01*
X102335714Y-83270240D02*
X102407143Y-83413097D01*
X102407143Y-83413097D02*
X102478571Y-83484526D01*
X102478571Y-83484526D02*
X102621428Y-83555954D01*
X102621428Y-83555954D02*
X102907143Y-83555954D01*
X102907143Y-83555954D02*
X103050000Y-83484526D01*
X101692857Y-83555954D02*
X101692857Y-82555954D01*
X101692857Y-82055954D02*
X101764285Y-82127383D01*
X101764285Y-82127383D02*
X101692857Y-82198811D01*
X101692857Y-82198811D02*
X101621428Y-82127383D01*
X101621428Y-82127383D02*
X101692857Y-82055954D01*
X101692857Y-82055954D02*
X101692857Y-82198811D01*
X101192856Y-82555954D02*
X100621428Y-82555954D01*
X100978571Y-82055954D02*
X100978571Y-83341668D01*
X100978571Y-83341668D02*
X100907142Y-83484526D01*
X100907142Y-83484526D02*
X100764285Y-83555954D01*
X100764285Y-83555954D02*
X100621428Y-83555954D01*
X98978571Y-83555954D02*
X98978571Y-82555954D01*
X98978571Y-82698811D02*
X98907142Y-82627383D01*
X98907142Y-82627383D02*
X98764285Y-82555954D01*
X98764285Y-82555954D02*
X98549999Y-82555954D01*
X98549999Y-82555954D02*
X98407142Y-82627383D01*
X98407142Y-82627383D02*
X98335714Y-82770240D01*
X98335714Y-82770240D02*
X98335714Y-83555954D01*
X98335714Y-82770240D02*
X98264285Y-82627383D01*
X98264285Y-82627383D02*
X98121428Y-82555954D01*
X98121428Y-82555954D02*
X97907142Y-82555954D01*
X97907142Y-82555954D02*
X97764285Y-82627383D01*
X97764285Y-82627383D02*
X97692856Y-82770240D01*
X97692856Y-82770240D02*
X97692856Y-83555954D01*
X96978571Y-83555954D02*
X96978571Y-82555954D01*
X96978571Y-82055954D02*
X97049999Y-82127383D01*
X97049999Y-82127383D02*
X96978571Y-82198811D01*
X96978571Y-82198811D02*
X96907142Y-82127383D01*
X96907142Y-82127383D02*
X96978571Y-82055954D01*
X96978571Y-82055954D02*
X96978571Y-82198811D01*
X95621428Y-83484526D02*
X95764285Y-83555954D01*
X95764285Y-83555954D02*
X96049999Y-83555954D01*
X96049999Y-83555954D02*
X96192856Y-83484526D01*
X96192856Y-83484526D02*
X96264285Y-83413097D01*
X96264285Y-83413097D02*
X96335713Y-83270240D01*
X96335713Y-83270240D02*
X96335713Y-82841668D01*
X96335713Y-82841668D02*
X96264285Y-82698811D01*
X96264285Y-82698811D02*
X96192856Y-82627383D01*
X96192856Y-82627383D02*
X96049999Y-82555954D01*
X96049999Y-82555954D02*
X95764285Y-82555954D01*
X95764285Y-82555954D02*
X95621428Y-82627383D01*
X94978571Y-83555954D02*
X94978571Y-82555954D01*
X94978571Y-82841668D02*
X94907142Y-82698811D01*
X94907142Y-82698811D02*
X94835714Y-82627383D01*
X94835714Y-82627383D02*
X94692856Y-82555954D01*
X94692856Y-82555954D02*
X94549999Y-82555954D01*
X93835714Y-83555954D02*
X93978571Y-83484526D01*
X93978571Y-83484526D02*
X94050000Y-83413097D01*
X94050000Y-83413097D02*
X94121428Y-83270240D01*
X94121428Y-83270240D02*
X94121428Y-82841668D01*
X94121428Y-82841668D02*
X94050000Y-82698811D01*
X94050000Y-82698811D02*
X93978571Y-82627383D01*
X93978571Y-82627383D02*
X93835714Y-82555954D01*
X93835714Y-82555954D02*
X93621428Y-82555954D01*
X93621428Y-82555954D02*
X93478571Y-82627383D01*
X93478571Y-82627383D02*
X93407143Y-82698811D01*
X93407143Y-82698811D02*
X93335714Y-82841668D01*
X93335714Y-82841668D02*
X93335714Y-83270240D01*
X93335714Y-83270240D02*
X93407143Y-83413097D01*
X93407143Y-83413097D02*
X93478571Y-83484526D01*
X93478571Y-83484526D02*
X93621428Y-83555954D01*
X93621428Y-83555954D02*
X93835714Y-83555954D01*
X91550000Y-82055954D02*
X91550000Y-83270240D01*
X91550000Y-83270240D02*
X91478571Y-83413097D01*
X91478571Y-83413097D02*
X91407143Y-83484526D01*
X91407143Y-83484526D02*
X91264285Y-83555954D01*
X91264285Y-83555954D02*
X90978571Y-83555954D01*
X90978571Y-83555954D02*
X90835714Y-83484526D01*
X90835714Y-83484526D02*
X90764285Y-83413097D01*
X90764285Y-83413097D02*
X90692857Y-83270240D01*
X90692857Y-83270240D02*
X90692857Y-82055954D01*
X90049999Y-83484526D02*
X89835714Y-83555954D01*
X89835714Y-83555954D02*
X89478571Y-83555954D01*
X89478571Y-83555954D02*
X89335714Y-83484526D01*
X89335714Y-83484526D02*
X89264285Y-83413097D01*
X89264285Y-83413097D02*
X89192856Y-83270240D01*
X89192856Y-83270240D02*
X89192856Y-83127383D01*
X89192856Y-83127383D02*
X89264285Y-82984526D01*
X89264285Y-82984526D02*
X89335714Y-82913097D01*
X89335714Y-82913097D02*
X89478571Y-82841668D01*
X89478571Y-82841668D02*
X89764285Y-82770240D01*
X89764285Y-82770240D02*
X89907142Y-82698811D01*
X89907142Y-82698811D02*
X89978571Y-82627383D01*
X89978571Y-82627383D02*
X90049999Y-82484526D01*
X90049999Y-82484526D02*
X90049999Y-82341668D01*
X90049999Y-82341668D02*
X89978571Y-82198811D01*
X89978571Y-82198811D02*
X89907142Y-82127383D01*
X89907142Y-82127383D02*
X89764285Y-82055954D01*
X89764285Y-82055954D02*
X89407142Y-82055954D01*
X89407142Y-82055954D02*
X89192856Y-82127383D01*
X88050000Y-82770240D02*
X87835714Y-82841668D01*
X87835714Y-82841668D02*
X87764285Y-82913097D01*
X87764285Y-82913097D02*
X87692857Y-83055954D01*
X87692857Y-83055954D02*
X87692857Y-83270240D01*
X87692857Y-83270240D02*
X87764285Y-83413097D01*
X87764285Y-83413097D02*
X87835714Y-83484526D01*
X87835714Y-83484526D02*
X87978571Y-83555954D01*
X87978571Y-83555954D02*
X88550000Y-83555954D01*
X88550000Y-83555954D02*
X88550000Y-82055954D01*
X88550000Y-82055954D02*
X88050000Y-82055954D01*
X88050000Y-82055954D02*
X87907143Y-82127383D01*
X87907143Y-82127383D02*
X87835714Y-82198811D01*
X87835714Y-82198811D02*
X87764285Y-82341668D01*
X87764285Y-82341668D02*
X87764285Y-82484526D01*
X87764285Y-82484526D02*
X87835714Y-82627383D01*
X87835714Y-82627383D02*
X87907143Y-82698811D01*
X87907143Y-82698811D02*
X88050000Y-82770240D01*
X88050000Y-82770240D02*
X88550000Y-82770240D01*
X85978571Y-81984526D02*
X87264285Y-83913097D01*
X85549999Y-83484526D02*
X85335714Y-83555954D01*
X85335714Y-83555954D02*
X84978571Y-83555954D01*
X84978571Y-83555954D02*
X84835714Y-83484526D01*
X84835714Y-83484526D02*
X84764285Y-83413097D01*
X84764285Y-83413097D02*
X84692856Y-83270240D01*
X84692856Y-83270240D02*
X84692856Y-83127383D01*
X84692856Y-83127383D02*
X84764285Y-82984526D01*
X84764285Y-82984526D02*
X84835714Y-82913097D01*
X84835714Y-82913097D02*
X84978571Y-82841668D01*
X84978571Y-82841668D02*
X85264285Y-82770240D01*
X85264285Y-82770240D02*
X85407142Y-82698811D01*
X85407142Y-82698811D02*
X85478571Y-82627383D01*
X85478571Y-82627383D02*
X85549999Y-82484526D01*
X85549999Y-82484526D02*
X85549999Y-82341668D01*
X85549999Y-82341668D02*
X85478571Y-82198811D01*
X85478571Y-82198811D02*
X85407142Y-82127383D01*
X85407142Y-82127383D02*
X85264285Y-82055954D01*
X85264285Y-82055954D02*
X84907142Y-82055954D01*
X84907142Y-82055954D02*
X84692856Y-82127383D01*
X83478571Y-83484526D02*
X83621428Y-83555954D01*
X83621428Y-83555954D02*
X83907143Y-83555954D01*
X83907143Y-83555954D02*
X84050000Y-83484526D01*
X84050000Y-83484526D02*
X84121428Y-83341668D01*
X84121428Y-83341668D02*
X84121428Y-82770240D01*
X84121428Y-82770240D02*
X84050000Y-82627383D01*
X84050000Y-82627383D02*
X83907143Y-82555954D01*
X83907143Y-82555954D02*
X83621428Y-82555954D01*
X83621428Y-82555954D02*
X83478571Y-82627383D01*
X83478571Y-82627383D02*
X83407143Y-82770240D01*
X83407143Y-82770240D02*
X83407143Y-82913097D01*
X83407143Y-82913097D02*
X84121428Y-83055954D01*
X82764286Y-83555954D02*
X82764286Y-82555954D01*
X82764286Y-82841668D02*
X82692857Y-82698811D01*
X82692857Y-82698811D02*
X82621429Y-82627383D01*
X82621429Y-82627383D02*
X82478571Y-82555954D01*
X82478571Y-82555954D02*
X82335714Y-82555954D01*
X81835715Y-83555954D02*
X81835715Y-82555954D01*
X81835715Y-82055954D02*
X81907143Y-82127383D01*
X81907143Y-82127383D02*
X81835715Y-82198811D01*
X81835715Y-82198811D02*
X81764286Y-82127383D01*
X81764286Y-82127383D02*
X81835715Y-82055954D01*
X81835715Y-82055954D02*
X81835715Y-82198811D01*
X80478572Y-83555954D02*
X80478572Y-82770240D01*
X80478572Y-82770240D02*
X80550000Y-82627383D01*
X80550000Y-82627383D02*
X80692857Y-82555954D01*
X80692857Y-82555954D02*
X80978572Y-82555954D01*
X80978572Y-82555954D02*
X81121429Y-82627383D01*
X80478572Y-83484526D02*
X80621429Y-83555954D01*
X80621429Y-83555954D02*
X80978572Y-83555954D01*
X80978572Y-83555954D02*
X81121429Y-83484526D01*
X81121429Y-83484526D02*
X81192857Y-83341668D01*
X81192857Y-83341668D02*
X81192857Y-83198811D01*
X81192857Y-83198811D02*
X81121429Y-83055954D01*
X81121429Y-83055954D02*
X80978572Y-82984526D01*
X80978572Y-82984526D02*
X80621429Y-82984526D01*
X80621429Y-82984526D02*
X80478572Y-82913097D01*
X79550000Y-83555954D02*
X79692857Y-83484526D01*
X79692857Y-83484526D02*
X79764286Y-83341668D01*
X79764286Y-83341668D02*
X79764286Y-82055954D01*
X125085713Y-84970870D02*
X124514285Y-84970870D01*
X124871428Y-84470870D02*
X124871428Y-85756584D01*
X124871428Y-85756584D02*
X124799999Y-85899442D01*
X124799999Y-85899442D02*
X124657142Y-85970870D01*
X124657142Y-85970870D02*
X124514285Y-85970870D01*
X123799999Y-85970870D02*
X123942856Y-85899442D01*
X123942856Y-85899442D02*
X124014285Y-85828013D01*
X124014285Y-85828013D02*
X124085713Y-85685156D01*
X124085713Y-85685156D02*
X124085713Y-85256584D01*
X124085713Y-85256584D02*
X124014285Y-85113727D01*
X124014285Y-85113727D02*
X123942856Y-85042299D01*
X123942856Y-85042299D02*
X123799999Y-84970870D01*
X123799999Y-84970870D02*
X123585713Y-84970870D01*
X123585713Y-84970870D02*
X123442856Y-85042299D01*
X123442856Y-85042299D02*
X123371428Y-85113727D01*
X123371428Y-85113727D02*
X123299999Y-85256584D01*
X123299999Y-85256584D02*
X123299999Y-85685156D01*
X123299999Y-85685156D02*
X123371428Y-85828013D01*
X123371428Y-85828013D02*
X123442856Y-85899442D01*
X123442856Y-85899442D02*
X123585713Y-85970870D01*
X123585713Y-85970870D02*
X123799999Y-85970870D01*
X121514285Y-85970870D02*
X121514285Y-84470870D01*
X121371428Y-85399442D02*
X120942856Y-85970870D01*
X120942856Y-84970870D02*
X121514285Y-85542299D01*
X119728570Y-85899442D02*
X119871427Y-85970870D01*
X119871427Y-85970870D02*
X120157142Y-85970870D01*
X120157142Y-85970870D02*
X120299999Y-85899442D01*
X120299999Y-85899442D02*
X120371427Y-85756584D01*
X120371427Y-85756584D02*
X120371427Y-85185156D01*
X120371427Y-85185156D02*
X120299999Y-85042299D01*
X120299999Y-85042299D02*
X120157142Y-84970870D01*
X120157142Y-84970870D02*
X119871427Y-84970870D01*
X119871427Y-84970870D02*
X119728570Y-85042299D01*
X119728570Y-85042299D02*
X119657142Y-85185156D01*
X119657142Y-85185156D02*
X119657142Y-85328013D01*
X119657142Y-85328013D02*
X120371427Y-85470870D01*
X119157142Y-84970870D02*
X118799999Y-85970870D01*
X118442856Y-84970870D02*
X118799999Y-85970870D01*
X118799999Y-85970870D02*
X118942856Y-86328013D01*
X118942856Y-86328013D02*
X119014285Y-86399442D01*
X119014285Y-86399442D02*
X119157142Y-86470870D01*
X117871428Y-85970870D02*
X117871428Y-84470870D01*
X117871428Y-85042299D02*
X117728571Y-84970870D01*
X117728571Y-84970870D02*
X117442856Y-84970870D01*
X117442856Y-84970870D02*
X117299999Y-85042299D01*
X117299999Y-85042299D02*
X117228571Y-85113727D01*
X117228571Y-85113727D02*
X117157142Y-85256584D01*
X117157142Y-85256584D02*
X117157142Y-85685156D01*
X117157142Y-85685156D02*
X117228571Y-85828013D01*
X117228571Y-85828013D02*
X117299999Y-85899442D01*
X117299999Y-85899442D02*
X117442856Y-85970870D01*
X117442856Y-85970870D02*
X117728571Y-85970870D01*
X117728571Y-85970870D02*
X117871428Y-85899442D01*
X116299999Y-85970870D02*
X116442856Y-85899442D01*
X116442856Y-85899442D02*
X116514285Y-85828013D01*
X116514285Y-85828013D02*
X116585713Y-85685156D01*
X116585713Y-85685156D02*
X116585713Y-85256584D01*
X116585713Y-85256584D02*
X116514285Y-85113727D01*
X116514285Y-85113727D02*
X116442856Y-85042299D01*
X116442856Y-85042299D02*
X116299999Y-84970870D01*
X116299999Y-84970870D02*
X116085713Y-84970870D01*
X116085713Y-84970870D02*
X115942856Y-85042299D01*
X115942856Y-85042299D02*
X115871428Y-85113727D01*
X115871428Y-85113727D02*
X115799999Y-85256584D01*
X115799999Y-85256584D02*
X115799999Y-85685156D01*
X115799999Y-85685156D02*
X115871428Y-85828013D01*
X115871428Y-85828013D02*
X115942856Y-85899442D01*
X115942856Y-85899442D02*
X116085713Y-85970870D01*
X116085713Y-85970870D02*
X116299999Y-85970870D01*
X114514285Y-85970870D02*
X114514285Y-85185156D01*
X114514285Y-85185156D02*
X114585713Y-85042299D01*
X114585713Y-85042299D02*
X114728570Y-84970870D01*
X114728570Y-84970870D02*
X115014285Y-84970870D01*
X115014285Y-84970870D02*
X115157142Y-85042299D01*
X114514285Y-85899442D02*
X114657142Y-85970870D01*
X114657142Y-85970870D02*
X115014285Y-85970870D01*
X115014285Y-85970870D02*
X115157142Y-85899442D01*
X115157142Y-85899442D02*
X115228570Y-85756584D01*
X115228570Y-85756584D02*
X115228570Y-85613727D01*
X115228570Y-85613727D02*
X115157142Y-85470870D01*
X115157142Y-85470870D02*
X115014285Y-85399442D01*
X115014285Y-85399442D02*
X114657142Y-85399442D01*
X114657142Y-85399442D02*
X114514285Y-85328013D01*
X113799999Y-85970870D02*
X113799999Y-84970870D01*
X113799999Y-85256584D02*
X113728570Y-85113727D01*
X113728570Y-85113727D02*
X113657142Y-85042299D01*
X113657142Y-85042299D02*
X113514284Y-84970870D01*
X113514284Y-84970870D02*
X113371427Y-84970870D01*
X112228571Y-85970870D02*
X112228571Y-84470870D01*
X112228571Y-85899442D02*
X112371428Y-85970870D01*
X112371428Y-85970870D02*
X112657142Y-85970870D01*
X112657142Y-85970870D02*
X112799999Y-85899442D01*
X112799999Y-85899442D02*
X112871428Y-85828013D01*
X112871428Y-85828013D02*
X112942856Y-85685156D01*
X112942856Y-85685156D02*
X112942856Y-85256584D01*
X112942856Y-85256584D02*
X112871428Y-85113727D01*
X112871428Y-85113727D02*
X112799999Y-85042299D01*
X112799999Y-85042299D02*
X112657142Y-84970870D01*
X112657142Y-84970870D02*
X112371428Y-84970870D01*
X112371428Y-84970870D02*
X112228571Y-85042299D01*
X110371428Y-85970870D02*
X110371428Y-84970870D01*
X110371428Y-85113727D02*
X110299999Y-85042299D01*
X110299999Y-85042299D02*
X110157142Y-84970870D01*
X110157142Y-84970870D02*
X109942856Y-84970870D01*
X109942856Y-84970870D02*
X109799999Y-85042299D01*
X109799999Y-85042299D02*
X109728571Y-85185156D01*
X109728571Y-85185156D02*
X109728571Y-85970870D01*
X109728571Y-85185156D02*
X109657142Y-85042299D01*
X109657142Y-85042299D02*
X109514285Y-84970870D01*
X109514285Y-84970870D02*
X109299999Y-84970870D01*
X109299999Y-84970870D02*
X109157142Y-85042299D01*
X109157142Y-85042299D02*
X109085713Y-85185156D01*
X109085713Y-85185156D02*
X109085713Y-85970870D01*
X107728571Y-85970870D02*
X107728571Y-85185156D01*
X107728571Y-85185156D02*
X107799999Y-85042299D01*
X107799999Y-85042299D02*
X107942856Y-84970870D01*
X107942856Y-84970870D02*
X108228571Y-84970870D01*
X108228571Y-84970870D02*
X108371428Y-85042299D01*
X107728571Y-85899442D02*
X107871428Y-85970870D01*
X107871428Y-85970870D02*
X108228571Y-85970870D01*
X108228571Y-85970870D02*
X108371428Y-85899442D01*
X108371428Y-85899442D02*
X108442856Y-85756584D01*
X108442856Y-85756584D02*
X108442856Y-85613727D01*
X108442856Y-85613727D02*
X108371428Y-85470870D01*
X108371428Y-85470870D02*
X108228571Y-85399442D01*
X108228571Y-85399442D02*
X107871428Y-85399442D01*
X107871428Y-85399442D02*
X107728571Y-85328013D01*
X107228570Y-84970870D02*
X106657142Y-84970870D01*
X107014285Y-84470870D02*
X107014285Y-85756584D01*
X107014285Y-85756584D02*
X106942856Y-85899442D01*
X106942856Y-85899442D02*
X106799999Y-85970870D01*
X106799999Y-85970870D02*
X106657142Y-85970870D01*
X106157142Y-85970870D02*
X106157142Y-84970870D01*
X106157142Y-85256584D02*
X106085713Y-85113727D01*
X106085713Y-85113727D02*
X106014285Y-85042299D01*
X106014285Y-85042299D02*
X105871427Y-84970870D01*
X105871427Y-84970870D02*
X105728570Y-84970870D01*
X105228571Y-85970870D02*
X105228571Y-84970870D01*
X105228571Y-84470870D02*
X105299999Y-84542299D01*
X105299999Y-84542299D02*
X105228571Y-84613727D01*
X105228571Y-84613727D02*
X105157142Y-84542299D01*
X105157142Y-84542299D02*
X105228571Y-84470870D01*
X105228571Y-84470870D02*
X105228571Y-84613727D01*
X104657142Y-85970870D02*
X103871428Y-84970870D01*
X104657142Y-84970870D02*
X103871428Y-85970870D01*
X102157142Y-85970870D02*
X102157142Y-84970870D01*
X102157142Y-84470870D02*
X102228570Y-84542299D01*
X102228570Y-84542299D02*
X102157142Y-84613727D01*
X102157142Y-84613727D02*
X102085713Y-84542299D01*
X102085713Y-84542299D02*
X102157142Y-84470870D01*
X102157142Y-84470870D02*
X102157142Y-84613727D01*
X101442856Y-84970870D02*
X101442856Y-85970870D01*
X101442856Y-85113727D02*
X101371427Y-85042299D01*
X101371427Y-85042299D02*
X101228570Y-84970870D01*
X101228570Y-84970870D02*
X101014284Y-84970870D01*
X101014284Y-84970870D02*
X100871427Y-85042299D01*
X100871427Y-85042299D02*
X100799999Y-85185156D01*
X100799999Y-85185156D02*
X100799999Y-85970870D01*
X100299998Y-84970870D02*
X99728570Y-84970870D01*
X100085713Y-84470870D02*
X100085713Y-85756584D01*
X100085713Y-85756584D02*
X100014284Y-85899442D01*
X100014284Y-85899442D02*
X99871427Y-85970870D01*
X99871427Y-85970870D02*
X99728570Y-85970870D01*
X98657141Y-85899442D02*
X98799998Y-85970870D01*
X98799998Y-85970870D02*
X99085713Y-85970870D01*
X99085713Y-85970870D02*
X99228570Y-85899442D01*
X99228570Y-85899442D02*
X99299998Y-85756584D01*
X99299998Y-85756584D02*
X99299998Y-85185156D01*
X99299998Y-85185156D02*
X99228570Y-85042299D01*
X99228570Y-85042299D02*
X99085713Y-84970870D01*
X99085713Y-84970870D02*
X98799998Y-84970870D01*
X98799998Y-84970870D02*
X98657141Y-85042299D01*
X98657141Y-85042299D02*
X98585713Y-85185156D01*
X98585713Y-85185156D02*
X98585713Y-85328013D01*
X98585713Y-85328013D02*
X99299998Y-85470870D01*
X97942856Y-85970870D02*
X97942856Y-84970870D01*
X97942856Y-85256584D02*
X97871427Y-85113727D01*
X97871427Y-85113727D02*
X97799999Y-85042299D01*
X97799999Y-85042299D02*
X97657141Y-84970870D01*
X97657141Y-84970870D02*
X97514284Y-84970870D01*
X97228570Y-84970870D02*
X96657142Y-84970870D01*
X97014285Y-85970870D02*
X97014285Y-84685156D01*
X97014285Y-84685156D02*
X96942856Y-84542299D01*
X96942856Y-84542299D02*
X96799999Y-84470870D01*
X96799999Y-84470870D02*
X96657142Y-84470870D01*
X95514285Y-85970870D02*
X95514285Y-85185156D01*
X95514285Y-85185156D02*
X95585713Y-85042299D01*
X95585713Y-85042299D02*
X95728570Y-84970870D01*
X95728570Y-84970870D02*
X96014285Y-84970870D01*
X96014285Y-84970870D02*
X96157142Y-85042299D01*
X95514285Y-85899442D02*
X95657142Y-85970870D01*
X95657142Y-85970870D02*
X96014285Y-85970870D01*
X96014285Y-85970870D02*
X96157142Y-85899442D01*
X96157142Y-85899442D02*
X96228570Y-85756584D01*
X96228570Y-85756584D02*
X96228570Y-85613727D01*
X96228570Y-85613727D02*
X96157142Y-85470870D01*
X96157142Y-85470870D02*
X96014285Y-85399442D01*
X96014285Y-85399442D02*
X95657142Y-85399442D01*
X95657142Y-85399442D02*
X95514285Y-85328013D01*
X94157142Y-85899442D02*
X94299999Y-85970870D01*
X94299999Y-85970870D02*
X94585713Y-85970870D01*
X94585713Y-85970870D02*
X94728570Y-85899442D01*
X94728570Y-85899442D02*
X94799999Y-85828013D01*
X94799999Y-85828013D02*
X94871427Y-85685156D01*
X94871427Y-85685156D02*
X94871427Y-85256584D01*
X94871427Y-85256584D02*
X94799999Y-85113727D01*
X94799999Y-85113727D02*
X94728570Y-85042299D01*
X94728570Y-85042299D02*
X94585713Y-84970870D01*
X94585713Y-84970870D02*
X94299999Y-84970870D01*
X94299999Y-84970870D02*
X94157142Y-85042299D01*
X92942856Y-85899442D02*
X93085713Y-85970870D01*
X93085713Y-85970870D02*
X93371428Y-85970870D01*
X93371428Y-85970870D02*
X93514285Y-85899442D01*
X93514285Y-85899442D02*
X93585713Y-85756584D01*
X93585713Y-85756584D02*
X93585713Y-85185156D01*
X93585713Y-85185156D02*
X93514285Y-85042299D01*
X93514285Y-85042299D02*
X93371428Y-84970870D01*
X93371428Y-84970870D02*
X93085713Y-84970870D01*
X93085713Y-84970870D02*
X92942856Y-85042299D01*
X92942856Y-85042299D02*
X92871428Y-85185156D01*
X92871428Y-85185156D02*
X92871428Y-85328013D01*
X92871428Y-85328013D02*
X93585713Y-85470870D01*
X92228571Y-85828013D02*
X92157142Y-85899442D01*
X92157142Y-85899442D02*
X92228571Y-85970870D01*
X92228571Y-85970870D02*
X92299999Y-85899442D01*
X92299999Y-85899442D02*
X92228571Y-85828013D01*
X92228571Y-85828013D02*
X92228571Y-85970870D01*
X114835713Y-86885786D02*
X114335713Y-88385786D01*
X114335713Y-88385786D02*
X113835713Y-86885786D01*
X112764285Y-88314358D02*
X112907142Y-88385786D01*
X112907142Y-88385786D02*
X113192857Y-88385786D01*
X113192857Y-88385786D02*
X113335714Y-88314358D01*
X113335714Y-88314358D02*
X113407142Y-88171500D01*
X113407142Y-88171500D02*
X113407142Y-87600072D01*
X113407142Y-87600072D02*
X113335714Y-87457215D01*
X113335714Y-87457215D02*
X113192857Y-87385786D01*
X113192857Y-87385786D02*
X112907142Y-87385786D01*
X112907142Y-87385786D02*
X112764285Y-87457215D01*
X112764285Y-87457215D02*
X112692857Y-87600072D01*
X112692857Y-87600072D02*
X112692857Y-87742929D01*
X112692857Y-87742929D02*
X113407142Y-87885786D01*
X112050000Y-88385786D02*
X112050000Y-87385786D01*
X112050000Y-87671500D02*
X111978571Y-87528643D01*
X111978571Y-87528643D02*
X111907143Y-87457215D01*
X111907143Y-87457215D02*
X111764285Y-87385786D01*
X111764285Y-87385786D02*
X111621428Y-87385786D01*
X111192857Y-88314358D02*
X111050000Y-88385786D01*
X111050000Y-88385786D02*
X110764286Y-88385786D01*
X110764286Y-88385786D02*
X110621429Y-88314358D01*
X110621429Y-88314358D02*
X110550000Y-88171500D01*
X110550000Y-88171500D02*
X110550000Y-88100072D01*
X110550000Y-88100072D02*
X110621429Y-87957215D01*
X110621429Y-87957215D02*
X110764286Y-87885786D01*
X110764286Y-87885786D02*
X110978572Y-87885786D01*
X110978572Y-87885786D02*
X111121429Y-87814358D01*
X111121429Y-87814358D02*
X111192857Y-87671500D01*
X111192857Y-87671500D02*
X111192857Y-87600072D01*
X111192857Y-87600072D02*
X111121429Y-87457215D01*
X111121429Y-87457215D02*
X110978572Y-87385786D01*
X110978572Y-87385786D02*
X110764286Y-87385786D01*
X110764286Y-87385786D02*
X110621429Y-87457215D01*
X109907143Y-88385786D02*
X109907143Y-87385786D01*
X109907143Y-86885786D02*
X109978571Y-86957215D01*
X109978571Y-86957215D02*
X109907143Y-87028643D01*
X109907143Y-87028643D02*
X109835714Y-86957215D01*
X109835714Y-86957215D02*
X109907143Y-86885786D01*
X109907143Y-86885786D02*
X109907143Y-87028643D01*
X108978571Y-88385786D02*
X109121428Y-88314358D01*
X109121428Y-88314358D02*
X109192857Y-88242929D01*
X109192857Y-88242929D02*
X109264285Y-88100072D01*
X109264285Y-88100072D02*
X109264285Y-87671500D01*
X109264285Y-87671500D02*
X109192857Y-87528643D01*
X109192857Y-87528643D02*
X109121428Y-87457215D01*
X109121428Y-87457215D02*
X108978571Y-87385786D01*
X108978571Y-87385786D02*
X108764285Y-87385786D01*
X108764285Y-87385786D02*
X108621428Y-87457215D01*
X108621428Y-87457215D02*
X108550000Y-87528643D01*
X108550000Y-87528643D02*
X108478571Y-87671500D01*
X108478571Y-87671500D02*
X108478571Y-88100072D01*
X108478571Y-88100072D02*
X108550000Y-88242929D01*
X108550000Y-88242929D02*
X108621428Y-88314358D01*
X108621428Y-88314358D02*
X108764285Y-88385786D01*
X108764285Y-88385786D02*
X108978571Y-88385786D01*
X107835714Y-87385786D02*
X107835714Y-88385786D01*
X107835714Y-87528643D02*
X107764285Y-87457215D01*
X107764285Y-87457215D02*
X107621428Y-87385786D01*
X107621428Y-87385786D02*
X107407142Y-87385786D01*
X107407142Y-87385786D02*
X107264285Y-87457215D01*
X107264285Y-87457215D02*
X107192857Y-87600072D01*
X107192857Y-87600072D02*
X107192857Y-88385786D01*
X104549999Y-88385786D02*
X105407142Y-88385786D01*
X104978571Y-88385786D02*
X104978571Y-86885786D01*
X104978571Y-86885786D02*
X105121428Y-87100072D01*
X105121428Y-87100072D02*
X105264285Y-87242929D01*
X105264285Y-87242929D02*
X105407142Y-87314358D01*
X103907143Y-88242929D02*
X103835714Y-88314358D01*
X103835714Y-88314358D02*
X103907143Y-88385786D01*
X103907143Y-88385786D02*
X103978571Y-88314358D01*
X103978571Y-88314358D02*
X103907143Y-88242929D01*
X103907143Y-88242929D02*
X103907143Y-88385786D01*
X102907142Y-86885786D02*
X102764285Y-86885786D01*
X102764285Y-86885786D02*
X102621428Y-86957215D01*
X102621428Y-86957215D02*
X102550000Y-87028643D01*
X102550000Y-87028643D02*
X102478571Y-87171500D01*
X102478571Y-87171500D02*
X102407142Y-87457215D01*
X102407142Y-87457215D02*
X102407142Y-87814358D01*
X102407142Y-87814358D02*
X102478571Y-88100072D01*
X102478571Y-88100072D02*
X102550000Y-88242929D01*
X102550000Y-88242929D02*
X102621428Y-88314358D01*
X102621428Y-88314358D02*
X102764285Y-88385786D01*
X102764285Y-88385786D02*
X102907142Y-88385786D01*
X102907142Y-88385786D02*
X103050000Y-88314358D01*
X103050000Y-88314358D02*
X103121428Y-88242929D01*
X103121428Y-88242929D02*
X103192857Y-88100072D01*
X103192857Y-88100072D02*
X103264285Y-87814358D01*
X103264285Y-87814358D02*
X103264285Y-87457215D01*
X103264285Y-87457215D02*
X103192857Y-87171500D01*
X103192857Y-87171500D02*
X103121428Y-87028643D01*
X103121428Y-87028643D02*
X103050000Y-86957215D01*
X103050000Y-86957215D02*
X102907142Y-86885786D01*
X121621426Y-91372131D02*
X121692855Y-91300702D01*
X121692855Y-91300702D02*
X121835712Y-91086416D01*
X121835712Y-91086416D02*
X121907141Y-90943559D01*
X121907141Y-90943559D02*
X121978569Y-90729274D01*
X121978569Y-90729274D02*
X122049998Y-90372131D01*
X122049998Y-90372131D02*
X122049998Y-90086416D01*
X122049998Y-90086416D02*
X121978569Y-89729274D01*
X121978569Y-89729274D02*
X121907141Y-89514988D01*
X121907141Y-89514988D02*
X121835712Y-89372131D01*
X121835712Y-89372131D02*
X121692855Y-89157845D01*
X121692855Y-89157845D02*
X121621426Y-89086416D01*
X120407141Y-90729274D02*
X120549998Y-90800702D01*
X120549998Y-90800702D02*
X120835712Y-90800702D01*
X120835712Y-90800702D02*
X120978569Y-90729274D01*
X120978569Y-90729274D02*
X121049998Y-90657845D01*
X121049998Y-90657845D02*
X121121426Y-90514988D01*
X121121426Y-90514988D02*
X121121426Y-90086416D01*
X121121426Y-90086416D02*
X121049998Y-89943559D01*
X121049998Y-89943559D02*
X120978569Y-89872131D01*
X120978569Y-89872131D02*
X120835712Y-89800702D01*
X120835712Y-89800702D02*
X120549998Y-89800702D01*
X120549998Y-89800702D02*
X120407141Y-89872131D01*
X119907141Y-91372131D02*
X119835712Y-91300702D01*
X119835712Y-91300702D02*
X119692855Y-91086416D01*
X119692855Y-91086416D02*
X119621427Y-90943559D01*
X119621427Y-90943559D02*
X119549998Y-90729274D01*
X119549998Y-90729274D02*
X119478569Y-90372131D01*
X119478569Y-90372131D02*
X119478569Y-90086416D01*
X119478569Y-90086416D02*
X119549998Y-89729274D01*
X119549998Y-89729274D02*
X119621427Y-89514988D01*
X119621427Y-89514988D02*
X119692855Y-89372131D01*
X119692855Y-89372131D02*
X119835712Y-89157845D01*
X119835712Y-89157845D02*
X119907141Y-89086416D01*
X117692855Y-89443559D02*
X117621427Y-89372131D01*
X117621427Y-89372131D02*
X117478570Y-89300702D01*
X117478570Y-89300702D02*
X117121427Y-89300702D01*
X117121427Y-89300702D02*
X116978570Y-89372131D01*
X116978570Y-89372131D02*
X116907141Y-89443559D01*
X116907141Y-89443559D02*
X116835712Y-89586416D01*
X116835712Y-89586416D02*
X116835712Y-89729274D01*
X116835712Y-89729274D02*
X116907141Y-89943559D01*
X116907141Y-89943559D02*
X117764284Y-90800702D01*
X117764284Y-90800702D02*
X116835712Y-90800702D01*
X115907141Y-89300702D02*
X115764284Y-89300702D01*
X115764284Y-89300702D02*
X115621427Y-89372131D01*
X115621427Y-89372131D02*
X115549999Y-89443559D01*
X115549999Y-89443559D02*
X115478570Y-89586416D01*
X115478570Y-89586416D02*
X115407141Y-89872131D01*
X115407141Y-89872131D02*
X115407141Y-90229274D01*
X115407141Y-90229274D02*
X115478570Y-90514988D01*
X115478570Y-90514988D02*
X115549999Y-90657845D01*
X115549999Y-90657845D02*
X115621427Y-90729274D01*
X115621427Y-90729274D02*
X115764284Y-90800702D01*
X115764284Y-90800702D02*
X115907141Y-90800702D01*
X115907141Y-90800702D02*
X116049999Y-90729274D01*
X116049999Y-90729274D02*
X116121427Y-90657845D01*
X116121427Y-90657845D02*
X116192856Y-90514988D01*
X116192856Y-90514988D02*
X116264284Y-90229274D01*
X116264284Y-90229274D02*
X116264284Y-89872131D01*
X116264284Y-89872131D02*
X116192856Y-89586416D01*
X116192856Y-89586416D02*
X116121427Y-89443559D01*
X116121427Y-89443559D02*
X116049999Y-89372131D01*
X116049999Y-89372131D02*
X115907141Y-89300702D01*
X114835713Y-89443559D02*
X114764285Y-89372131D01*
X114764285Y-89372131D02*
X114621428Y-89300702D01*
X114621428Y-89300702D02*
X114264285Y-89300702D01*
X114264285Y-89300702D02*
X114121428Y-89372131D01*
X114121428Y-89372131D02*
X114049999Y-89443559D01*
X114049999Y-89443559D02*
X113978570Y-89586416D01*
X113978570Y-89586416D02*
X113978570Y-89729274D01*
X113978570Y-89729274D02*
X114049999Y-89943559D01*
X114049999Y-89943559D02*
X114907142Y-90800702D01*
X114907142Y-90800702D02*
X113978570Y-90800702D01*
X112621428Y-89300702D02*
X113335714Y-89300702D01*
X113335714Y-89300702D02*
X113407142Y-90014988D01*
X113407142Y-90014988D02*
X113335714Y-89943559D01*
X113335714Y-89943559D02*
X113192857Y-89872131D01*
X113192857Y-89872131D02*
X112835714Y-89872131D01*
X112835714Y-89872131D02*
X112692857Y-89943559D01*
X112692857Y-89943559D02*
X112621428Y-90014988D01*
X112621428Y-90014988D02*
X112549999Y-90157845D01*
X112549999Y-90157845D02*
X112549999Y-90514988D01*
X112549999Y-90514988D02*
X112621428Y-90657845D01*
X112621428Y-90657845D02*
X112692857Y-90729274D01*
X112692857Y-90729274D02*
X112835714Y-90800702D01*
X112835714Y-90800702D02*
X113192857Y-90800702D01*
X113192857Y-90800702D02*
X113335714Y-90729274D01*
X113335714Y-90729274D02*
X113407142Y-90657845D01*
X110835714Y-90729274D02*
X110621429Y-90800702D01*
X110621429Y-90800702D02*
X110264286Y-90800702D01*
X110264286Y-90800702D02*
X110121429Y-90729274D01*
X110121429Y-90729274D02*
X110050000Y-90657845D01*
X110050000Y-90657845D02*
X109978571Y-90514988D01*
X109978571Y-90514988D02*
X109978571Y-90372131D01*
X109978571Y-90372131D02*
X110050000Y-90229274D01*
X110050000Y-90229274D02*
X110121429Y-90157845D01*
X110121429Y-90157845D02*
X110264286Y-90086416D01*
X110264286Y-90086416D02*
X110550000Y-90014988D01*
X110550000Y-90014988D02*
X110692857Y-89943559D01*
X110692857Y-89943559D02*
X110764286Y-89872131D01*
X110764286Y-89872131D02*
X110835714Y-89729274D01*
X110835714Y-89729274D02*
X110835714Y-89586416D01*
X110835714Y-89586416D02*
X110764286Y-89443559D01*
X110764286Y-89443559D02*
X110692857Y-89372131D01*
X110692857Y-89372131D02*
X110550000Y-89300702D01*
X110550000Y-89300702D02*
X110192857Y-89300702D01*
X110192857Y-89300702D02*
X109978571Y-89372131D01*
X109550000Y-89800702D02*
X108978572Y-89800702D01*
X109335715Y-89300702D02*
X109335715Y-90586416D01*
X109335715Y-90586416D02*
X109264286Y-90729274D01*
X109264286Y-90729274D02*
X109121429Y-90800702D01*
X109121429Y-90800702D02*
X108978572Y-90800702D01*
X107907143Y-90729274D02*
X108050000Y-90800702D01*
X108050000Y-90800702D02*
X108335715Y-90800702D01*
X108335715Y-90800702D02*
X108478572Y-90729274D01*
X108478572Y-90729274D02*
X108550000Y-90586416D01*
X108550000Y-90586416D02*
X108550000Y-90014988D01*
X108550000Y-90014988D02*
X108478572Y-89872131D01*
X108478572Y-89872131D02*
X108335715Y-89800702D01*
X108335715Y-89800702D02*
X108050000Y-89800702D01*
X108050000Y-89800702D02*
X107907143Y-89872131D01*
X107907143Y-89872131D02*
X107835715Y-90014988D01*
X107835715Y-90014988D02*
X107835715Y-90157845D01*
X107835715Y-90157845D02*
X108550000Y-90300702D01*
X107192858Y-89800702D02*
X107192858Y-91300702D01*
X107192858Y-89872131D02*
X107050001Y-89800702D01*
X107050001Y-89800702D02*
X106764286Y-89800702D01*
X106764286Y-89800702D02*
X106621429Y-89872131D01*
X106621429Y-89872131D02*
X106550001Y-89943559D01*
X106550001Y-89943559D02*
X106478572Y-90086416D01*
X106478572Y-90086416D02*
X106478572Y-90514988D01*
X106478572Y-90514988D02*
X106550001Y-90657845D01*
X106550001Y-90657845D02*
X106621429Y-90729274D01*
X106621429Y-90729274D02*
X106764286Y-90800702D01*
X106764286Y-90800702D02*
X107050001Y-90800702D01*
X107050001Y-90800702D02*
X107192858Y-90729274D01*
X105835715Y-90800702D02*
X105835715Y-89300702D01*
X105192858Y-90800702D02*
X105192858Y-90014988D01*
X105192858Y-90014988D02*
X105264286Y-89872131D01*
X105264286Y-89872131D02*
X105407143Y-89800702D01*
X105407143Y-89800702D02*
X105621429Y-89800702D01*
X105621429Y-89800702D02*
X105764286Y-89872131D01*
X105764286Y-89872131D02*
X105835715Y-89943559D01*
X103907143Y-90729274D02*
X104050000Y-90800702D01*
X104050000Y-90800702D02*
X104335715Y-90800702D01*
X104335715Y-90800702D02*
X104478572Y-90729274D01*
X104478572Y-90729274D02*
X104550000Y-90586416D01*
X104550000Y-90586416D02*
X104550000Y-90014988D01*
X104550000Y-90014988D02*
X104478572Y-89872131D01*
X104478572Y-89872131D02*
X104335715Y-89800702D01*
X104335715Y-89800702D02*
X104050000Y-89800702D01*
X104050000Y-89800702D02*
X103907143Y-89872131D01*
X103907143Y-89872131D02*
X103835715Y-90014988D01*
X103835715Y-90014988D02*
X103835715Y-90157845D01*
X103835715Y-90157845D02*
X104550000Y-90300702D01*
X103192858Y-89800702D02*
X103192858Y-90800702D01*
X103192858Y-89943559D02*
X103121429Y-89872131D01*
X103121429Y-89872131D02*
X102978572Y-89800702D01*
X102978572Y-89800702D02*
X102764286Y-89800702D01*
X102764286Y-89800702D02*
X102621429Y-89872131D01*
X102621429Y-89872131D02*
X102550001Y-90014988D01*
X102550001Y-90014988D02*
X102550001Y-90800702D01*
X100692858Y-89300702D02*
X100692858Y-90514988D01*
X100692858Y-90514988D02*
X100621429Y-90657845D01*
X100621429Y-90657845D02*
X100550001Y-90729274D01*
X100550001Y-90729274D02*
X100407143Y-90800702D01*
X100407143Y-90800702D02*
X100121429Y-90800702D01*
X100121429Y-90800702D02*
X99978572Y-90729274D01*
X99978572Y-90729274D02*
X99907143Y-90657845D01*
X99907143Y-90657845D02*
X99835715Y-90514988D01*
X99835715Y-90514988D02*
X99835715Y-89300702D01*
X99192857Y-90729274D02*
X99050000Y-90800702D01*
X99050000Y-90800702D02*
X98764286Y-90800702D01*
X98764286Y-90800702D02*
X98621429Y-90729274D01*
X98621429Y-90729274D02*
X98550000Y-90586416D01*
X98550000Y-90586416D02*
X98550000Y-90514988D01*
X98550000Y-90514988D02*
X98621429Y-90372131D01*
X98621429Y-90372131D02*
X98764286Y-90300702D01*
X98764286Y-90300702D02*
X98978572Y-90300702D01*
X98978572Y-90300702D02*
X99121429Y-90229274D01*
X99121429Y-90229274D02*
X99192857Y-90086416D01*
X99192857Y-90086416D02*
X99192857Y-90014988D01*
X99192857Y-90014988D02*
X99121429Y-89872131D01*
X99121429Y-89872131D02*
X98978572Y-89800702D01*
X98978572Y-89800702D02*
X98764286Y-89800702D01*
X98764286Y-89800702D02*
X98621429Y-89872131D01*
X97907143Y-90800702D02*
X97907143Y-89300702D01*
X97264286Y-90800702D02*
X97264286Y-90014988D01*
X97264286Y-90014988D02*
X97335714Y-89872131D01*
X97335714Y-89872131D02*
X97478571Y-89800702D01*
X97478571Y-89800702D02*
X97692857Y-89800702D01*
X97692857Y-89800702D02*
X97835714Y-89872131D01*
X97835714Y-89872131D02*
X97907143Y-89943559D01*
X95978571Y-90729274D02*
X96121428Y-90800702D01*
X96121428Y-90800702D02*
X96407143Y-90800702D01*
X96407143Y-90800702D02*
X96550000Y-90729274D01*
X96550000Y-90729274D02*
X96621428Y-90586416D01*
X96621428Y-90586416D02*
X96621428Y-90014988D01*
X96621428Y-90014988D02*
X96550000Y-89872131D01*
X96550000Y-89872131D02*
X96407143Y-89800702D01*
X96407143Y-89800702D02*
X96121428Y-89800702D01*
X96121428Y-89800702D02*
X95978571Y-89872131D01*
X95978571Y-89872131D02*
X95907143Y-90014988D01*
X95907143Y-90014988D02*
X95907143Y-90157845D01*
X95907143Y-90157845D02*
X96621428Y-90300702D01*
X95264286Y-90800702D02*
X95264286Y-89800702D01*
X95264286Y-90086416D02*
X95192857Y-89943559D01*
X95192857Y-89943559D02*
X95121429Y-89872131D01*
X95121429Y-89872131D02*
X94978571Y-89800702D01*
X94978571Y-89800702D02*
X94835714Y-89800702D01*
D11*
X120438094Y-68634819D02*
X120438094Y-67634819D01*
X120438094Y-67634819D02*
X120199999Y-67634819D01*
X120199999Y-67634819D02*
X120057142Y-67682438D01*
X120057142Y-67682438D02*
X119961904Y-67777676D01*
X119961904Y-67777676D02*
X119914285Y-67872914D01*
X119914285Y-67872914D02*
X119866666Y-68063390D01*
X119866666Y-68063390D02*
X119866666Y-68206247D01*
X119866666Y-68206247D02*
X119914285Y-68396723D01*
X119914285Y-68396723D02*
X119961904Y-68491961D01*
X119961904Y-68491961D02*
X120057142Y-68587200D01*
X120057142Y-68587200D02*
X120199999Y-68634819D01*
X120199999Y-68634819D02*
X120438094Y-68634819D01*
X118866666Y-68539580D02*
X118914285Y-68587200D01*
X118914285Y-68587200D02*
X119057142Y-68634819D01*
X119057142Y-68634819D02*
X119152380Y-68634819D01*
X119152380Y-68634819D02*
X119295237Y-68587200D01*
X119295237Y-68587200D02*
X119390475Y-68491961D01*
X119390475Y-68491961D02*
X119438094Y-68396723D01*
X119438094Y-68396723D02*
X119485713Y-68206247D01*
X119485713Y-68206247D02*
X119485713Y-68063390D01*
X119485713Y-68063390D02*
X119438094Y-67872914D01*
X119438094Y-67872914D02*
X119390475Y-67777676D01*
X119390475Y-67777676D02*
X119295237Y-67682438D01*
X119295237Y-67682438D02*
X119152380Y-67634819D01*
X119152380Y-67634819D02*
X119057142Y-67634819D01*
X119057142Y-67634819D02*
X118914285Y-67682438D01*
X118914285Y-67682438D02*
X118866666Y-67730057D01*
X118009523Y-67968152D02*
X118009523Y-68634819D01*
X118247618Y-67587200D02*
X118485713Y-68301485D01*
X118485713Y-68301485D02*
X117866666Y-68301485D01*
X91438094Y-55234819D02*
X91438094Y-54234819D01*
X91438094Y-54234819D02*
X91199999Y-54234819D01*
X91199999Y-54234819D02*
X91057142Y-54282438D01*
X91057142Y-54282438D02*
X90961904Y-54377676D01*
X90961904Y-54377676D02*
X90914285Y-54472914D01*
X90914285Y-54472914D02*
X90866666Y-54663390D01*
X90866666Y-54663390D02*
X90866666Y-54806247D01*
X90866666Y-54806247D02*
X90914285Y-54996723D01*
X90914285Y-54996723D02*
X90961904Y-55091961D01*
X90961904Y-55091961D02*
X91057142Y-55187200D01*
X91057142Y-55187200D02*
X91199999Y-55234819D01*
X91199999Y-55234819D02*
X91438094Y-55234819D01*
X89866666Y-55139580D02*
X89914285Y-55187200D01*
X89914285Y-55187200D02*
X90057142Y-55234819D01*
X90057142Y-55234819D02*
X90152380Y-55234819D01*
X90152380Y-55234819D02*
X90295237Y-55187200D01*
X90295237Y-55187200D02*
X90390475Y-55091961D01*
X90390475Y-55091961D02*
X90438094Y-54996723D01*
X90438094Y-54996723D02*
X90485713Y-54806247D01*
X90485713Y-54806247D02*
X90485713Y-54663390D01*
X90485713Y-54663390D02*
X90438094Y-54472914D01*
X90438094Y-54472914D02*
X90390475Y-54377676D01*
X90390475Y-54377676D02*
X90295237Y-54282438D01*
X90295237Y-54282438D02*
X90152380Y-54234819D01*
X90152380Y-54234819D02*
X90057142Y-54234819D01*
X90057142Y-54234819D02*
X89914285Y-54282438D01*
X89914285Y-54282438D02*
X89866666Y-54330057D01*
X88914285Y-55234819D02*
X89485713Y-55234819D01*
X89199999Y-55234819D02*
X89199999Y-54234819D01*
X89199999Y-54234819D02*
X89295237Y-54377676D01*
X89295237Y-54377676D02*
X89390475Y-54472914D01*
X89390475Y-54472914D02*
X89485713Y-54520533D01*
X119925594Y-54884819D02*
X119925594Y-53884819D01*
X119925594Y-53884819D02*
X119687499Y-53884819D01*
X119687499Y-53884819D02*
X119544642Y-53932438D01*
X119544642Y-53932438D02*
X119449404Y-54027676D01*
X119449404Y-54027676D02*
X119401785Y-54122914D01*
X119401785Y-54122914D02*
X119354166Y-54313390D01*
X119354166Y-54313390D02*
X119354166Y-54456247D01*
X119354166Y-54456247D02*
X119401785Y-54646723D01*
X119401785Y-54646723D02*
X119449404Y-54741961D01*
X119449404Y-54741961D02*
X119544642Y-54837200D01*
X119544642Y-54837200D02*
X119687499Y-54884819D01*
X119687499Y-54884819D02*
X119925594Y-54884819D01*
X118354166Y-54789580D02*
X118401785Y-54837200D01*
X118401785Y-54837200D02*
X118544642Y-54884819D01*
X118544642Y-54884819D02*
X118639880Y-54884819D01*
X118639880Y-54884819D02*
X118782737Y-54837200D01*
X118782737Y-54837200D02*
X118877975Y-54741961D01*
X118877975Y-54741961D02*
X118925594Y-54646723D01*
X118925594Y-54646723D02*
X118973213Y-54456247D01*
X118973213Y-54456247D02*
X118973213Y-54313390D01*
X118973213Y-54313390D02*
X118925594Y-54122914D01*
X118925594Y-54122914D02*
X118877975Y-54027676D01*
X118877975Y-54027676D02*
X118782737Y-53932438D01*
X118782737Y-53932438D02*
X118639880Y-53884819D01*
X118639880Y-53884819D02*
X118544642Y-53884819D01*
X118544642Y-53884819D02*
X118401785Y-53932438D01*
X118401785Y-53932438D02*
X118354166Y-53980057D01*
X118020832Y-53884819D02*
X117401785Y-53884819D01*
X117401785Y-53884819D02*
X117735118Y-54265771D01*
X117735118Y-54265771D02*
X117592261Y-54265771D01*
X117592261Y-54265771D02*
X117497023Y-54313390D01*
X117497023Y-54313390D02*
X117449404Y-54361009D01*
X117449404Y-54361009D02*
X117401785Y-54456247D01*
X117401785Y-54456247D02*
X117401785Y-54694342D01*
X117401785Y-54694342D02*
X117449404Y-54789580D01*
X117449404Y-54789580D02*
X117497023Y-54837200D01*
X117497023Y-54837200D02*
X117592261Y-54884819D01*
X117592261Y-54884819D02*
X117877975Y-54884819D01*
X117877975Y-54884819D02*
X117973213Y-54837200D01*
X117973213Y-54837200D02*
X118020832Y-54789580D01*
X76525594Y-82684819D02*
X76525594Y-81684819D01*
X76525594Y-81684819D02*
X76287499Y-81684819D01*
X76287499Y-81684819D02*
X76144642Y-81732438D01*
X76144642Y-81732438D02*
X76049404Y-81827676D01*
X76049404Y-81827676D02*
X76001785Y-81922914D01*
X76001785Y-81922914D02*
X75954166Y-82113390D01*
X75954166Y-82113390D02*
X75954166Y-82256247D01*
X75954166Y-82256247D02*
X76001785Y-82446723D01*
X76001785Y-82446723D02*
X76049404Y-82541961D01*
X76049404Y-82541961D02*
X76144642Y-82637200D01*
X76144642Y-82637200D02*
X76287499Y-82684819D01*
X76287499Y-82684819D02*
X76525594Y-82684819D01*
X74954166Y-82589580D02*
X75001785Y-82637200D01*
X75001785Y-82637200D02*
X75144642Y-82684819D01*
X75144642Y-82684819D02*
X75239880Y-82684819D01*
X75239880Y-82684819D02*
X75382737Y-82637200D01*
X75382737Y-82637200D02*
X75477975Y-82541961D01*
X75477975Y-82541961D02*
X75525594Y-82446723D01*
X75525594Y-82446723D02*
X75573213Y-82256247D01*
X75573213Y-82256247D02*
X75573213Y-82113390D01*
X75573213Y-82113390D02*
X75525594Y-81922914D01*
X75525594Y-81922914D02*
X75477975Y-81827676D01*
X75477975Y-81827676D02*
X75382737Y-81732438D01*
X75382737Y-81732438D02*
X75239880Y-81684819D01*
X75239880Y-81684819D02*
X75144642Y-81684819D01*
X75144642Y-81684819D02*
X75001785Y-81732438D01*
X75001785Y-81732438D02*
X74954166Y-81780057D01*
X74049404Y-81684819D02*
X74525594Y-81684819D01*
X74525594Y-81684819D02*
X74573213Y-82161009D01*
X74573213Y-82161009D02*
X74525594Y-82113390D01*
X74525594Y-82113390D02*
X74430356Y-82065771D01*
X74430356Y-82065771D02*
X74192261Y-82065771D01*
X74192261Y-82065771D02*
X74097023Y-82113390D01*
X74097023Y-82113390D02*
X74049404Y-82161009D01*
X74049404Y-82161009D02*
X74001785Y-82256247D01*
X74001785Y-82256247D02*
X74001785Y-82494342D01*
X74001785Y-82494342D02*
X74049404Y-82589580D01*
X74049404Y-82589580D02*
X74097023Y-82637200D01*
X74097023Y-82637200D02*
X74192261Y-82684819D01*
X74192261Y-82684819D02*
X74430356Y-82684819D01*
X74430356Y-82684819D02*
X74525594Y-82637200D01*
X74525594Y-82637200D02*
X74573213Y-82589580D01*
X91638094Y-68484819D02*
X91638094Y-67484819D01*
X91638094Y-67484819D02*
X91399999Y-67484819D01*
X91399999Y-67484819D02*
X91257142Y-67532438D01*
X91257142Y-67532438D02*
X91161904Y-67627676D01*
X91161904Y-67627676D02*
X91114285Y-67722914D01*
X91114285Y-67722914D02*
X91066666Y-67913390D01*
X91066666Y-67913390D02*
X91066666Y-68056247D01*
X91066666Y-68056247D02*
X91114285Y-68246723D01*
X91114285Y-68246723D02*
X91161904Y-68341961D01*
X91161904Y-68341961D02*
X91257142Y-68437200D01*
X91257142Y-68437200D02*
X91399999Y-68484819D01*
X91399999Y-68484819D02*
X91638094Y-68484819D01*
X90066666Y-68389580D02*
X90114285Y-68437200D01*
X90114285Y-68437200D02*
X90257142Y-68484819D01*
X90257142Y-68484819D02*
X90352380Y-68484819D01*
X90352380Y-68484819D02*
X90495237Y-68437200D01*
X90495237Y-68437200D02*
X90590475Y-68341961D01*
X90590475Y-68341961D02*
X90638094Y-68246723D01*
X90638094Y-68246723D02*
X90685713Y-68056247D01*
X90685713Y-68056247D02*
X90685713Y-67913390D01*
X90685713Y-67913390D02*
X90638094Y-67722914D01*
X90638094Y-67722914D02*
X90590475Y-67627676D01*
X90590475Y-67627676D02*
X90495237Y-67532438D01*
X90495237Y-67532438D02*
X90352380Y-67484819D01*
X90352380Y-67484819D02*
X90257142Y-67484819D01*
X90257142Y-67484819D02*
X90114285Y-67532438D01*
X90114285Y-67532438D02*
X90066666Y-67580057D01*
X89685713Y-67580057D02*
X89638094Y-67532438D01*
X89638094Y-67532438D02*
X89542856Y-67484819D01*
X89542856Y-67484819D02*
X89304761Y-67484819D01*
X89304761Y-67484819D02*
X89209523Y-67532438D01*
X89209523Y-67532438D02*
X89161904Y-67580057D01*
X89161904Y-67580057D02*
X89114285Y-67675295D01*
X89114285Y-67675295D02*
X89114285Y-67770533D01*
X89114285Y-67770533D02*
X89161904Y-67913390D01*
X89161904Y-67913390D02*
X89733332Y-68484819D01*
X89733332Y-68484819D02*
X89114285Y-68484819D01*
D12*
%TO.C,DC4*%
X118938748Y-65765000D02*
X119461252Y-65765000D01*
X118938748Y-67235000D02*
X119461252Y-67235000D01*
%TO.C,DC1*%
X89938748Y-52365000D02*
X90461252Y-52365000D01*
X89938748Y-53835000D02*
X90461252Y-53835000D01*
%TO.C,DC3*%
X118426248Y-52015000D02*
X118948752Y-52015000D01*
X118426248Y-53485000D02*
X118948752Y-53485000D01*
%TO.C,DC5*%
X75026248Y-79815000D02*
X75548752Y-79815000D01*
X75026248Y-81285000D02*
X75548752Y-81285000D01*
%TO.C,DC2*%
X90138748Y-65615000D02*
X90661252Y-65615000D01*
X90138748Y-67085000D02*
X90661252Y-67085000D01*
%TD*%
M02*
