M48
METRIC,TZ
T1C0.300
T2C0.600
T3C0.800
T4C1.000
T5C1.600
%
G90
G05
T1
X84917Y-64842
X88804Y-67821
X90407Y-68088
X93022Y-74541
X94230Y-73877
X95614Y-90300
X96128Y-62525
X103379Y-53344
X104075Y-72874
X108880Y-66429
X110584Y-67886
X120568Y-60507
X124869Y-47978
X125179Y-59057
X129570Y-60507
X129699Y-88269
X134912Y-60420
T2
X128777Y-78000
X130777Y-78000
X135277Y-78300
X137277Y-78300
T3
X89110Y-50580
X89110Y-58200
X89160Y-63780
X89160Y-71400
X91650Y-50580
X91650Y-58200
X91700Y-63780
X91700Y-71400
X94190Y-50580
X94190Y-58200
X94240Y-63780
X94240Y-71400
X96730Y-50580
X96730Y-58200
X96780Y-63780
X96780Y-71400
X99270Y-50580
X99270Y-58200
X99320Y-63780
X99320Y-71400
X101810Y-50580
X101810Y-58200
X101860Y-63780
X101860Y-71400
X104350Y-50580
X104350Y-58200
X104400Y-63780
X104400Y-71400
X106890Y-50580
X106890Y-58200
X106940Y-63780
X106940Y-71400
X109430Y-50580
X109430Y-58200
X109480Y-63780
X109480Y-71400
X111970Y-50580
X111970Y-58200
X112020Y-63780
X112020Y-71400
X117470Y-49930
X117470Y-57550
X117960Y-63550
X117960Y-71170
X120010Y-49930
X120010Y-57550
X120500Y-63550
X120500Y-71170
X122550Y-49930
X122550Y-57550
X123040Y-63550
X123040Y-71170
X125090Y-49930
X125090Y-57550
X125580Y-63550
X125580Y-71170
X127630Y-49930
X127630Y-57550
X128120Y-63550
X128120Y-71170
X130170Y-49930
X130170Y-57550
X130660Y-63550
X130660Y-71170
X132710Y-49930
X132710Y-57550
X133200Y-63550
X133200Y-71170
X135250Y-49930
X135250Y-57550
X135740Y-63550
X135740Y-71170
X137790Y-49930
X137790Y-57550
X140330Y-49930
X140330Y-57550
X142000Y-76430
X142000Y-78970
X142000Y-81510
X142000Y-84050
X142000Y-86590
X142000Y-89130
X142000Y-91670
X142000Y-94210
X142000Y-96750
T4
X71470Y-77560
X71470Y-95340
X74010Y-77560
X74010Y-95340
X76550Y-77560
X76550Y-95340
X79090Y-77560
X79090Y-95340
X80075Y-53645
X80075Y-56415
X80075Y-59185
X80075Y-61955
X81630Y-77560
X81630Y-95340
X81840Y-43050
X82915Y-52260
X82915Y-55030
X82915Y-57800
X82915Y-60570
X82915Y-63340
X84170Y-77560
X84170Y-95340
X84380Y-43050
X86710Y-77560
X86710Y-95340
X86920Y-43050
X89250Y-77560
X89250Y-95340
X89460Y-43050
X91790Y-77560
X91790Y-95340
X92000Y-43050
X94330Y-77560
X94330Y-95340
X94540Y-43050
X96870Y-77560
X96870Y-95340
X97080Y-43050
X99410Y-77560
X99410Y-95340
X99620Y-43050
X101950Y-77560
X101950Y-95340
X104490Y-77560
X104490Y-95340
X107030Y-77560
X107030Y-95340
X109570Y-77560
X109570Y-95340
X111810Y-43150
X112110Y-77560
X112110Y-95340
X114350Y-43150
X114650Y-77560
X114650Y-95340
X116890Y-43150
X117190Y-77560
X117190Y-95340
X119430Y-43150
X119730Y-77560
X119730Y-95340
X121970Y-43150
X124510Y-43150
X127050Y-43150
X129590Y-43150
X132130Y-43150
X134670Y-43150
X137210Y-43150
X139750Y-43150
X142315Y-63240
X142315Y-65780
X142315Y-68320
X142315Y-70860
T5
X87424Y-55194
M30
